<?xml version="1.0" encoding="UTF-8"?>
<svg width="19px" height="19px" viewBox="0 0 19 19" version="1.1" xmlns="http://www.w3.org/2000/svg" xmlns:xlink="http://www.w3.org/1999/xlink">
    <!-- Generator: Sketch 48.2 (47327) - http://www.bohemiancoding.com/sketch -->
    <title>website analysis</title>
    <desc>Created with Sketch.</desc>
    <defs></defs>
    <g id="Plugin" stroke="none" stroke-width="1" fill="none" fill-rule="evenodd" transform="translate(-594.000000, -2948.000000)">
        <path d="M601,2963 C601.55141,2963 602,2963.63689 602,2964.42265 L602,2967 L600,2967 L600,2964.42265 C600,2963.63689 600.44768,2963 601,2963 Z M612,2952 C612.55141,2952 613,2952.56409 613,2953.26003 L613,2967 L611,2967 L611,2953.26003 C611,2952.56409 611.44768,2952 612,2952 Z M606,2959 C606.55232,2959 607,2959.55546 607,2960.24076 L607,2967 L605,2967 L605,2960.24076 C605,2959.55546 605.44859,2959 606,2959 Z M599.033663,2950.00132 L599.033663,2955.01518 L604,2955.01518 C603.992079,2957.7703 601.757096,2960 599.00066,2960 C596.238944,2960 594,2957.76106 594,2954.99934 C594,2952.23762 596.238944,2950 599.00066,2950 C599.011221,2950 599.023102,2950.00132 599.033663,2950.00132 Z M606,2952.98376 C606,2952.98956 605.998829,2952.9942 605.998829,2953 L601,2953 L601,2948 C603.764637,2948.0174 606,2950.2413 606,2952.98376 Z" id="website-analysis" fill="#1B6EBE"></path>
    </g>
</svg>