<svg width="12" height="12" viewBox="0 0 12 12" fill="none" xmlns="http://www.w3.org/2000/svg">
<g id="Atoms / Icons / a.icon.backlinks">
<g id="Colour">
<path id="Mask" fill-rule="evenodd" clip-rule="evenodd" d="M8.07671 6.94416C8.23777 7.10524 8.44922 7.18619 8.66067 7.18619C8.87212 7.18619 9.08357 7.10524 9.24463 6.94416L11.1336 5.05591C12.2883 3.90032 12.2883 2.02114 11.1336 0.866382C9.9781 -0.289207 8.09901 -0.288381 6.94347 0.866382L5.0553 2.75464C4.73317 3.07761 4.73317 3.60048 5.0553 3.92262C5.37825 4.24559 5.90109 4.24559 6.22322 3.92262L8.1114 2.03436C8.62267 1.52389 9.4536 1.52389 9.9657 2.03436C10.4762 2.54483 10.4762 3.37663 9.9657 3.88793L8.07671 5.77619C7.75375 6.09833 7.75375 6.62119 8.07671 6.94416ZM4.48884 8.67887L3.32091 7.51089L7.51025 3.32136L8.67817 4.48934L4.48884 8.67887ZM2.9607 12.0002C2.20246 12.0002 1.44339 11.7111 0.866032 11.1337C-0.288677 9.97895 -0.288677 8.09895 0.866032 6.94419L2.7542 5.05593C3.07716 4.73296 3.6 4.73296 3.92296 5.05593C4.24509 5.37807 4.24509 5.90176 3.92296 6.22391L2.03396 8.11217C1.52351 8.62347 1.52351 9.45443 2.03396 9.96573C2.54523 10.4762 3.37616 10.4762 3.88744 9.96573L5.77561 8.07747C6.09857 7.75451 6.62141 7.75451 6.94354 8.07747C7.26649 8.40044 7.26649 8.92248 6.94354 9.24545L5.05536 11.1337C4.47801 11.7111 3.71894 12.0002 2.9607 12.0002Z" fill="#FF892B"/>
<mask id="mask0" mask-type="alpha" maskUnits="userSpaceOnUse" x="0" y="0" width="12" height="13">
<path id="Mask_2" fill-rule="evenodd" clip-rule="evenodd" d="M8.07671 6.94416C8.23777 7.10524 8.44922 7.18619 8.66067 7.18619C8.87212 7.18619 9.08357 7.10524 9.24463 6.94416L11.1336 5.05591C12.2883 3.90032 12.2883 2.02114 11.1336 0.866382C9.9781 -0.289207 8.09901 -0.288381 6.94347 0.866382L5.0553 2.75464C4.73317 3.07761 4.73317 3.60048 5.0553 3.92262C5.37825 4.24559 5.90109 4.24559 6.22322 3.92262L8.1114 2.03436C8.62267 1.52389 9.4536 1.52389 9.9657 2.03436C10.4762 2.54483 10.4762 3.37663 9.9657 3.88793L8.07671 5.77619C7.75375 6.09833 7.75375 6.62119 8.07671 6.94416ZM4.48884 8.67887L3.32091 7.51089L7.51025 3.32136L8.67817 4.48934L4.48884 8.67887ZM2.9607 12.0002C2.20246 12.0002 1.44339 11.7111 0.866032 11.1337C-0.288677 9.97895 -0.288677 8.09895 0.866032 6.94419L2.7542 5.05593C3.07716 4.73296 3.6 4.73296 3.92296 5.05593C4.24509 5.37807 4.24509 5.90176 3.92296 6.22391L2.03396 8.11217C1.52351 8.62347 1.52351 9.45443 2.03396 9.96573C2.54523 10.4762 3.37616 10.4762 3.88744 9.96573L5.77561 8.07747C6.09857 7.75451 6.62141 7.75451 6.94354 8.07747C7.26649 8.40044 7.26649 8.92248 6.94354 9.24545L5.05536 11.1337C4.47801 11.7111 3.71894 12.0002 2.9607 12.0002Z" fill="white"/>
</mask>
<g mask="url(#mask0)">
</g>
</g>
</g>
</svg>
