<?xml version="1.0" encoding="UTF-8"?>
<svg width="501px" height="170px" viewBox="0 0 501 170" version="1.1" xmlns="http://www.w3.org/2000/svg" xmlns:xlink="http://www.w3.org/1999/xlink">
    <!-- Generator: Sketch 48.1 (47250) - http://www.bohemiancoding.com/sketch -->
    <title>start-en</title>
    <desc>Created with Sketch.</desc>
    <defs></defs>
    <g id="Plugin" stroke="none" stroke-width="1" fill="none" fill-rule="evenodd" transform="translate(-800.000000, -307.000000)">
        <g id="start-screen" transform="translate(800.000000, 250.000000)">
            <g id="start-en" transform="translate(0.000000, 56.000000)">
                <rect id="bg-all" fill="#E6E9F1" x="0" y="2" width="501" height="168.023256"></rect>
                <rect id="bg" fill="#F3F5F9" x="123" y="30" width="256" height="140"></rect>
                <g id="buttons" transform="translate(136.000000, 128.000000)">
                    <g id="button-2" transform="translate(120.000000, 0.000000)">
                        <rect id="Button-Background" fill="#AECF9E" x="0" y="0" width="110" height="30" rx="2"></rect>
                        <path d="M41.9248047,16.2226562 C41.8388668,17.1328171 41.5029326,17.8427709 40.9169922,18.3525391 C40.3310518,18.8623072 39.5517627,19.1171875 38.5791016,19.1171875 C37.8994107,19.1171875 37.3007838,18.9560563 36.7832031,18.6337891 C36.2656224,18.3115218 35.8662123,17.8535186 35.5849609,17.2597656 C35.3037095,16.6660127 35.1572266,15.9765664 35.1455078,15.1914062 L35.1455078,14.3945312 C35.1455078,13.5898397 35.2880845,12.8808624 35.5732422,12.2675781 C35.8583999,11.6542938 36.2675755,11.1816423 36.8007812,10.8496094 C37.333987,10.5175765 37.9501918,10.3515625 38.6494141,10.3515625 C39.590825,10.3515625 40.3486299,10.6074193 40.9228516,11.1191406 C41.4970732,11.6308619 41.8310542,12.353511 41.9248047,13.2871094 L40.4482422,13.2871094 C40.3779293,12.6738251 40.1992202,12.2314467 39.9121094,11.9599609 C39.6249986,11.6884752 39.2041043,11.5527344 38.6494141,11.5527344 C38.0048796,11.5527344 37.5097674,11.7880836 37.1640625,12.2587891 C36.8183576,12.7294945 36.6416016,13.4199173 36.6337891,14.3300781 L36.6337891,15.0859375 C36.6337891,16.0078171 36.7988265,16.7109351 37.1289062,17.1953125 C37.458986,17.6796899 37.9423796,17.921875 38.5791016,17.921875 C39.1611357,17.921875 39.5986313,17.7910169 39.8916016,17.5292969 C40.1845718,17.2675768 40.3701168,16.8320343 40.4482422,16.2226562 L41.9248047,16.2226562 Z M44.5146484,13.3515625 C44.9794945,12.8124973 45.5673793,12.5429688 46.2783203,12.5429688 C47.6298896,12.5429688 48.3154296,13.3144454 48.3349609,14.8574219 L48.3349609,19 L46.9111328,19 L46.9111328,14.9101562 C46.9111328,14.4726541 46.8164072,14.1630868 46.6269531,13.9814453 C46.4374991,13.7998038 46.1591815,13.7089844 45.7919922,13.7089844 C45.2216768,13.7089844 44.7958998,13.9628881 44.5146484,14.4707031 L44.5146484,19 L43.0908203,19 L43.0908203,10 L44.5146484,10 L44.5146484,13.3515625 Z M53.5615234,19 C53.4990231,18.8789056 53.4443362,18.681642 53.3974609,18.4082031 C52.9443337,18.8808617 52.3896517,19.1171875 51.7333984,19.1171875 C51.0966765,19.1171875 50.5771504,18.9355487 50.1748047,18.5722656 C49.7724589,18.2089826 49.5712891,17.7597683 49.5712891,17.2246094 C49.5712891,16.5488247 49.8222631,16.0302752 50.3242188,15.6689453 C50.8261744,15.3076154 51.5439406,15.1269531 52.4775391,15.1269531 L53.3505859,15.1269531 L53.3505859,14.7109375 C53.3505859,14.3828109 53.25879,14.1201182 53.0751953,13.9228516 C52.8916006,13.725585 52.6123066,13.6269531 52.2373047,13.6269531 C51.9130843,13.6269531 51.647462,13.708007 51.4404297,13.8701172 C51.2333974,14.0322274 51.1298828,14.23828 51.1298828,14.4882812 L49.7060547,14.4882812 C49.7060547,14.1406233 49.8212879,13.8154312 50.0517578,13.5126953 C50.2822277,13.2099594 50.5957011,12.9726571 50.9921875,12.8007812 C51.3886739,12.6289054 51.8310522,12.5429688 52.3193359,12.5429688 C53.0615271,12.5429688 53.6533181,12.7294903 54.0947266,13.1025391 C54.536135,13.4755878 54.7626953,13.9999966 54.7744141,14.6757812 L54.7744141,17.5351562 C54.7744141,18.1054716 54.8544914,18.5605452 55.0146484,18.9003906 L55.0146484,19 L53.5615234,19 Z M51.9970703,17.9746094 C52.2783217,17.9746094 52.5429675,17.9062507 52.7910156,17.7695312 C53.0390637,17.6328118 53.2255853,17.4492199 53.3505859,17.21875 L53.3505859,16.0234375 L52.5830078,16.0234375 C52.0556614,16.0234375 51.659181,16.1152335 51.3935547,16.2988281 C51.1279284,16.4824228 50.9951172,16.7421858 50.9951172,17.078125 C50.9951172,17.3515639 51.0859366,17.5693351 51.2675781,17.7314453 C51.4492197,17.8935555 51.6923813,17.9746094 51.9970703,17.9746094 Z M57.5869141,12.6601562 L57.6279297,13.3925781 C58.096682,12.826169 58.7119103,12.5429688 59.4736328,12.5429688 C60.7939519,12.5429688 61.4658202,13.2988206 61.4892578,14.8105469 L61.4892578,19 L60.0654297,19 L60.0654297,14.8925781 C60.0654297,14.4902324 59.9785165,14.1923838 59.8046875,13.9990234 C59.6308585,13.8056631 59.3466817,13.7089844 58.9521484,13.7089844 C58.3779268,13.7089844 57.9501967,13.9687474 57.6689453,14.4882812 L57.6689453,19 L56.2451172,19 L56.2451172,12.6601562 L57.5869141,12.6601562 Z M62.6904297,15.7832031 C62.6904297,14.7988232 62.9218727,14.0126983 63.3847656,13.4248047 C63.8476586,12.8369111 64.4619102,12.5429688 65.2275391,12.5429688 C65.9501989,12.5429688 66.5185526,12.7949194 66.9326172,13.2988281 L66.9970703,12.6601562 L68.2802734,12.6601562 L68.2802734,18.8066406 C68.2802734,19.638676 68.021487,20.2949195 67.5039062,20.7753906 C66.9863255,21.2558618 66.2880903,21.4960938 65.4091797,21.4960938 C64.9443336,21.4960938 64.4902366,21.399415 64.046875,21.2060547 C63.6035134,21.0126943 63.2666027,20.7597672 63.0361328,20.4472656 L63.7099609,19.5917969 C64.1474631,20.1113307 64.6865202,20.3710938 65.3271484,20.3710938 C65.7998071,20.3710938 66.1728502,20.2431653 66.4462891,19.9873047 C66.7197279,19.731444 66.8564453,19.3554712 66.8564453,18.859375 L66.8564453,18.4316406 C66.446287,18.8886742 65.8994175,19.1171875 65.2158203,19.1171875 C64.4736291,19.1171875 63.8671899,18.8222686 63.3964844,18.2324219 C62.9257789,17.6425752 62.6904297,16.8261771 62.6904297,15.7832031 Z M64.1083984,15.90625 C64.1083984,16.5429719 64.23828,17.0439435 64.4980469,17.4091797 C64.7578138,17.7744159 65.1181618,17.9570312 65.5791016,17.9570312 C66.1533232,17.9570312 66.5791002,17.71094 66.8564453,17.21875 L66.8564453,14.4296875 C66.5869127,13.9492163 66.1650419,13.7089844 65.5908203,13.7089844 C65.122068,13.7089844 64.7578138,13.8945294 64.4980469,14.265625 C64.23828,14.6367206 64.1083984,15.1835901 64.1083984,15.90625 Z M72.5341797,19.1171875 C71.6318314,19.1171875 70.9003934,18.8330107 70.3398438,18.2646484 C69.7792941,17.6962862 69.4990234,16.9394579 69.4990234,15.9941406 L69.4990234,15.8183594 C69.4990234,15.1855437 69.6210925,14.6201197 69.8652344,14.1220703 C70.1093762,13.6240209 70.4521462,13.2363295 70.8935547,12.9589844 C71.3349631,12.6816392 71.8271457,12.5429688 72.3701172,12.5429688 C73.2334028,12.5429688 73.9003883,12.8183566 74.3710938,13.3691406 C74.8417992,13.9199246 75.0771484,14.6992137 75.0771484,15.7070312 L75.0771484,16.28125 L70.9345703,16.28125 C70.9775393,16.8046901 71.1523422,17.2187485 71.4589844,17.5234375 C71.7656265,17.8281265 72.1513649,17.9804688 72.6162109,17.9804688 C73.2685579,17.9804688 73.7998026,17.7167995 74.2099609,17.1894531 L74.9775391,17.921875 C74.7236315,18.3007831 74.3847677,18.5947255 73.9609375,18.8037109 C73.5371073,19.0126964 73.0615261,19.1171875 72.5341797,19.1171875 Z M72.3642578,13.6855469 C71.9736309,13.6855469 71.6582043,13.8222643 71.4179688,14.0957031 C71.1777332,14.369142 71.0244144,14.7499976 70.9580078,15.2382812 L73.6708984,15.2382812 L73.6708984,15.1328125 C73.6396483,14.6562476 73.5126964,14.2958997 73.2900391,14.0517578 C73.0673817,13.807616 72.758791,13.6855469 72.3642578,13.6855469 Z" id="Button" fill="#FFFFFF"></path>
                    </g>
                    <g id="button-1">
                        <rect id="Button-Background" fill="#C1D8EF" x="0" y="0" width="110" height="30" rx="2"></rect>
                        <path d="M48.7773438,16.2226562 C48.6914058,17.1328171 48.3554717,17.8427709 47.7695312,18.3525391 C47.1835908,18.8623072 46.4043017,19.1171875 45.4316406,19.1171875 C44.7519497,19.1171875 44.1533229,18.9560563 43.6357422,18.6337891 C43.1181615,18.3115218 42.7187514,17.8535186 42.4375,17.2597656 C42.1562486,16.6660127 42.0097657,15.9765664 41.9980469,15.1914062 L41.9980469,14.3945312 C41.9980469,13.5898397 42.1406236,12.8808624 42.4257812,12.2675781 C42.7109389,11.6542938 43.1201145,11.1816423 43.6533203,10.8496094 C44.1865261,10.5175765 44.8027309,10.3515625 45.5019531,10.3515625 C46.4433641,10.3515625 47.201169,10.6074193 47.7753906,11.1191406 C48.3496122,11.6308619 48.6835933,12.353511 48.7773438,13.2871094 L47.3007812,13.2871094 C47.2304684,12.6738251 47.0517592,12.2314467 46.7646484,11.9599609 C46.4775376,11.6884752 46.0566434,11.5527344 45.5019531,11.5527344 C44.8574187,11.5527344 44.3623064,11.7880836 44.0166016,12.2587891 C43.6708967,12.7294945 43.4941407,13.4199173 43.4863281,14.3300781 L43.4863281,15.0859375 C43.4863281,16.0078171 43.6513655,16.7109351 43.9814453,17.1953125 C44.3115251,17.6796899 44.7949187,17.921875 45.4316406,17.921875 C46.0136748,17.921875 46.4511704,17.7910169 46.7441406,17.5292969 C47.0371108,17.2675768 47.2226559,16.8320343 47.3007812,16.2226562 L48.7773438,16.2226562 Z M49.6972656,15.7714844 C49.6972656,15.1503875 49.8203113,14.5908228 50.0664062,14.0927734 C50.3125012,13.5947241 50.6582009,13.2119154 51.1035156,12.9443359 C51.5488304,12.6767565 52.060544,12.5429688 52.6386719,12.5429688 C53.4941449,12.5429688 54.1884739,12.8183566 54.7216797,13.3691406 C55.2548855,13.9199246 55.5429685,14.6503861 55.5859375,15.5605469 L55.5917969,15.8945312 C55.5917969,16.5195344 55.4716809,17.0781225 55.2314453,17.5703125 C54.9912097,18.0625025 54.6474632,18.443358 54.2001953,18.7128906 C53.7529275,18.9824232 53.2363311,19.1171875 52.6503906,19.1171875 C51.7558549,19.1171875 51.0400417,18.8193389 50.5029297,18.2236328 C49.9658176,17.6279267 49.6972656,16.8339893 49.6972656,15.8417969 L49.6972656,15.7714844 Z M51.1210938,15.8945312 C51.1210938,16.5468783 51.255858,17.0576153 51.5253906,17.4267578 C51.7949232,17.7959003 52.1699195,17.9804688 52.6503906,17.9804688 C53.1308618,17.9804688 53.5048815,17.7929706 53.7724609,17.4179688 C54.0400404,17.0429669 54.1738281,16.4941442 54.1738281,15.7714844 C54.1738281,15.1308562 54.0361342,14.6230487 53.7607422,14.2480469 C53.4853502,13.873045 53.1113305,13.6855469 52.6386719,13.6855469 C52.1738258,13.6855469 51.8046889,13.8701153 51.53125,14.2392578 C51.2578111,14.6084003 51.1210938,15.1601526 51.1210938,15.8945312 Z M62.3476562,15.8945312 C62.3476562,16.8750049 62.1250022,17.6572236 61.6796875,18.2412109 C61.2343728,18.8251982 60.6367225,19.1171875 59.8867188,19.1171875 C59.1914028,19.1171875 58.6347677,18.8886742 58.2167969,18.4316406 L58.2167969,21.4375 L56.7929688,21.4375 L56.7929688,12.6601562 L58.1054688,12.6601562 L58.1640625,13.3046875 C58.5820333,12.7968725 59.150387,12.5429688 59.8691406,12.5429688 C60.642582,12.5429688 61.2490212,12.8310518 61.6884766,13.4072266 C62.1279319,13.9834013 62.3476562,14.783198 62.3476562,15.8066406 L62.3476562,15.8945312 Z M60.9296875,15.7714844 C60.9296875,15.1386687 60.8037122,14.6367206 60.5517578,14.265625 C60.2998034,13.8945294 59.9394555,13.7089844 59.4707031,13.7089844 C58.888669,13.7089844 58.4707044,13.9492163 58.2167969,14.4296875 L58.2167969,17.2421875 C58.4746107,17.7343775 58.8964814,17.9804688 59.4824219,17.9804688 C59.9355491,17.9804688 60.2900378,17.7978534 60.5458984,17.4326172 C60.8017591,17.067381 60.9296875,16.5136756 60.9296875,15.7714844 Z M65.7050781,16.9609375 L66.9941406,12.6601562 L68.5117188,12.6601562 L65.9921875,19.9609375 C65.6054668,21.0273491 64.9492234,21.5605469 64.0234375,21.5605469 C63.8164052,21.5605469 63.5878919,21.525391 63.3378906,21.4550781 L63.3378906,20.3535156 L63.6074219,20.3710938 C63.9667987,20.3710938 64.2373038,20.3056647 64.4189453,20.1748047 C64.6005868,20.0439447 64.7441401,19.8242203 64.8496094,19.515625 L65.0546875,18.9707031 L62.828125,12.6601562 L64.3632812,12.6601562 L65.7050781,16.9609375 Z" id="Copy" fill="#FFFFFF"></path>
                    </g>
                </g>
                <path d="M145.404297,57.6894531 L139.896484,57.6894531 L138.744141,61 L136.175781,61 L141.546875,46.78125 L143.763672,46.78125 L149.144531,61 L146.566406,61 L145.404297,57.6894531 Z M140.589844,55.6972656 L144.710938,55.6972656 L142.650391,49.7988281 L140.589844,55.6972656 Z M153.226562,55.7167969 L153.226562,61 L150.755859,61 L150.755859,46.78125 L156.195312,46.78125 C157.783862,46.78125 159.045243,47.1946573 159.979492,48.0214844 C160.913742,48.8483114 161.380859,49.9420505 161.380859,51.3027344 C161.380859,52.6959705 160.923507,53.779944 160.008789,54.5546875 C159.094071,55.329431 157.813159,55.7167969 156.166016,55.7167969 L153.226562,55.7167969 Z M153.226562,53.734375 L156.195312,53.734375 C157.074223,53.734375 157.744789,53.5276713 158.207031,53.1142578 C158.669273,52.7008443 158.900391,52.1035195 158.900391,51.3222656 C158.900391,50.5540326 158.666018,49.940432 158.197266,49.4814453 C157.728513,49.0224586 157.083988,48.7864584 156.263672,48.7734375 L153.226562,48.7734375 L153.226562,53.734375 Z M166.146484,61 L163.685547,61 L163.685547,46.78125 L166.146484,46.78125 L166.146484,61 Z" id="API" fill="#2C2F3B"></path>
                <path d="M142.884766,84.3945312 L140.142578,84.3945312 L140.142578,92 L139.023438,92 L139.023438,84.3945312 L136.287109,84.3945312 L136.287109,83.46875 L142.884766,83.46875 L142.884766,84.3945312 Z M143.113281,88.7714844 C143.113281,88.1503875 143.23535,87.5917994 143.479492,87.0957031 C143.723634,86.5996069 144.063474,86.2167982 144.499023,85.9472656 C144.934572,85.677733 145.431638,85.5429688 145.990234,85.5429688 C146.85352,85.5429688 147.551755,85.8417939 148.084961,86.4394531 C148.618167,87.0371124 148.884766,87.8320263 148.884766,88.8242188 L148.884766,88.9003906 C148.884766,89.5175812 148.766603,90.0712866 148.530273,90.5615234 C148.293944,91.0517603 147.956057,91.4335924 147.516602,91.7070312 C147.077146,91.9804701 146.572268,92.1171875 146.001953,92.1171875 C145.142574,92.1171875 144.446292,91.8183624 143.913086,91.2207031 C143.37988,90.6230439 143.113281,89.8320362 143.113281,88.8476562 L143.113281,88.7714844 Z M144.203125,88.9003906 C144.203125,89.6035191 144.366209,90.1679666 144.692383,90.59375 C145.018556,91.0195334 145.455075,91.2324219 146.001953,91.2324219 C146.552737,91.2324219 146.990233,91.0166037 147.314453,90.5849609 C147.638673,90.1533182 147.800781,89.548832 147.800781,88.7714844 C147.800781,88.0761684 147.635744,87.5126975 147.305664,87.0810547 C146.975584,86.6494119 146.537112,86.4335938 145.990234,86.4335938 C145.455075,86.4335938 145.023439,86.6464822 144.695312,87.0722656 C144.367186,87.498049 144.203125,88.1074179 144.203125,88.9003906 Z M152.013672,89.0644531 L151.333984,89.7734375 L151.333984,92 L150.25,92 L150.25,83 L151.333984,83 L151.333984,88.4433594 L151.914062,87.7460938 L153.888672,85.6601562 L155.207031,85.6601562 L152.740234,88.3085938 L155.494141,92 L154.222656,92 L152.013672,89.0644531 Z M158.839844,92.1171875 C157.980464,92.1171875 157.281253,91.8349638 156.742188,91.2705078 C156.203122,90.7060519 155.933594,89.9511766 155.933594,89.0058594 L155.933594,88.8066406 C155.933594,88.1777312 156.05371,87.6162134 156.293945,87.1220703 C156.534181,86.6279272 156.870115,86.2412123 157.301758,85.9619141 C157.733401,85.6826158 158.201169,85.5429688 158.705078,85.5429688 C159.529301,85.5429688 160.16992,85.8144504 160.626953,86.3574219 C161.083987,86.9003933 161.3125,87.6777293 161.3125,88.6894531 L161.3125,89.140625 L157.017578,89.140625 C157.033203,89.7656281 157.215819,90.2705059 157.56543,90.6552734 C157.915041,91.040041 158.359372,91.2324219 158.898438,91.2324219 C159.281252,91.2324219 159.605467,91.1542977 159.871094,90.9980469 C160.13672,90.8417961 160.36914,90.6347669 160.568359,90.3769531 L161.230469,90.8925781 C160.699216,91.7089885 159.902349,92.1171875 158.839844,92.1171875 Z M158.705078,86.4335938 C158.267576,86.4335938 157.900392,86.5927718 157.603516,86.9111328 C157.306639,87.2294938 157.123047,87.6757784 157.052734,88.25 L160.228516,88.25 L160.228516,88.1679688 C160.197265,87.6171847 160.048829,87.1904312 159.783203,86.8876953 C159.517577,86.5849594 159.158205,86.4335938 158.705078,86.4335938 Z M163.591797,85.6601562 L163.626953,86.4570312 C164.111331,85.8476532 164.744137,85.5429688 165.525391,85.5429688 C166.865241,85.5429688 167.541016,86.2988206 167.552734,87.8105469 L167.552734,92 L166.46875,92 L166.46875,87.8046875 C166.464844,87.347654 166.360353,87.0097667 166.155273,86.7910156 C165.950194,86.5722645 165.630862,86.4628906 165.197266,86.4628906 C164.845701,86.4628906 164.537111,86.5566397 164.271484,86.7441406 C164.005858,86.9316416 163.798829,87.1777329 163.650391,87.4824219 L163.650391,92 L162.566406,92 L162.566406,85.6601562 L163.591797,85.6601562 Z M172.691406,92 L172.691406,86.4980469 L171.689453,86.4980469 L171.689453,85.6601562 L172.691406,85.6601562 L172.691406,85.0097656 C172.691406,84.3300747 172.873045,83.8046894 173.236328,83.4335938 C173.599611,83.0624981 174.113278,82.8769531 174.777344,82.8769531 C175.027345,82.8769531 175.275389,82.9101559 175.521484,82.9765625 L175.462891,83.8554688 C175.279296,83.8203123 175.083985,83.8027344 174.876953,83.8027344 C174.525389,83.8027344 174.253907,83.9052724 174.0625,84.1103516 C173.871093,84.3154307 173.775391,84.6093731 173.775391,84.9921875 L173.775391,85.6601562 L175.128906,85.6601562 L175.128906,86.4980469 L173.775391,86.4980469 L173.775391,92 L172.691406,92 Z M176.037109,88.7714844 C176.037109,88.1503875 176.159178,87.5917994 176.40332,87.0957031 C176.647462,86.5996069 176.987303,86.2167982 177.422852,85.9472656 C177.858401,85.677733 178.355466,85.5429688 178.914062,85.5429688 C179.777348,85.5429688 180.475583,85.8417939 181.008789,86.4394531 C181.541995,87.0371124 181.808594,87.8320263 181.808594,88.8242188 L181.808594,88.9003906 C181.808594,89.5175812 181.690431,90.0712866 181.454102,90.5615234 C181.217772,91.0517603 180.879885,91.4335924 180.44043,91.7070312 C180.000974,91.9804701 179.496097,92.1171875 178.925781,92.1171875 C178.066402,92.1171875 177.37012,91.8183624 176.836914,91.2207031 C176.303708,90.6230439 176.037109,89.8320362 176.037109,88.8476562 L176.037109,88.7714844 Z M177.126953,88.9003906 C177.126953,89.6035191 177.290037,90.1679666 177.616211,90.59375 C177.942384,91.0195334 178.378904,91.2324219 178.925781,91.2324219 C179.476565,91.2324219 179.914061,91.0166037 180.238281,90.5849609 C180.562502,90.1533182 180.724609,89.548832 180.724609,88.7714844 C180.724609,88.0761684 180.559572,87.5126975 180.229492,87.0810547 C179.899412,86.6494119 179.46094,86.4335938 178.914062,86.4335938 C178.378904,86.4335938 177.947267,86.6464822 177.619141,87.0722656 C177.291014,87.498049 177.126953,88.1074179 177.126953,88.9003906 Z M186.232422,86.6328125 C186.068359,86.6054686 185.890626,86.5917969 185.699219,86.5917969 C184.988278,86.5917969 184.505861,86.8945282 184.251953,87.5 L184.251953,92 L183.167969,92 L183.167969,85.6601562 L184.222656,85.6601562 L184.240234,86.3925781 C184.595705,85.826169 185.099606,85.5429688 185.751953,85.5429688 C185.962892,85.5429688 186.123046,85.5703122 186.232422,85.625 L186.232422,86.6328125 Z M195.080078,89.7734375 L191.505859,89.7734375 L190.703125,92 L189.542969,92 L192.800781,83.46875 L193.785156,83.46875 L197.048828,92 L195.894531,92 L195.080078,89.7734375 Z M191.845703,88.8476562 L194.746094,88.8476562 L193.292969,84.8574219 L191.845703,88.8476562 Z M199.322266,88.6601562 L199.322266,92 L198.197266,92 L198.197266,83.46875 L201.34375,83.46875 C202.277348,83.46875 203.008786,83.7070289 203.538086,84.1835938 C204.067385,84.6601586 204.332031,85.2910117 204.332031,86.0761719 C204.332031,86.904301 204.073245,87.54199 203.555664,87.9892578 C203.038083,88.4365257 202.29688,88.6601562 201.332031,88.6601562 L199.322266,88.6601562 Z M199.322266,87.7402344 L201.34375,87.7402344 C201.945316,87.7402344 202.406248,87.5986342 202.726562,87.3154297 C203.046877,87.0322251 203.207031,86.6230496 203.207031,86.0878906 C203.207031,85.5800756 203.046877,85.1738296 202.726562,84.8691406 C202.406248,84.5644516 201.9668,84.4062501 201.408203,84.3945312 L199.322266,84.3945312 L199.322266,87.7402344 Z M206.974609,92 L205.849609,92 L205.849609,83.46875 L206.974609,83.46875 L206.974609,92 Z M215.746094,92 C215.683593,91.8749994 215.632813,91.6523454 215.59375,91.3320312 C215.089841,91.8554714 214.488285,92.1171875 213.789062,92.1171875 C213.164059,92.1171875 212.651369,91.9404315 212.250977,91.5869141 C211.850584,91.2333967 211.650391,90.785159 211.650391,90.2421875 C211.650391,89.5820279 211.901365,89.0693378 212.40332,88.7041016 C212.905276,88.3388654 213.611324,88.15625 214.521484,88.15625 L215.576172,88.15625 L215.576172,87.6582031 C215.576172,87.279295 215.462892,86.9775402 215.236328,86.7529297 C215.009764,86.5283192 214.675783,86.4160156 214.234375,86.4160156 C213.847654,86.4160156 213.523439,86.5136709 213.261719,86.7089844 C212.999999,86.9042979 212.869141,87.1406236 212.869141,87.4179688 L211.779297,87.4179688 C211.779297,87.1015609 211.8916,86.7958999 212.116211,86.5009766 C212.340821,86.2060532 212.645506,85.9726571 213.030273,85.8007812 C213.415041,85.6289054 213.837888,85.5429688 214.298828,85.5429688 C215.029301,85.5429688 215.60156,85.7255841 216.015625,86.0908203 C216.42969,86.4560565 216.644531,86.9589812 216.660156,87.5996094 L216.660156,90.5175781 C216.660156,91.0996123 216.734374,91.5624983 216.882812,91.90625 L216.882812,92 L215.746094,92 Z M213.947266,91.1738281 C214.287111,91.1738281 214.609373,91.0859384 214.914062,90.9101562 C215.218752,90.7343741 215.439452,90.5058608 215.576172,90.2246094 L215.576172,88.9238281 L214.726562,88.9238281 C213.398431,88.9238281 212.734375,89.3124961 212.734375,90.0898438 C212.734375,90.4296892 212.847655,90.6953115 213.074219,90.8867188 C213.300782,91.078126 213.591795,91.1738281 213.947266,91.1738281 Z M220.902344,91.2324219 C221.289064,91.2324219 221.626952,91.1152355 221.916016,90.8808594 C222.20508,90.6464832 222.365234,90.3535174 222.396484,90.0019531 L223.421875,90.0019531 C223.402344,90.3652362 223.277345,90.7109359 223.046875,91.0390625 C222.816405,91.3671891 222.508791,91.6289053 222.124023,91.8242188 C221.739256,92.0195322 221.332033,92.1171875 220.902344,92.1171875 C220.039058,92.1171875 219.352542,91.8291044 218.842773,91.2529297 C218.333005,90.6767549 218.078125,89.8886769 218.078125,88.8886719 L218.078125,88.7070312 C218.078125,88.0898407 218.191405,87.541018 218.417969,87.0605469 C218.644532,86.5800757 218.969724,86.2070326 219.393555,85.9414062 C219.817385,85.6757799 220.318356,85.5429688 220.896484,85.5429688 C221.607425,85.5429688 222.19824,85.7558572 222.668945,86.1816406 C223.139651,86.607424 223.390625,87.1601529 223.421875,87.8398438 L222.396484,87.8398438 C222.365234,87.4296854 222.209962,87.0927748 221.930664,86.8291016 C221.651366,86.5654284 221.306643,86.4335938 220.896484,86.4335938 C220.3457,86.4335938 219.918947,86.631834 219.616211,87.0283203 C219.313475,87.4248067 219.162109,87.9980431 219.162109,88.7480469 L219.162109,88.953125 C219.162109,89.6835974 219.312498,90.2460918 219.613281,90.640625 C219.914064,91.0351582 220.343747,91.2324219 220.902344,91.2324219 Z M227.183594,91.2324219 C227.570314,91.2324219 227.908202,91.1152355 228.197266,90.8808594 C228.48633,90.6464832 228.646484,90.3535174 228.677734,90.0019531 L229.703125,90.0019531 C229.683594,90.3652362 229.558595,90.7109359 229.328125,91.0390625 C229.097655,91.3671891 228.790041,91.6289053 228.405273,91.8242188 C228.020506,92.0195322 227.613283,92.1171875 227.183594,92.1171875 C226.320308,92.1171875 225.633792,91.8291044 225.124023,91.2529297 C224.614255,90.6767549 224.359375,89.8886769 224.359375,88.8886719 L224.359375,88.7070312 C224.359375,88.0898407 224.472655,87.541018 224.699219,87.0605469 C224.925782,86.5800757 225.250974,86.2070326 225.674805,85.9414062 C226.098635,85.6757799 226.599606,85.5429688 227.177734,85.5429688 C227.888675,85.5429688 228.47949,85.7558572 228.950195,86.1816406 C229.420901,86.607424 229.671875,87.1601529 229.703125,87.8398438 L228.677734,87.8398438 C228.646484,87.4296854 228.491212,87.0927748 228.211914,86.8291016 C227.932616,86.5654284 227.587893,86.4335938 227.177734,86.4335938 C226.62695,86.4335938 226.200197,86.631834 225.897461,87.0283203 C225.594725,87.4248067 225.443359,87.9980431 225.443359,88.7480469 L225.443359,88.953125 C225.443359,89.6835974 225.593748,90.2460918 225.894531,90.640625 C226.195314,91.0351582 226.624997,91.2324219 227.183594,91.2324219 Z M233.552734,92.1171875 C232.693355,92.1171875 231.994143,91.8349638 231.455078,91.2705078 C230.916013,90.7060519 230.646484,89.9511766 230.646484,89.0058594 L230.646484,88.8066406 C230.646484,88.1777312 230.7666,87.6162134 231.006836,87.1220703 C231.247072,86.6279272 231.583006,86.2412123 232.014648,85.9619141 C232.446291,85.6826158 232.91406,85.5429688 233.417969,85.5429688 C234.242192,85.5429688 234.88281,85.8144504 235.339844,86.3574219 C235.796877,86.9003933 236.025391,87.6777293 236.025391,88.6894531 L236.025391,89.140625 L231.730469,89.140625 C231.746094,89.7656281 231.928709,90.2705059 232.27832,90.6552734 C232.627931,91.040041 233.072263,91.2324219 233.611328,91.2324219 C233.994143,91.2324219 234.318358,91.1542977 234.583984,90.9980469 C234.849611,90.8417961 235.08203,90.6347669 235.28125,90.3769531 L235.943359,90.8925781 C235.412107,91.7089885 234.61524,92.1171875 233.552734,92.1171875 Z M233.417969,86.4335938 C232.980467,86.4335938 232.613283,86.5927718 232.316406,86.9111328 C232.01953,87.2294938 231.835938,87.6757784 231.765625,88.25 L234.941406,88.25 L234.941406,88.1679688 C234.910156,87.6171847 234.76172,87.1904312 234.496094,86.8876953 C234.230467,86.5849594 233.871096,86.4335938 233.417969,86.4335938 Z M240.970703,90.3183594 C240.970703,90.0253892 240.860353,89.7978524 240.639648,89.6357422 C240.418944,89.473632 240.034182,89.333985 239.485352,89.2167969 C238.936521,89.0996088 238.500978,88.9589852 238.178711,88.7949219 C237.856444,88.6308586 237.618165,88.435548 237.463867,88.2089844 C237.30957,87.9824207 237.232422,87.7128922 237.232422,87.4003906 C237.232422,86.8808568 237.452146,86.441408 237.891602,86.0820312 C238.331057,85.7226545 238.892575,85.5429688 239.576172,85.5429688 C240.294925,85.5429688 240.877927,85.7285138 241.325195,86.0996094 C241.772463,86.470705 241.996094,86.9453096 241.996094,87.5234375 L240.90625,87.5234375 C240.90625,87.226561 240.780275,86.9707042 240.52832,86.7558594 C240.276366,86.5410146 239.958986,86.4335938 239.576172,86.4335938 C239.181639,86.4335938 238.873048,86.5195304 238.650391,86.6914062 C238.427733,86.8632821 238.316406,87.0878892 238.316406,87.3652344 C238.316406,87.6269544 238.419921,87.8242181 238.626953,87.9570312 C238.833985,88.0898444 239.208005,88.2167963 239.749023,88.3378906 C240.290042,88.458985 240.728514,88.6035148 241.064453,88.7714844 C241.400392,88.939454 241.649413,89.1416004 241.811523,89.3779297 C241.973634,89.614259 242.054688,89.9023421 242.054688,90.2421875 C242.054688,90.8085966 241.828127,91.2626936 241.375,91.6044922 C240.921873,91.9462908 240.333988,92.1171875 239.611328,92.1171875 C239.103513,92.1171875 238.654299,92.0273446 238.263672,91.8476562 C237.873045,91.6679679 237.567384,91.4169938 237.34668,91.0947266 C237.125975,90.7724593 237.015625,90.42383 237.015625,90.0488281 L238.099609,90.0488281 C238.119141,90.4121112 238.264647,90.7001942 238.536133,90.9130859 C238.807619,91.1259776 239.166013,91.2324219 239.611328,91.2324219 C240.021486,91.2324219 240.350585,91.1494149 240.598633,90.9833984 C240.846681,90.817382 240.970703,90.5957045 240.970703,90.3183594 Z M247.158203,90.3183594 C247.158203,90.0253892 247.047853,89.7978524 246.827148,89.6357422 C246.606444,89.473632 246.221682,89.333985 245.672852,89.2167969 C245.124021,89.0996088 244.688478,88.9589852 244.366211,88.7949219 C244.043944,88.6308586 243.805665,88.435548 243.651367,88.2089844 C243.49707,87.9824207 243.419922,87.7128922 243.419922,87.4003906 C243.419922,86.8808568 243.639646,86.441408 244.079102,86.0820312 C244.518557,85.7226545 245.080075,85.5429688 245.763672,85.5429688 C246.482425,85.5429688 247.065427,85.7285138 247.512695,86.0996094 C247.959963,86.470705 248.183594,86.9453096 248.183594,87.5234375 L247.09375,87.5234375 C247.09375,87.226561 246.967775,86.9707042 246.71582,86.7558594 C246.463866,86.5410146 246.146486,86.4335938 245.763672,86.4335938 C245.369139,86.4335938 245.060548,86.5195304 244.837891,86.6914062 C244.615233,86.8632821 244.503906,87.0878892 244.503906,87.3652344 C244.503906,87.6269544 244.607421,87.8242181 244.814453,87.9570312 C245.021485,88.0898444 245.395505,88.2167963 245.936523,88.3378906 C246.477542,88.458985 246.916014,88.6035148 247.251953,88.7714844 C247.587892,88.939454 247.836913,89.1416004 247.999023,89.3779297 C248.161134,89.614259 248.242188,89.9023421 248.242188,90.2421875 C248.242188,90.8085966 248.015627,91.2626936 247.5625,91.6044922 C247.109373,91.9462908 246.521488,92.1171875 245.798828,92.1171875 C245.291013,92.1171875 244.841799,92.0273446 244.451172,91.8476562 C244.060545,91.6679679 243.754884,91.4169938 243.53418,91.0947266 C243.313475,90.7724593 243.203125,90.42383 243.203125,90.0488281 L244.287109,90.0488281 C244.306641,90.4121112 244.452147,90.7001942 244.723633,90.9130859 C244.995119,91.1259776 245.353513,91.2324219 245.798828,91.2324219 C246.208986,91.2324219 246.538085,91.1494149 246.786133,90.9833984 C247.034181,90.817382 247.158203,90.5957045 247.158203,90.3183594 Z M249.619141,91.4316406 C249.619141,91.2441397 249.674804,91.0878912 249.786133,90.9628906 C249.897461,90.83789 250.064452,90.7753906 250.287109,90.7753906 C250.509767,90.7753906 250.67871,90.83789 250.793945,90.9628906 C250.90918,91.0878912 250.966797,91.2441397 250.966797,91.4316406 C250.966797,91.611329 250.90918,91.7617181 250.793945,91.8828125 C250.67871,92.0039069 250.509767,92.0644531 250.287109,92.0644531 C250.064452,92.0644531 249.897461,92.0039069 249.786133,91.8828125 C249.674804,91.7617181 249.619141,91.611329 249.619141,91.4316406 Z M249.625,86.2578125 C249.625,86.0703116 249.680664,85.9140631 249.791992,85.7890625 C249.903321,85.6640619 250.070311,85.6015625 250.292969,85.6015625 C250.515626,85.6015625 250.68457,85.6640619 250.799805,85.7890625 C250.91504,85.9140631 250.972656,86.0703116 250.972656,86.2578125 C250.972656,86.4375009 250.91504,86.58789 250.799805,86.7089844 C250.68457,86.8300787 250.515626,86.890625 250.292969,86.890625 C250.070311,86.890625 249.903321,86.8300787 249.791992,86.7089844 C249.680664,86.58789 249.625,86.4375009 249.625,86.2578125 Z M138.285156,106.207031 L139.099609,106.207031 C139.611331,106.199219 140.01367,106.064454 140.306641,105.802734 C140.599611,105.541014 140.746094,105.187502 140.746094,104.742188 C140.746094,103.742182 140.248052,103.242188 139.251953,103.242188 C138.783201,103.242188 138.409181,103.375975 138.129883,103.643555 C137.850585,103.911134 137.710938,104.265623 137.710938,104.707031 L136.626953,104.707031 C136.626953,104.031247 136.874021,103.469729 137.368164,103.022461 C137.862307,102.575193 138.490231,102.351562 139.251953,102.351562 C140.056645,102.351562 140.687498,102.564451 141.144531,102.990234 C141.601565,103.416018 141.830078,104.007809 141.830078,104.765625 C141.830078,105.136721 141.709962,105.496092 141.469727,105.84375 C141.229491,106.191408 140.902346,106.451171 140.488281,106.623047 C140.957034,106.771485 141.319335,107.017576 141.575195,107.361328 C141.831056,107.70508 141.958984,108.124998 141.958984,108.621094 C141.958984,109.386723 141.708987,109.994138 141.208984,110.443359 C140.708982,110.89258 140.058598,111.117188 139.257812,111.117188 C138.457027,111.117188 137.805667,110.900393 137.303711,110.466797 C136.801755,110.033201 136.550781,109.460941 136.550781,108.75 L137.640625,108.75 C137.640625,109.199221 137.787108,109.558592 138.080078,109.828125 C138.373048,110.097658 138.765623,110.232422 139.257812,110.232422 C139.781253,110.232422 140.181639,110.095704 140.458984,109.822266 C140.73633,109.548827 140.875,109.156253 140.875,108.644531 C140.875,108.148435 140.722658,107.767579 140.417969,107.501953 C140.11328,107.236327 139.673831,107.099609 139.099609,107.091797 L138.285156,107.091797 L138.285156,106.207031 Z M148.023438,108.134766 L149.207031,108.134766 L149.207031,109.019531 L148.023438,109.019531 L148.023438,111 L146.933594,111 L146.933594,109.019531 L143.048828,109.019531 L143.048828,108.380859 L146.869141,102.46875 L148.023438,102.46875 L148.023438,108.134766 Z M144.279297,108.134766 L146.933594,108.134766 L146.933594,103.951172 L146.804688,104.185547 L144.279297,108.134766 Z M155.775391,111 L150.185547,111 L150.185547,110.220703 L153.138672,106.939453 C153.576174,106.443357 153.877929,106.040041 154.043945,105.729492 C154.209962,105.418944 154.292969,105.097658 154.292969,104.765625 C154.292969,104.32031 154.158204,103.95508 153.888672,103.669922 C153.619139,103.384764 153.259768,103.242188 152.810547,103.242188 C152.271482,103.242188 151.852541,103.395506 151.553711,103.702148 C151.254881,104.008791 151.105469,104.435544 151.105469,104.982422 L150.021484,104.982422 C150.021484,104.197262 150.274412,103.562502 150.780273,103.078125 C151.286135,102.593748 151.962886,102.351562 152.810547,102.351562 C153.60352,102.351562 154.230466,102.559568 154.691406,102.975586 C155.152346,103.391604 155.382812,103.945309 155.382812,104.636719 C155.382812,105.476567 154.847662,106.476557 153.777344,107.636719 L151.492188,110.115234 L155.775391,110.115234 L155.775391,111 Z M158.5,106.207031 L159.314453,106.207031 C159.826174,106.199219 160.228514,106.064454 160.521484,105.802734 C160.814455,105.541014 160.960938,105.187502 160.960938,104.742188 C160.960938,103.742182 160.462896,103.242188 159.466797,103.242188 C158.998045,103.242188 158.624025,103.375975 158.344727,103.643555 C158.065428,103.911134 157.925781,104.265623 157.925781,104.707031 L156.841797,104.707031 C156.841797,104.031247 157.088865,103.469729 157.583008,103.022461 C158.077151,102.575193 158.705074,102.351562 159.466797,102.351562 C160.271488,102.351562 160.902341,102.564451 161.359375,102.990234 C161.816409,103.416018 162.044922,104.007809 162.044922,104.765625 C162.044922,105.136721 161.924806,105.496092 161.68457,105.84375 C161.444335,106.191408 161.11719,106.451171 160.703125,106.623047 C161.171877,106.771485 161.534178,107.017576 161.790039,107.361328 C162.0459,107.70508 162.173828,108.124998 162.173828,108.621094 C162.173828,109.386723 161.923831,109.994138 161.423828,110.443359 C160.923826,110.89258 160.273442,111.117188 159.472656,111.117188 C158.671871,111.117188 158.02051,110.900393 157.518555,110.466797 C157.016599,110.033201 156.765625,109.460941 156.765625,108.75 L157.855469,108.75 C157.855469,109.199221 158.001952,109.558592 158.294922,109.828125 C158.587892,110.097658 158.980466,110.232422 159.472656,110.232422 C159.996096,110.232422 160.396483,110.095704 160.673828,109.822266 C160.951173,109.548827 161.089844,109.156253 161.089844,108.644531 C161.089844,108.148435 160.937502,107.767579 160.632812,107.501953 C160.328123,107.236327 159.888675,107.099609 159.314453,107.091797 L158.5,107.091797 L158.5,106.207031 Z M168.238281,108.134766 L169.421875,108.134766 L169.421875,109.019531 L168.238281,109.019531 L168.238281,111 L167.148438,111 L167.148438,109.019531 L163.263672,109.019531 L163.263672,108.380859 L167.083984,102.46875 L168.238281,102.46875 L168.238281,108.134766 Z M164.494141,108.134766 L167.148438,108.134766 L167.148438,103.951172 L167.019531,104.185547 L164.494141,108.134766 Z M170.898438,106.722656 L171.332031,102.46875 L175.703125,102.46875 L175.703125,103.470703 L172.251953,103.470703 L171.994141,105.796875 C172.412111,105.55078 172.886716,105.427734 173.417969,105.427734 C174.195316,105.427734 174.812498,105.684568 175.269531,106.198242 C175.726565,106.711917 175.955078,107.406246 175.955078,108.28125 C175.955078,109.160161 175.717776,109.852537 175.243164,110.358398 C174.768552,110.86426 174.105473,111.117188 173.253906,111.117188 C172.499996,111.117188 171.884768,110.908205 171.408203,110.490234 C170.931638,110.072264 170.660157,109.494144 170.59375,108.755859 L171.619141,108.755859 C171.685547,109.244143 171.859374,109.612303 172.140625,109.860352 C172.421876,110.1084 172.792966,110.232422 173.253906,110.232422 C173.757815,110.232422 174.153319,110.060549 174.44043,109.716797 C174.72754,109.373045 174.871094,108.898441 174.871094,108.292969 C174.871094,107.722653 174.715822,107.26465 174.405273,106.918945 C174.094725,106.57324 173.681643,106.400391 173.166016,106.400391 C172.693357,106.400391 172.322267,106.503905 172.052734,106.710938 L171.765625,106.945312 L170.898438,106.722656 Z M181.714844,108.134766 L182.898438,108.134766 L182.898438,109.019531 L181.714844,109.019531 L181.714844,111 L180.625,111 L180.625,109.019531 L176.740234,109.019531 L176.740234,108.380859 L180.560547,102.46875 L181.714844,102.46875 L181.714844,108.134766 Z M177.970703,108.134766 L180.625,108.134766 L180.625,103.951172 L180.496094,104.185547 L177.970703,108.134766 Z M183.724609,107.777344 C183.724609,106.804683 183.955076,106.022464 184.416016,105.430664 C184.876955,104.838864 185.480465,104.542969 186.226562,104.542969 C186.968754,104.542969 187.556638,104.796872 187.990234,105.304688 L187.990234,102 L189.074219,102 L189.074219,111 L188.078125,111 L188.025391,110.320312 C187.591795,110.851565 186.988285,111.117188 186.214844,111.117188 C185.480465,111.117188 184.881838,110.816409 184.418945,110.214844 C183.956052,109.613278 183.724609,108.82813 183.724609,107.859375 L183.724609,107.777344 Z M184.808594,107.900391 C184.808594,108.619144 184.95703,109.181639 185.253906,109.587891 C185.550783,109.994143 185.960935,110.197266 186.484375,110.197266 C187.171878,110.197266 187.673827,109.888675 187.990234,109.271484 L187.990234,106.359375 C187.666014,105.761716 187.167972,105.462891 186.496094,105.462891 C185.964841,105.462891 185.550783,105.667967 185.253906,106.078125 C184.95703,106.488283 184.808594,107.095699 184.808594,107.900391 Z M191.289062,111 L191.289062,105.498047 L190.287109,105.498047 L190.287109,104.660156 L191.289062,104.660156 L191.289062,104.009766 C191.289062,103.330075 191.470701,102.804689 191.833984,102.433594 C192.197267,102.062498 192.710934,101.876953 193.375,101.876953 C193.625001,101.876953 193.873046,101.910156 194.119141,101.976562 L194.060547,102.855469 C193.876952,102.820312 193.681642,102.802734 193.474609,102.802734 C193.123045,102.802734 192.851563,102.905272 192.660156,103.110352 C192.468749,103.315431 192.373047,103.609373 192.373047,103.992188 L192.373047,104.660156 L193.726562,104.660156 L193.726562,105.498047 L192.373047,105.498047 L192.373047,111 L191.289062,111 Z M198.613281,109.318359 C198.613281,109.025389 198.502931,108.797852 198.282227,108.635742 C198.061522,108.473632 197.676761,108.333985 197.12793,108.216797 C196.579099,108.099609 196.143556,107.958985 195.821289,107.794922 C195.499022,107.630859 195.260743,107.435548 195.106445,107.208984 C194.952148,106.982421 194.875,106.712892 194.875,106.400391 C194.875,105.880857 195.094724,105.441408 195.53418,105.082031 C195.973635,104.722654 196.535153,104.542969 197.21875,104.542969 C197.937504,104.542969 198.520506,104.728514 198.967773,105.099609 C199.415041,105.470705 199.638672,105.94531 199.638672,106.523438 L198.548828,106.523438 C198.548828,106.226561 198.422853,105.970704 198.170898,105.755859 C197.918944,105.541015 197.601564,105.433594 197.21875,105.433594 C196.824217,105.433594 196.515626,105.51953 196.292969,105.691406 C196.070311,105.863282 195.958984,106.087889 195.958984,106.365234 C195.958984,106.626954 196.062499,106.824218 196.269531,106.957031 C196.476564,107.089844 196.850583,107.216796 197.391602,107.337891 C197.93262,107.458985 198.371092,107.603515 198.707031,107.771484 C199.04297,107.939454 199.291991,108.1416 199.454102,108.37793 C199.616212,108.614259 199.697266,108.902342 199.697266,109.242188 C199.697266,109.808597 199.470705,110.262694 199.017578,110.604492 C198.564451,110.946291 197.976566,111.117188 197.253906,111.117188 C196.746091,111.117188 196.296877,111.027345 195.90625,110.847656 C195.515623,110.667968 195.209962,110.416994 194.989258,110.094727 C194.768554,109.772459 194.658203,109.42383 194.658203,109.048828 L195.742188,109.048828 C195.761719,109.412111 195.907225,109.700194 196.178711,109.913086 C196.450197,110.125978 196.808592,110.232422 197.253906,110.232422 C197.664065,110.232422 197.993163,110.149415 198.241211,109.983398 C198.489259,109.817382 198.613281,109.595705 198.613281,109.318359 Z M200.845703,107.777344 C200.845703,106.804683 201.07617,106.022464 201.537109,105.430664 C201.998049,104.838864 202.601559,104.542969 203.347656,104.542969 C204.089847,104.542969 204.677732,104.796872 205.111328,105.304688 L205.111328,102 L206.195312,102 L206.195312,111 L205.199219,111 L205.146484,110.320312 C204.712888,110.851565 204.109379,111.117188 203.335938,111.117188 C202.601559,111.117188 202.002932,110.816409 201.540039,110.214844 C201.077146,109.613278 200.845703,108.82813 200.845703,107.859375 L200.845703,107.777344 Z M201.929688,107.900391 C201.929688,108.619144 202.078124,109.181639 202.375,109.587891 C202.671876,109.994143 203.082029,110.197266 203.605469,110.197266 C204.292972,110.197266 204.79492,109.888675 205.111328,109.271484 L205.111328,106.359375 C204.787108,105.761716 204.289066,105.462891 203.617188,105.462891 C203.085935,105.462891 202.671876,105.667967 202.375,106.078125 C202.078124,106.488283 201.929688,107.095699 201.929688,107.900391 Z M208.410156,111 L208.410156,105.498047 L207.408203,105.498047 L207.408203,104.660156 L208.410156,104.660156 L208.410156,104.009766 C208.410156,103.330075 208.591795,102.804689 208.955078,102.433594 C209.318361,102.062498 209.832028,101.876953 210.496094,101.876953 C210.746095,101.876953 210.994139,101.910156 211.240234,101.976562 L211.181641,102.855469 C210.998046,102.820312 210.802735,102.802734 210.595703,102.802734 C210.244139,102.802734 209.972657,102.905272 209.78125,103.110352 C209.589843,103.315431 209.494141,103.609373 209.494141,103.992188 L209.494141,104.660156 L210.847656,104.660156 L210.847656,105.498047 L209.494141,105.498047 L209.494141,111 L208.410156,111 Z M217.521484,111 L211.931641,111 L211.931641,110.220703 L214.884766,106.939453 C215.322268,106.443357 215.624023,106.040041 215.790039,105.729492 C215.956056,105.418944 216.039062,105.097658 216.039062,104.765625 C216.039062,104.32031 215.904298,103.95508 215.634766,103.669922 C215.365233,103.384764 215.005862,103.242188 214.556641,103.242188 C214.017575,103.242188 213.598634,103.395506 213.299805,103.702148 C213.000975,104.008791 212.851562,104.435544 212.851562,104.982422 L211.767578,104.982422 C211.767578,104.197262 212.020505,103.562502 212.526367,103.078125 C213.032229,102.593748 213.70898,102.351562 214.556641,102.351562 C215.349613,102.351562 215.97656,102.559568 216.4375,102.975586 C216.89844,103.391604 217.128906,103.945309 217.128906,104.636719 C217.128906,105.476567 216.593755,106.476557 215.523438,107.636719 L213.238281,110.115234 L217.521484,110.115234 L217.521484,111 Z M220.246094,106.207031 L221.060547,106.207031 C221.572268,106.199219 221.974608,106.064454 222.267578,105.802734 C222.560548,105.541014 222.707031,105.187502 222.707031,104.742188 C222.707031,103.742182 222.208989,103.242188 221.212891,103.242188 C220.744138,103.242188 220.370119,103.375975 220.09082,103.643555 C219.811522,103.911134 219.671875,104.265623 219.671875,104.707031 L218.587891,104.707031 C218.587891,104.031247 218.834958,103.469729 219.329102,103.022461 C219.823245,102.575193 220.451168,102.351562 221.212891,102.351562 C222.017582,102.351562 222.648435,102.564451 223.105469,102.990234 C223.562502,103.416018 223.791016,104.007809 223.791016,104.765625 C223.791016,105.136721 223.6709,105.496092 223.430664,105.84375 C223.190428,106.191408 222.863283,106.451171 222.449219,106.623047 C222.917971,106.771485 223.280272,107.017576 223.536133,107.361328 C223.791993,107.70508 223.919922,108.124998 223.919922,108.621094 C223.919922,109.386723 223.669924,109.994138 223.169922,110.443359 C222.669919,110.89258 222.019535,111.117188 221.21875,111.117188 C220.417965,111.117188 219.766604,110.900393 219.264648,110.466797 C218.762693,110.033201 218.511719,109.460941 218.511719,108.75 L219.601562,108.75 C219.601562,109.199221 219.748045,109.558592 220.041016,109.828125 C220.333986,110.097658 220.72656,110.232422 221.21875,110.232422 C221.74219,110.232422 222.142577,110.095704 222.419922,109.822266 C222.697267,109.548827 222.835938,109.156253 222.835938,108.644531 C222.835938,108.148435 222.683595,107.767579 222.378906,107.501953 C222.074217,107.236327 221.634768,107.099609 221.060547,107.091797 L220.246094,107.091797 L220.246094,106.207031 Z M229.984375,108.134766 L231.167969,108.134766 L231.167969,109.019531 L229.984375,109.019531 L229.984375,111 L228.894531,111 L228.894531,109.019531 L225.009766,109.019531 L225.009766,108.380859 L228.830078,102.46875 L229.984375,102.46875 L229.984375,108.134766 Z M226.240234,108.134766 L228.894531,108.134766 L228.894531,103.951172 L228.765625,104.185547 L226.240234,108.134766 Z M232,107.777344 C232,106.789058 232.228513,106.002933 232.685547,105.418945 C233.14258,104.834958 233.748043,104.542969 234.501953,104.542969 C235.275394,104.542969 235.878904,104.816404 236.3125,105.363281 L236.365234,104.660156 L237.355469,104.660156 L237.355469,110.847656 C237.355469,111.667973 237.112307,112.314451 236.625977,112.787109 C236.139646,113.259768 235.486332,113.496094 234.666016,113.496094 C234.208982,113.496094 233.761721,113.398438 233.324219,113.203125 C232.886717,113.007812 232.552736,112.740236 232.322266,112.400391 L232.884766,111.75 C233.349612,112.324222 233.917965,112.611328 234.589844,112.611328 C235.11719,112.611328 235.528319,112.462892 235.823242,112.166016 C236.118166,111.869139 236.265625,111.451175 236.265625,110.912109 L236.265625,110.367188 C235.832029,110.86719 235.240238,111.117188 234.490234,111.117188 C233.748043,111.117188 233.147463,110.818362 232.688477,110.220703 C232.22949,109.623044 232,108.808599 232,107.777344 Z M233.089844,107.900391 C233.089844,108.615238 233.236327,109.176756 233.529297,109.584961 C233.822267,109.993166 234.232419,110.197266 234.759766,110.197266 C235.443363,110.197266 235.945311,109.886722 236.265625,109.265625 L236.265625,106.371094 C235.933592,105.765622 235.43555,105.462891 234.771484,105.462891 C234.244138,105.462891 233.832033,105.667967 233.535156,106.078125 C233.23828,106.488283 233.089844,107.095699 233.089844,107.900391 Z M239.523438,111 L239.523438,105.498047 L238.521484,105.498047 L238.521484,104.660156 L239.523438,104.660156 L239.523438,104.009766 C239.523438,103.330075 239.705076,102.804689 240.068359,102.433594 C240.431642,102.062498 240.945309,101.876953 241.609375,101.876953 C241.859376,101.876953 242.107421,101.910156 242.353516,101.976562 L242.294922,102.855469 C242.111327,102.820312 241.916017,102.802734 241.708984,102.802734 C241.35742,102.802734 241.085938,102.905272 240.894531,103.110352 C240.703124,103.315431 240.607422,103.609373 240.607422,103.992188 L240.607422,104.660156 L241.960938,104.660156 L241.960938,105.498047 L240.607422,105.498047 L240.607422,111 L239.523438,111 Z M248.634766,111 L243.044922,111 L243.044922,110.220703 L245.998047,106.939453 C246.435549,106.443357 246.737304,106.040041 246.90332,105.729492 C247.069337,105.418944 247.152344,105.097658 247.152344,104.765625 C247.152344,104.32031 247.017579,103.95508 246.748047,103.669922 C246.478514,103.384764 246.119143,103.242188 245.669922,103.242188 C245.130857,103.242188 244.711916,103.395506 244.413086,103.702148 C244.114256,104.008791 243.964844,104.435544 243.964844,104.982422 L242.880859,104.982422 C242.880859,104.197262 243.133787,103.562502 243.639648,103.078125 C244.14551,102.593748 244.822261,102.351562 245.669922,102.351562 C246.462895,102.351562 247.089841,102.559568 247.550781,102.975586 C248.011721,103.391604 248.242188,103.945309 248.242188,104.636719 C248.242188,105.476567 247.707037,106.476557 246.636719,107.636719 L244.351562,110.115234 L248.634766,110.115234 L248.634766,111 Z M251.359375,106.207031 L252.173828,106.207031 C252.685549,106.199219 253.087889,106.064454 253.380859,105.802734 C253.67383,105.541014 253.820312,105.187502 253.820312,104.742188 C253.820312,103.742182 253.322271,103.242188 252.326172,103.242188 C251.85742,103.242188 251.4834,103.375975 251.204102,103.643555 C250.924803,103.911134 250.785156,104.265623 250.785156,104.707031 L249.701172,104.707031 C249.701172,104.031247 249.94824,103.469729 250.442383,103.022461 C250.936526,102.575193 251.564449,102.351562 252.326172,102.351562 C253.130863,102.351562 253.761716,102.564451 254.21875,102.990234 C254.675784,103.416018 254.904297,104.007809 254.904297,104.765625 C254.904297,105.136721 254.784181,105.496092 254.543945,105.84375 C254.30371,106.191408 253.976565,106.451171 253.5625,106.623047 C254.031252,106.771485 254.393553,107.017576 254.649414,107.361328 C254.905275,107.70508 255.033203,108.124998 255.033203,108.621094 C255.033203,109.386723 254.783206,109.994138 254.283203,110.443359 C253.783201,110.89258 253.132817,111.117188 252.332031,111.117188 C251.531246,111.117188 250.879885,110.900393 250.37793,110.466797 C249.875974,110.033201 249.625,109.460941 249.625,108.75 L250.714844,108.75 C250.714844,109.199221 250.861327,109.558592 251.154297,109.828125 C251.447267,110.097658 251.839841,110.232422 252.332031,110.232422 C252.855471,110.232422 253.255858,110.095704 253.533203,109.822266 C253.810548,109.548827 253.949219,109.156253 253.949219,108.644531 C253.949219,108.148435 253.796877,107.767579 253.492188,107.501953 C253.187498,107.236327 252.74805,107.099609 252.173828,107.091797 L251.359375,107.091797 L251.359375,106.207031 Z M261.097656,108.134766 L262.28125,108.134766 L262.28125,109.019531 L261.097656,109.019531 L261.097656,111 L260.007812,111 L260.007812,109.019531 L256.123047,109.019531 L256.123047,108.380859 L259.943359,102.46875 L261.097656,102.46875 L261.097656,108.134766 Z M257.353516,108.134766 L260.007812,108.134766 L260.007812,103.951172 L259.878906,104.185547 L257.353516,108.134766 Z M264.835938,106.207031 L265.650391,106.207031 C266.162112,106.199219 266.564452,106.064454 266.857422,105.802734 C267.150392,105.541014 267.296875,105.187502 267.296875,104.742188 C267.296875,103.742182 266.798833,103.242188 265.802734,103.242188 C265.333982,103.242188 264.959962,103.375975 264.680664,103.643555 C264.401366,103.911134 264.261719,104.265623 264.261719,104.707031 L263.177734,104.707031 C263.177734,104.031247 263.424802,103.469729 263.918945,103.022461 C264.413088,102.575193 265.041012,102.351562 265.802734,102.351562 C266.607426,102.351562 267.238279,102.564451 267.695312,102.990234 C268.152346,103.416018 268.380859,104.007809 268.380859,104.765625 C268.380859,105.136721 268.260743,105.496092 268.020508,105.84375 C267.780272,106.191408 267.453127,106.451171 267.039062,106.623047 C267.507815,106.771485 267.870116,107.017576 268.125977,107.361328 C268.381837,107.70508 268.509766,108.124998 268.509766,108.621094 C268.509766,109.386723 268.259768,109.994138 267.759766,110.443359 C267.259763,110.89258 266.609379,111.117188 265.808594,111.117188 C265.007808,111.117188 264.356448,110.900393 263.854492,110.466797 C263.352537,110.033201 263.101562,109.460941 263.101562,108.75 L264.191406,108.75 C264.191406,109.199221 264.337889,109.558592 264.630859,109.828125 C264.92383,110.097658 265.316404,110.232422 265.808594,110.232422 C266.332034,110.232422 266.73242,110.095704 267.009766,109.822266 C267.287111,109.548827 267.425781,109.156253 267.425781,108.644531 C267.425781,108.148435 267.273439,107.767579 266.96875,107.501953 C266.664061,107.236327 266.224612,107.099609 265.650391,107.091797 L264.835938,107.091797 L264.835938,106.207031 Z M275.587891,111 L269.998047,111 L269.998047,110.220703 L272.951172,106.939453 C273.388674,106.443357 273.690429,106.040041 273.856445,105.729492 C274.022462,105.418944 274.105469,105.097658 274.105469,104.765625 C274.105469,104.32031 273.970704,103.95508 273.701172,103.669922 C273.431639,103.384764 273.072268,103.242188 272.623047,103.242188 C272.083982,103.242188 271.665041,103.395506 271.366211,103.702148 C271.067381,104.008791 270.917969,104.435544 270.917969,104.982422 L269.833984,104.982422 C269.833984,104.197262 270.086912,103.562502 270.592773,103.078125 C271.098635,102.593748 271.775386,102.351562 272.623047,102.351562 C273.41602,102.351562 274.042966,102.559568 274.503906,102.975586 C274.964846,103.391604 275.195312,103.945309 275.195312,104.636719 C275.195312,105.476567 274.660162,106.476557 273.589844,107.636719 L271.304688,110.115234 L275.587891,110.115234 L275.587891,111 Z M276.583984,107.777344 C276.583984,106.804683 276.814451,106.022464 277.275391,105.430664 C277.73633,104.838864 278.33984,104.542969 279.085938,104.542969 C279.828129,104.542969 280.416013,104.796872 280.849609,105.304688 L280.849609,102 L281.933594,102 L281.933594,111 L280.9375,111 L280.884766,110.320312 C280.45117,110.851565 279.84766,111.117188 279.074219,111.117188 C278.33984,111.117188 277.741213,110.816409 277.27832,110.214844 C276.815427,109.613278 276.583984,108.82813 276.583984,107.859375 L276.583984,107.777344 Z M277.667969,107.900391 C277.667969,108.619144 277.816405,109.181639 278.113281,109.587891 C278.410158,109.994143 278.82031,110.197266 279.34375,110.197266 C280.031253,110.197266 280.533202,109.888675 280.849609,109.271484 L280.849609,106.359375 C280.525389,105.761716 280.027347,105.462891 279.355469,105.462891 C278.824216,105.462891 278.410158,105.667967 278.113281,106.078125 C277.816405,106.488283 277.667969,107.095699 277.667969,107.900391 Z M283.357422,107.777344 C283.357422,106.789058 283.585935,106.002933 284.042969,105.418945 C284.500002,104.834958 285.105465,104.542969 285.859375,104.542969 C286.632816,104.542969 287.236326,104.816404 287.669922,105.363281 L287.722656,104.660156 L288.712891,104.660156 L288.712891,110.847656 C288.712891,111.667973 288.469729,112.314451 287.983398,112.787109 C287.497068,113.259768 286.843754,113.496094 286.023438,113.496094 C285.566404,113.496094 285.119143,113.398438 284.681641,113.203125 C284.244138,113.007812 283.910157,112.740236 283.679688,112.400391 L284.242188,111.75 C284.707034,112.324222 285.275387,112.611328 285.947266,112.611328 C286.474612,112.611328 286.885741,112.462892 287.180664,112.166016 C287.475587,111.869139 287.623047,111.451175 287.623047,110.912109 L287.623047,110.367188 C287.189451,110.86719 286.59766,111.117188 285.847656,111.117188 C285.105465,111.117188 284.504885,110.818362 284.045898,110.220703 C283.586912,109.623044 283.357422,108.808599 283.357422,107.777344 Z M284.447266,107.900391 C284.447266,108.615238 284.593749,109.176756 284.886719,109.584961 C285.179689,109.993166 285.589841,110.197266 286.117188,110.197266 C286.800785,110.197266 287.302733,109.886722 287.623047,109.265625 L287.623047,106.371094 C287.291014,105.765622 286.792972,105.462891 286.128906,105.462891 C285.60156,105.462891 285.189455,105.667967 284.892578,106.078125 C284.595702,106.488283 284.447266,107.095699 284.447266,107.900391 Z M290.089844,107.777344 C290.089844,106.789058 290.318357,106.002933 290.775391,105.418945 C291.232424,104.834958 291.837887,104.542969 292.591797,104.542969 C293.365238,104.542969 293.968748,104.816404 294.402344,105.363281 L294.455078,104.660156 L295.445312,104.660156 L295.445312,110.847656 C295.445312,111.667973 295.202151,112.314451 294.71582,112.787109 C294.22949,113.259768 293.576176,113.496094 292.755859,113.496094 C292.298826,113.496094 291.851565,113.398438 291.414062,113.203125 C290.97656,113.007812 290.642579,112.740236 290.412109,112.400391 L290.974609,111.75 C291.439455,112.324222 292.007809,112.611328 292.679688,112.611328 C293.207034,112.611328 293.618163,112.462892 293.913086,112.166016 C294.208009,111.869139 294.355469,111.451175 294.355469,110.912109 L294.355469,110.367188 C293.921873,110.86719 293.330082,111.117188 292.580078,111.117188 C291.837887,111.117188 291.237307,110.818362 290.77832,110.220703 C290.319334,109.623044 290.089844,108.808599 290.089844,107.777344 Z M291.179688,107.900391 C291.179688,108.615238 291.32617,109.176756 291.619141,109.584961 C291.912111,109.993166 292.322263,110.197266 292.849609,110.197266 C293.533207,110.197266 294.035155,109.886722 294.355469,109.265625 L294.355469,106.371094 C294.023436,105.765622 293.525394,105.462891 292.861328,105.462891 C292.333982,105.462891 291.921876,105.667967 291.625,106.078125 C291.328124,106.488283 291.179688,107.095699 291.179688,107.900391 Z M297.613281,111 L297.613281,105.498047 L296.611328,105.498047 L296.611328,104.660156 L297.613281,104.660156 L297.613281,104.009766 C297.613281,103.330075 297.79492,102.804689 298.158203,102.433594 C298.521486,102.062498 299.035153,101.876953 299.699219,101.876953 C299.94922,101.876953 300.197264,101.910156 300.443359,101.976562 L300.384766,102.855469 C300.201171,102.820312 300.00586,102.802734 299.798828,102.802734 C299.447264,102.802734 299.175782,102.905272 298.984375,103.110352 C298.792968,103.315431 298.697266,103.609373 298.697266,103.992188 L298.697266,104.660156 L300.050781,104.660156 L300.050781,105.498047 L298.697266,105.498047 L298.697266,111 L297.613281,111 Z M300.841797,107.777344 C300.841797,106.804683 301.072263,106.022464 301.533203,105.430664 C301.994143,104.838864 302.597653,104.542969 303.34375,104.542969 C304.085941,104.542969 304.673826,104.796872 305.107422,105.304688 L305.107422,102 L306.191406,102 L306.191406,111 L305.195312,111 L305.142578,110.320312 C304.708982,110.851565 304.105473,111.117188 303.332031,111.117188 C302.597653,111.117188 301.999026,110.816409 301.536133,110.214844 C301.07324,109.613278 300.841797,108.82813 300.841797,107.859375 L300.841797,107.777344 Z M301.925781,107.900391 C301.925781,108.619144 302.074217,109.181639 302.371094,109.587891 C302.66797,109.994143 303.078122,110.197266 303.601562,110.197266 C304.289066,110.197266 304.791014,109.888675 305.107422,109.271484 L305.107422,106.359375 C304.783202,105.761716 304.28516,105.462891 303.613281,105.462891 C303.082029,105.462891 302.66797,105.667967 302.371094,106.078125 C302.074217,106.488283 301.925781,107.095699 301.925781,107.900391 Z M309.337891,106.207031 L310.152344,106.207031 C310.664065,106.199219 311.066405,106.064454 311.359375,105.802734 C311.652345,105.541014 311.798828,105.187502 311.798828,104.742188 C311.798828,103.742182 311.300786,103.242188 310.304688,103.242188 C309.835935,103.242188 309.461915,103.375975 309.182617,103.643555 C308.903319,103.911134 308.763672,104.265623 308.763672,104.707031 L307.679688,104.707031 C307.679688,104.031247 307.926755,103.469729 308.420898,103.022461 C308.915042,102.575193 309.542965,102.351562 310.304688,102.351562 C311.109379,102.351562 311.740232,102.564451 312.197266,102.990234 C312.654299,103.416018 312.882812,104.007809 312.882812,104.765625 C312.882812,105.136721 312.762697,105.496092 312.522461,105.84375 C312.282225,106.191408 311.95508,106.451171 311.541016,106.623047 C312.009768,106.771485 312.372069,107.017576 312.62793,107.361328 C312.88379,107.70508 313.011719,108.124998 313.011719,108.621094 C313.011719,109.386723 312.761721,109.994138 312.261719,110.443359 C311.761716,110.89258 311.111332,111.117188 310.310547,111.117188 C309.509762,111.117188 308.858401,110.900393 308.356445,110.466797 C307.85449,110.033201 307.603516,109.460941 307.603516,108.75 L308.693359,108.75 C308.693359,109.199221 308.839842,109.558592 309.132812,109.828125 C309.425783,110.097658 309.818357,110.232422 310.310547,110.232422 C310.833987,110.232422 311.234374,110.095704 311.511719,109.822266 C311.789064,109.548827 311.927734,109.156253 311.927734,108.644531 C311.927734,108.148435 311.775392,107.767579 311.470703,107.501953 C311.166014,107.236327 310.726565,107.099609 310.152344,107.091797 L309.337891,107.091797 L309.337891,106.207031 Z M314.998047,106.722656 L315.431641,102.46875 L319.802734,102.46875 L319.802734,103.470703 L316.351562,103.470703 L316.09375,105.796875 C316.511721,105.55078 316.986325,105.427734 317.517578,105.427734 C318.294926,105.427734 318.912107,105.684568 319.369141,106.198242 C319.826174,106.711917 320.054688,107.406246 320.054688,108.28125 C320.054688,109.160161 319.817385,109.852537 319.342773,110.358398 C318.868162,110.86426 318.205082,111.117188 317.353516,111.117188 C316.599606,111.117188 315.984377,110.908205 315.507812,110.490234 C315.031248,110.072264 314.759766,109.494144 314.693359,108.755859 L315.71875,108.755859 C315.785157,109.244143 315.958983,109.612303 316.240234,109.860352 C316.521486,110.1084 316.892576,110.232422 317.353516,110.232422 C317.857424,110.232422 318.252928,110.060549 318.540039,109.716797 C318.82715,109.373045 318.970703,108.898441 318.970703,108.292969 C318.970703,107.722653 318.815431,107.26465 318.504883,106.918945 C318.194334,106.57324 317.781253,106.400391 317.265625,106.400391 C316.792966,106.400391 316.421876,106.503905 316.152344,106.710938 L315.865234,106.945312 L314.998047,106.722656 Z M326.828125,111 L321.238281,111 L321.238281,110.220703 L324.191406,106.939453 C324.628908,106.443357 324.930663,106.040041 325.09668,105.729492 C325.262696,105.418944 325.345703,105.097658 325.345703,104.765625 C325.345703,104.32031 325.210939,103.95508 324.941406,103.669922 C324.671874,103.384764 324.312502,103.242188 323.863281,103.242188 C323.324216,103.242188 322.905275,103.395506 322.606445,103.702148 C322.307616,104.008791 322.158203,104.435544 322.158203,104.982422 L321.074219,104.982422 C321.074219,104.197262 321.327146,103.562502 321.833008,103.078125 C322.33887,102.593748 323.015621,102.351562 323.863281,102.351562 C324.656254,102.351562 325.283201,102.559568 325.744141,102.975586 C326.20508,103.391604 326.435547,103.945309 326.435547,104.636719 C326.435547,105.476567 325.900396,106.476557 324.830078,107.636719 L322.544922,110.115234 L326.828125,110.115234 L326.828125,111 Z M333.566406,111 L327.976562,111 L327.976562,110.220703 L330.929688,106.939453 C331.36719,106.443357 331.668944,106.040041 331.834961,105.729492 C332.000977,105.418944 332.083984,105.097658 332.083984,104.765625 C332.083984,104.32031 331.94922,103.95508 331.679688,103.669922 C331.410155,103.384764 331.050783,103.242188 330.601562,103.242188 C330.062497,103.242188 329.643556,103.395506 329.344727,103.702148 C329.045897,104.008791 328.896484,104.435544 328.896484,104.982422 L327.8125,104.982422 C327.8125,104.197262 328.065427,103.562502 328.571289,103.078125 C329.077151,102.593748 329.753902,102.351562 330.601562,102.351562 C331.394535,102.351562 332.021482,102.559568 332.482422,102.975586 C332.943362,103.391604 333.173828,103.945309 333.173828,104.636719 C333.173828,105.476567 332.638677,106.476557 331.568359,107.636719 L329.283203,110.115234 L333.566406,110.115234 L333.566406,111 Z M340.304688,111 L334.714844,111 L334.714844,110.220703 L337.667969,106.939453 C338.105471,106.443357 338.407226,106.040041 338.573242,105.729492 C338.739259,105.418944 338.822266,105.097658 338.822266,104.765625 C338.822266,104.32031 338.687501,103.95508 338.417969,103.669922 C338.148436,103.384764 337.789065,103.242188 337.339844,103.242188 C336.800779,103.242188 336.381837,103.395506 336.083008,103.702148 C335.784178,104.008791 335.634766,104.435544 335.634766,104.982422 L334.550781,104.982422 C334.550781,104.197262 334.803708,103.562502 335.30957,103.078125 C335.815432,102.593748 336.492183,102.351562 337.339844,102.351562 C338.132816,102.351562 338.759763,102.559568 339.220703,102.975586 C339.681643,103.391604 339.912109,103.945309 339.912109,104.636719 C339.912109,105.476567 339.376958,106.476557 338.306641,107.636719 L336.021484,110.115234 L340.304688,110.115234 L340.304688,111 Z M341.951172,106.722656 L342.384766,102.46875 L346.755859,102.46875 L346.755859,103.470703 L343.304688,103.470703 L343.046875,105.796875 C343.464846,105.55078 343.93945,105.427734 344.470703,105.427734 C345.248051,105.427734 345.865232,105.684568 346.322266,106.198242 C346.779299,106.711917 347.007812,107.406246 347.007812,108.28125 C347.007812,109.160161 346.77051,109.852537 346.295898,110.358398 C345.821287,110.86426 345.158207,111.117188 344.306641,111.117188 C343.552731,111.117188 342.937502,110.908205 342.460938,110.490234 C341.984373,110.072264 341.712891,109.494144 341.646484,108.755859 L342.671875,108.755859 C342.738282,109.244143 342.912108,109.612303 343.193359,109.860352 C343.474611,110.1084 343.845701,110.232422 344.306641,110.232422 C344.810549,110.232422 345.206053,110.060549 345.493164,109.716797 C345.780275,109.373045 345.923828,108.898441 345.923828,108.292969 C345.923828,107.722653 345.768556,107.26465 345.458008,106.918945 C345.147459,106.57324 344.734378,106.400391 344.21875,106.400391 C343.746091,106.400391 343.375001,106.503905 343.105469,106.710938 L342.818359,106.945312 L341.951172,106.722656 Z" id="Token-for-API-access" fill="#000000"></path>
                <path d="M365.819311,1.02731611 C374.434106,13.5950929 379.364044,28.6864432 379.364044,44.5613574 C379.364044,64.1992667 371.94827,82.8466105 358.444894,97.2560976 L361.364044,98.4714275 L351.364044,102.393405 L355.527187,92.5096841 L356.971154,96.2028878 C370.254745,82.1033072 377.553422,63.8188644 377.553422,44.5613574 C377.553422,28.7134989 372.51456,13.6441287 363.75557,1.20577064 C364.579352,1.13408716 364.801015,1.11536959 365.819311,1.02731611 Z" id="arrow" fill="#3DB162" transform="translate(365.364044, 51.710361) rotate(5.000000) translate(-365.364044, -51.710361) "></path>
                <rect id="shadow" fill="#F3F5F9" opacity="0.599999964" x="123" y="118" width="256" height="52"></rect>
                <rect id="select-token" stroke="#3DB162" stroke-width="2" x="134" y="97" width="224" height="18.755814" rx="2"></rect>
            </g>
        </g>
    </g>
</svg>