<?xml version="1.0" encoding="UTF-8"?>
<svg width="501px" height="170px" viewBox="0 0 501 170" version="1.1" xmlns="http://www.w3.org/2000/svg" xmlns:xlink="http://www.w3.org/1999/xlink">
    <!-- Generator: Sketch 48.1 (47250) - http://www.bohemiancoding.com/sketch -->
    <title>start-ru</title>
    <desc>Created with Sketch.</desc>
    <defs></defs>
    <g id="Plugin" stroke="none" stroke-width="1" fill="none" fill-rule="evenodd" transform="translate(-800.000000, -307.000000)">
        <g id="start-screen" transform="translate(800.000000, 250.000000)">
            <g id="start-ru" transform="translate(0.000000, 56.000000)">
                <rect id="bg-all" fill="#E6E9F1" x="0" y="2" width="501" height="168.023256"></rect>
                <rect id="bg" fill="#F3F5F9" x="123" y="30" width="256" height="140"></rect>
                <g id="buttons" transform="translate(136.000000, 128.000000)">
                    <g id="button-2" transform="translate(120.000000, 0.000000)">
                        <rect id="Button-Background" fill="#AECF9E" x="0" y="0" width="110" height="30" rx="2"></rect>
                        <path d="M32.8984375,10.46875 L34.3808594,10.46875 L34.3808594,19 L32.8984375,19 L32.8984375,12.9238281 L29.1542969,19 L27.671875,19 L27.671875,10.46875 L29.1542969,10.46875 L29.1542969,16.5507812 L32.8984375,10.46875 Z M40.8203125,14.3945312 C40.8203125,14.6757827 40.7353524,14.9345691 40.5654297,15.1708984 C40.395507,15.4072277 40.1562515,15.5957024 39.8476562,15.7363281 C40.5742224,15.9902356 40.9375,16.4804651 40.9375,17.2070312 C40.9375,17.7890654 40.7011742,18.252928 40.2285156,18.5986328 C39.755857,18.9443377 39.1230508,19.1171875 38.3300781,19.1171875 C37.8457007,19.1171875 37.4042989,19.0361336 37.0058594,18.8740234 C36.6074199,18.7119133 36.2968761,18.4814468 36.0742188,18.1826172 C35.8515614,17.8837876 35.7402344,17.5292989 35.7402344,17.1191406 L37.1582031,17.1191406 C37.1582031,17.3769544 37.2734363,17.5927726 37.5039062,17.7666016 C37.7343762,17.9404306 38.0253889,18.0273438 38.3769531,18.0273438 C38.7246111,18.0273438 39.0009755,17.9462899 39.2060547,17.7841797 C39.4111338,17.6220695 39.5136719,17.4101576 39.5136719,17.1484375 C39.5136719,16.8398422 39.423829,16.6171882 39.2441406,16.4804688 C39.0644522,16.3437493 38.7871113,16.2753906 38.4121094,16.2753906 L37.3925781,16.2753906 L37.3925781,15.25 L38.4472656,15.25 C39.0839876,15.2421875 39.4023438,14.9804713 39.4023438,14.4648438 C39.4023438,14.20703 39.3105478,14.0058601 39.1269531,13.8613281 C38.9433585,13.7167962 38.6914079,13.6445312 38.3710938,13.6445312 C38.0585922,13.6445312 37.7949229,13.7216789 37.5800781,13.8759766 C37.3652333,14.0302742 37.2578125,14.2246082 37.2578125,14.4589844 L35.8398438,14.4589844 C35.8398438,13.9003878 36.0742164,13.4423846 36.5429688,13.0849609 C37.0117211,12.7275373 37.6074183,12.5488281 38.3300781,12.5488281 C39.1152383,12.5488281 39.7265603,12.7089828 40.1640625,13.0292969 C40.6015647,13.349611 40.8203125,13.8046846 40.8203125,14.3945312 Z M45.9121094,17.2480469 L47.7871094,12.6601562 L49.5683594,12.6601562 L49.5683594,19 L48.1445312,19 L48.1445312,14.8046875 L46.3984375,19 L45.4316406,19 L43.6796875,14.78125 L43.6796875,19 L42.2558594,19 L42.2558594,12.6601562 L44.0488281,12.6601562 L45.9121094,17.2480469 Z M53.9570312,19.1171875 C53.054683,19.1171875 52.323245,18.8330107 51.7626953,18.2646484 C51.2021456,17.6962862 50.921875,16.9394579 50.921875,15.9941406 L50.921875,15.8183594 C50.921875,15.1855437 51.0439441,14.6201197 51.2880859,14.1220703 C51.5322278,13.6240209 51.8749978,13.2363295 52.3164062,12.9589844 C52.7578147,12.6816392 53.2499973,12.5429688 53.7929688,12.5429688 C54.6562543,12.5429688 55.3232398,12.8183566 55.7939453,13.3691406 C56.2646508,13.9199246 56.5,14.6992137 56.5,15.7070312 L56.5,16.28125 L52.3574219,16.28125 C52.4003908,16.8046901 52.5751938,17.2187485 52.8818359,17.5234375 C53.1884781,17.8281265 53.5742164,17.9804688 54.0390625,17.9804688 C54.6914095,17.9804688 55.2226542,17.7167995 55.6328125,17.1894531 L56.4003906,17.921875 C56.1464831,18.3007831 55.8076193,18.5947255 55.3837891,18.8037109 C54.9599588,19.0126964 54.4843776,19.1171875 53.9570312,19.1171875 Z M53.7871094,13.6855469 C53.3964824,13.6855469 53.0810559,13.8222643 52.8408203,14.0957031 C52.6005847,14.369142 52.447266,14.7499976 52.3808594,15.2382812 L55.09375,15.2382812 L55.09375,15.1328125 C55.0624998,14.6562476 54.935548,14.2958997 54.7128906,14.0517578 C54.4902333,13.807616 54.1816426,13.6855469 53.7871094,13.6855469 Z M62.9746094,19 L61.5507812,19 L61.5507812,16.4394531 L59.0839844,16.4394531 L59.0839844,19 L57.6601562,19 L57.6601562,12.6601562 L59.0839844,12.6601562 L59.0839844,15.3027344 L61.5507812,15.3027344 L61.5507812,12.6601562 L62.9746094,12.6601562 L62.9746094,19 Z M68.4472656,12.6601562 L69.8652344,12.6601562 L69.8652344,19 L68.4472656,19 L68.4472656,14.7695312 L65.9628906,19 L64.5449219,19 L64.5449219,12.6601562 L65.9628906,12.6601562 L65.9628906,16.890625 L68.4472656,12.6601562 Z M76.3691406,13.7910156 L74.3125,13.7910156 L74.3125,19 L72.8886719,19 L72.8886719,13.7910156 L70.8554688,13.7910156 L70.8554688,12.6601562 L76.3691406,12.6601562 L76.3691406,13.7910156 Z M78.8476562,14.6757812 L80.2421875,14.6757812 C80.7617213,14.6757812 81.2148418,14.7656241 81.6015625,14.9453125 C81.9882832,15.1250009 82.2822256,15.3769515 82.4833984,15.7011719 C82.6845713,16.0253922 82.7851562,16.4023416 82.7851562,16.8320312 C82.7851562,17.4843783 82.5546898,18.0078105 82.09375,18.4023438 C81.6328102,18.796877 81.0195351,18.9960937 80.2539062,19 L77.4238281,19 L77.4238281,12.6601562 L78.8476562,12.6601562 L78.8476562,14.6757812 Z M78.8476562,15.8183594 L78.8476562,17.8632812 L80.2363281,17.8632812 C80.5839861,17.8632812 80.8583974,17.7763681 81.0595703,17.6025391 C81.2607432,17.4287101 81.3613281,17.1816422 81.3613281,16.8613281 C81.3613281,16.541014 81.2626963,16.2880869 81.0654297,16.1025391 C80.8681631,15.9169913 80.6015642,15.8222656 80.265625,15.8183594 L78.8476562,15.8183594 Z" id="Изменить" fill="#FFFFFF"></path>
                    </g>
                    <g id="button-1">
                        <rect id="Button-Background" fill="#C1D8EF" x="0" y="0" width="110" height="30" rx="2"></rect>
                        <path d="M24.6132812,15.34375 L23.6054688,15.34375 L23.6054688,19 L22.1289062,19 L22.1289062,10.46875 L23.6054688,10.46875 L23.6054688,14.0546875 L24.4199219,14.0546875 L26.9277344,10.46875 L28.7441406,10.46875 L25.8144531,14.5527344 L29.0019531,19 L27.2207031,19 L24.6132812,15.34375 Z M29.2597656,15.7714844 C29.2597656,15.1503875 29.3828113,14.5908228 29.6289062,14.0927734 C29.8750012,13.5947241 30.2207009,13.2119154 30.6660156,12.9443359 C31.1113304,12.6767565 31.623044,12.5429688 32.2011719,12.5429688 C33.0566449,12.5429688 33.7509739,12.8183566 34.2841797,13.3691406 C34.8173855,13.9199246 35.1054685,14.6503861 35.1484375,15.5605469 L35.1542969,15.8945312 C35.1542969,16.5195344 35.0341809,17.0781225 34.7939453,17.5703125 C34.5537097,18.0625025 34.2099632,18.443358 33.7626953,18.7128906 C33.3154275,18.9824232 32.7988311,19.1171875 32.2128906,19.1171875 C31.3183549,19.1171875 30.6025417,18.8193389 30.0654297,18.2236328 C29.5283176,17.6279267 29.2597656,16.8339893 29.2597656,15.8417969 L29.2597656,15.7714844 Z M30.6835938,15.8945312 C30.6835938,16.5468783 30.818358,17.0576153 31.0878906,17.4267578 C31.3574232,17.7959003 31.7324195,17.9804688 32.2128906,17.9804688 C32.6933618,17.9804688 33.0673815,17.7929706 33.3349609,17.4179688 C33.6025404,17.0429669 33.7363281,16.4941442 33.7363281,15.7714844 C33.7363281,15.1308562 33.5986342,14.6230487 33.3232422,14.2480469 C33.0478502,13.873045 32.6738305,13.6855469 32.2011719,13.6855469 C31.7363258,13.6855469 31.3671889,13.8701153 31.09375,14.2392578 C30.8203111,14.6084003 30.6835938,15.1601526 30.6835938,15.8945312 Z M41.734375,19 L40.3105469,19 L40.3105469,13.8085938 L37.8378906,13.8085938 L37.8378906,19 L36.4140625,19 L36.4140625,12.6601562 L41.734375,12.6601562 L41.734375,19 Z M47.2070312,12.6601562 L48.625,12.6601562 L48.625,19 L47.2070312,19 L47.2070312,14.7695312 L44.7226562,19 L43.3046875,19 L43.3046875,12.6601562 L44.7226562,12.6601562 L44.7226562,16.890625 L47.2070312,12.6601562 Z M55.6914062,15.8945312 C55.6914062,16.8750049 55.4687522,17.6572236 55.0234375,18.2412109 C54.5781228,18.8251982 53.9804725,19.1171875 53.2304688,19.1171875 C52.5351528,19.1171875 51.9785177,18.8886742 51.5605469,18.4316406 L51.5605469,21.4375 L50.1367188,21.4375 L50.1367188,12.6601562 L51.4492188,12.6601562 L51.5078125,13.3046875 C51.9257833,12.7968725 52.494137,12.5429688 53.2128906,12.5429688 C53.986332,12.5429688 54.5927712,12.8310518 55.0322266,13.4072266 C55.4716819,13.9834013 55.6914062,14.783198 55.6914062,15.8066406 L55.6914062,15.8945312 Z M54.2734375,15.7714844 C54.2734375,15.1386687 54.1474622,14.6367206 53.8955078,14.265625 C53.6435534,13.8945294 53.2832055,13.7089844 52.8144531,13.7089844 C52.232419,13.7089844 51.8144544,13.9492163 51.5605469,14.4296875 L51.5605469,17.2421875 C51.8183607,17.7343775 52.2402314,17.9804688 52.8261719,17.9804688 C53.2792991,17.9804688 53.6337878,17.7978534 53.8896484,17.4326172 C54.1455091,17.067381 54.2734375,16.5136756 54.2734375,15.7714844 Z M56.6289062,15.7714844 C56.6289062,15.1503875 56.7519519,14.5908228 56.9980469,14.0927734 C57.2441419,13.5947241 57.5898415,13.2119154 58.0351562,12.9443359 C58.480471,12.6767565 58.9921846,12.5429688 59.5703125,12.5429688 C60.4257855,12.5429688 61.1201145,12.8183566 61.6533203,13.3691406 C62.1865261,13.9199246 62.4746092,14.6503861 62.5175781,15.5605469 L62.5234375,15.8945312 C62.5234375,16.5195344 62.4033215,17.0781225 62.1630859,17.5703125 C61.9228504,18.0625025 61.5791038,18.443358 61.1318359,18.7128906 C60.6845681,18.9824232 60.1679717,19.1171875 59.5820312,19.1171875 C58.6874955,19.1171875 57.9716824,18.8193389 57.4345703,18.2236328 C56.8974583,17.6279267 56.6289062,16.8339893 56.6289062,15.8417969 L56.6289062,15.7714844 Z M58.0527344,15.8945312 C58.0527344,16.5468783 58.1874987,17.0576153 58.4570313,17.4267578 C58.7265638,17.7959003 59.1015601,17.9804688 59.5820313,17.9804688 C60.0625024,17.9804688 60.4365221,17.7929706 60.7041016,17.4179688 C60.971681,17.0429669 61.1054688,16.4941442 61.1054688,15.7714844 C61.1054688,15.1308562 60.9677748,14.6230487 60.6923828,14.2480469 C60.4169908,13.873045 60.0429711,13.6855469 59.5703125,13.6855469 C59.1054664,13.6855469 58.7363295,13.8701153 58.4628906,14.2392578 C58.1894518,14.6084003 58.0527344,15.1601526 58.0527344,15.8945312 Z M63.8359375,19 L63.8359375,12.6601562 L66.4082031,12.6601562 C67.275395,12.6601562 67.9355446,12.8115219 68.3886719,13.1142578 C68.8417991,13.4169937 69.0683594,13.8515597 69.0683594,14.4179688 C69.0683594,14.710939 68.97754,14.9736317 68.7958984,15.2060547 C68.6142569,15.4384777 68.3457049,15.6171869 67.9902344,15.7421875 C68.4042989,15.8281254 68.7324207,16.0019518 68.9746094,16.2636719 C69.2167981,16.5253919 69.3378906,16.8339826 69.3378906,17.1894531 C69.3378906,17.7792998 69.1201194,18.2285141 68.6845703,18.5371094 C68.2490213,18.8457047 67.623051,19 66.8066406,19 L63.8359375,19 Z M65.2597656,16.2988281 L65.2597656,17.875 L66.8183594,17.875 C67.5488318,17.875 67.9140625,17.6132839 67.9140625,17.0898438 C67.9140625,16.5624974 67.5429725,16.2988281 66.8007812,16.2988281 L65.2597656,16.2988281 Z M65.2597656,15.2792969 L66.4316406,15.2792969 C67.2402384,15.2792969 67.6445312,15.041018 67.6445312,14.5644531 C67.6445312,14.0644506 67.2617226,13.8066407 66.4960938,13.7910156 L65.2597656,13.7910156 L65.2597656,15.2792969 Z M74.3535156,19 C74.2910153,18.8789056 74.2363284,18.681642 74.1894531,18.4082031 C73.7363259,18.8808617 73.1816439,19.1171875 72.5253906,19.1171875 C71.8886687,19.1171875 71.3691426,18.9355487 70.9667969,18.5722656 C70.5644511,18.2089826 70.3632812,17.7597683 70.3632812,17.2246094 C70.3632812,16.5488247 70.6142553,16.0302752 71.1162109,15.6689453 C71.6181666,15.3076154 72.3359328,15.1269531 73.2695312,15.1269531 L74.1425781,15.1269531 L74.1425781,14.7109375 C74.1425781,14.3828109 74.0507822,14.1201182 73.8671875,13.9228516 C73.6835928,13.725585 73.4042988,13.6269531 73.0292969,13.6269531 C72.7050765,13.6269531 72.4394542,13.708007 72.2324219,13.8701172 C72.0253896,14.0322274 71.921875,14.23828 71.921875,14.4882812 L70.4980469,14.4882812 C70.4980469,14.1406233 70.6132801,13.8154312 70.84375,13.5126953 C71.0742199,13.2099594 71.3876933,12.9726571 71.7841797,12.8007812 C72.180666,12.6289054 72.6230444,12.5429688 73.1113281,12.5429688 C73.8535193,12.5429688 74.4453103,12.7294903 74.8867188,13.1025391 C75.3281272,13.4755878 75.5546874,13.9999966 75.5664062,14.6757812 L75.5664062,17.5351562 C75.5664062,18.1054716 75.6464836,18.5605452 75.8066406,18.9003906 L75.8066406,19 L74.3535156,19 Z M72.7890625,17.9746094 C73.0703139,17.9746094 73.3349597,17.9062507 73.5830078,17.7695312 C73.8310559,17.6328118 74.0175775,17.4492199 74.1425781,17.21875 L74.1425781,16.0234375 L73.375,16.0234375 C72.8476536,16.0234375 72.4511732,16.1152335 72.1855469,16.2988281 C71.9199205,16.4824228 71.7871094,16.7421858 71.7871094,17.078125 C71.7871094,17.3515639 71.8779288,17.5693351 72.0595703,17.7314453 C72.2412118,17.8935555 72.4843735,17.9746094 72.7890625,17.9746094 Z M81.953125,13.7910156 L79.8964844,13.7910156 L79.8964844,19 L78.4726562,19 L78.4726562,13.7910156 L76.4394531,13.7910156 L76.4394531,12.6601562 L81.953125,12.6601562 L81.953125,13.7910156 Z M84.4316406,14.6757812 L85.8261719,14.6757812 C86.3457057,14.6757812 86.7988262,14.7656241 87.1855469,14.9453125 C87.5722676,15.1250009 87.8662099,15.3769515 88.0673828,15.7011719 C88.2685557,16.0253922 88.3691406,16.4023416 88.3691406,16.8320312 C88.3691406,17.4843783 88.1386742,18.0078105 87.6777344,18.4023438 C87.2167946,18.796877 86.6035195,18.9960937 85.8378906,19 L83.0078125,19 L83.0078125,12.6601562 L84.4316406,12.6601562 L84.4316406,14.6757812 Z M84.4316406,15.8183594 L84.4316406,17.8632812 L85.8203125,17.8632812 C86.1679705,17.8632812 86.4423818,17.7763681 86.6435547,17.6025391 C86.8447276,17.4287101 86.9453125,17.1816422 86.9453125,16.8613281 C86.9453125,16.541014 86.8466807,16.2880869 86.6494141,16.1025391 C86.4521475,15.9169913 86.1855486,15.8222656 85.8496094,15.8183594 L84.4316406,15.8183594 Z" id="Копировать" fill="#FFFFFF"></path>
                    </g>
                </g>
                <path d="M145.404297,57.6894531 L139.896484,57.6894531 L138.744141,61 L136.175781,61 L141.546875,46.78125 L143.763672,46.78125 L149.144531,61 L146.566406,61 L145.404297,57.6894531 Z M140.589844,55.6972656 L144.710938,55.6972656 L142.650391,49.7988281 L140.589844,55.6972656 Z M153.226562,55.7167969 L153.226562,61 L150.755859,61 L150.755859,46.78125 L156.195312,46.78125 C157.783862,46.78125 159.045243,47.1946573 159.979492,48.0214844 C160.913742,48.8483114 161.380859,49.9420505 161.380859,51.3027344 C161.380859,52.6959705 160.923507,53.779944 160.008789,54.5546875 C159.094071,55.329431 157.813159,55.7167969 156.166016,55.7167969 L153.226562,55.7167969 Z M153.226562,53.734375 L156.195312,53.734375 C157.074223,53.734375 157.744789,53.5276713 158.207031,53.1142578 C158.669273,52.7008443 158.900391,52.1035195 158.900391,51.3222656 C158.900391,50.5540326 158.666018,49.940432 158.197266,49.4814453 C157.728513,49.0224586 157.083988,48.7864584 156.263672,48.7734375 L153.226562,48.7734375 L153.226562,53.734375 Z M166.146484,61 L163.685547,61 L163.685547,46.78125 L166.146484,46.78125 L166.146484,61 Z" id="API" fill="#2C2F3B"></path>
                <path d="M142.884766,84.3945312 L140.142578,84.3945312 L140.142578,92 L139.023438,92 L139.023438,84.3945312 L136.287109,84.3945312 L136.287109,83.46875 L142.884766,83.46875 L142.884766,84.3945312 Z M143.113281,88.7714844 C143.113281,88.1503875 143.23535,87.5917994 143.479492,87.0957031 C143.723634,86.5996069 144.063474,86.2167982 144.499023,85.9472656 C144.934572,85.677733 145.431638,85.5429688 145.990234,85.5429688 C146.85352,85.5429688 147.551755,85.8417939 148.084961,86.4394531 C148.618167,87.0371124 148.884766,87.8320263 148.884766,88.8242188 L148.884766,88.9003906 C148.884766,89.5175812 148.766603,90.0712866 148.530273,90.5615234 C148.293944,91.0517603 147.956057,91.4335924 147.516602,91.7070312 C147.077146,91.9804701 146.572268,92.1171875 146.001953,92.1171875 C145.142574,92.1171875 144.446292,91.8183624 143.913086,91.2207031 C143.37988,90.6230439 143.113281,89.8320362 143.113281,88.8476562 L143.113281,88.7714844 Z M144.203125,88.9003906 C144.203125,89.6035191 144.366209,90.1679666 144.692383,90.59375 C145.018556,91.0195334 145.455075,91.2324219 146.001953,91.2324219 C146.552737,91.2324219 146.990233,91.0166037 147.314453,90.5849609 C147.638673,90.1533182 147.800781,89.548832 147.800781,88.7714844 C147.800781,88.0761684 147.635744,87.5126975 147.305664,87.0810547 C146.975584,86.6494119 146.537112,86.4335938 145.990234,86.4335938 C145.455075,86.4335938 145.023439,86.6464822 144.695312,87.0722656 C144.367186,87.498049 144.203125,88.1074179 144.203125,88.9003906 Z M152.21875,89.2988281 L151.427734,89.2988281 L151.427734,92 L150.337891,92 L150.337891,85.6601562 L151.427734,85.6601562 L151.427734,88.34375 L152.136719,88.34375 L154.269531,85.6601562 L155.582031,85.6601562 L153.074219,88.7070312 L155.792969,92 L154.416016,92 L152.21875,89.2988281 Z M159.261719,92.1171875 C158.402339,92.1171875 157.703128,91.8349638 157.164062,91.2705078 C156.624997,90.7060519 156.355469,89.9511766 156.355469,89.0058594 L156.355469,88.8066406 C156.355469,88.1777312 156.475585,87.6162134 156.71582,87.1220703 C156.956056,86.6279272 157.29199,86.2412123 157.723633,85.9619141 C158.155276,85.6826158 158.623044,85.5429688 159.126953,85.5429688 C159.951176,85.5429688 160.591795,85.8144504 161.048828,86.3574219 C161.505862,86.9003933 161.734375,87.6777293 161.734375,88.6894531 L161.734375,89.140625 L157.439453,89.140625 C157.455078,89.7656281 157.637694,90.2705059 157.987305,90.6552734 C158.336916,91.040041 158.781247,91.2324219 159.320312,91.2324219 C159.703127,91.2324219 160.027342,91.1542977 160.292969,90.9980469 C160.558595,90.8417961 160.791015,90.6347669 160.990234,90.3769531 L161.652344,90.8925781 C161.121091,91.7089885 160.324224,92.1171875 159.261719,92.1171875 Z M159.126953,86.4335938 C158.689451,86.4335938 158.322267,86.5927718 158.025391,86.9111328 C157.728514,87.2294938 157.544922,87.6757784 157.474609,88.25 L160.650391,88.25 L160.650391,88.1679688 C160.61914,87.6171847 160.470704,87.1904312 160.205078,86.8876953 C159.939452,86.5849594 159.58008,86.4335938 159.126953,86.4335938 Z M168.167969,92 L167.083984,92 L167.083984,89.2929688 L164.171875,89.2929688 L164.171875,92 L163.082031,92 L163.082031,85.6601562 L164.171875,85.6601562 L164.171875,88.4082031 L167.083984,88.4082031 L167.083984,85.6601562 L168.167969,85.6601562 L168.167969,92 Z M172.826172,91.1152344 L173.201172,90.6523438 C173.623049,90.105466 173.863281,89.2851617 173.921875,88.1914062 L174.021484,85.6601562 L178.105469,85.6601562 L178.105469,91.1152344 L178.919922,91.1152344 L178.919922,93.8632812 L177.835938,93.8632812 L177.835938,92 L173.412109,92 L173.412109,93.8632812 L172.328125,93.8632812 L172.333984,91.1152344 L172.826172,91.1152344 Z M174.109375,91.1152344 L177.021484,91.1152344 L177.021484,86.6621094 L175.070312,86.6621094 L175.005859,88.1738281 C174.939453,89.4355532 174.640628,90.4160121 174.109375,91.1152344 Z M185.318359,85.6601562 L185.318359,92 L184.228516,92 L184.228516,86.5566406 L182.072266,86.5566406 L181.943359,88.9296875 C181.873047,90.0195367 181.690431,90.7988258 181.395508,91.2675781 C181.100584,91.7363305 180.632816,91.9804687 179.992188,92 L179.558594,92 L179.558594,91.0449219 L179.869141,91.0214844 C180.220705,90.9824217 180.472655,90.7792987 180.625,90.4121094 C180.777345,90.04492 180.875,89.3652393 180.917969,88.3730469 L181.035156,85.6601562 L185.318359,85.6601562 Z M191.904297,85.6601562 L191.904297,92 L190.814453,92 L190.814453,89.5332031 L189.179688,89.5332031 L187.685547,92 L186.513672,92 L188.107422,89.3691406 C187.70117,89.2207024 187.38965,88.9912125 187.172852,88.6806641 C186.956054,88.3701156 186.847656,88.0078146 186.847656,87.59375 C186.847656,87.0156221 187.064451,86.5498065 187.498047,86.1962891 C187.931643,85.8427717 188.511715,85.6640625 189.238281,85.6601562 L191.904297,85.6601562 Z M187.9375,87.6054688 C187.9375,87.914064 188.042968,88.163085 188.253906,88.3525391 C188.464845,88.5419931 188.744139,88.6386719 189.091797,88.6425781 L190.814453,88.6425781 L190.814453,86.5390625 L189.255859,86.5390625 C188.853514,86.5390625 188.533204,86.6376943 188.294922,86.8349609 C188.056639,87.0322275 187.9375,87.2890609 187.9375,87.6054688 Z M201.496094,89.7734375 L197.921875,89.7734375 L197.119141,92 L195.958984,92 L199.216797,83.46875 L200.201172,83.46875 L203.464844,92 L202.310547,92 L201.496094,89.7734375 Z M198.261719,88.8476562 L201.162109,88.8476562 L199.708984,84.8574219 L198.261719,88.8476562 Z M205.738281,88.6601562 L205.738281,92 L204.613281,92 L204.613281,83.46875 L207.759766,83.46875 C208.693364,83.46875 209.424802,83.7070289 209.954102,84.1835938 C210.483401,84.6601586 210.748047,85.2910117 210.748047,86.0761719 C210.748047,86.904301 210.48926,87.54199 209.97168,87.9892578 C209.454099,88.4365257 208.712895,88.6601562 207.748047,88.6601562 L205.738281,88.6601562 Z M205.738281,87.7402344 L207.759766,87.7402344 C208.361331,87.7402344 208.822264,87.5986342 209.142578,87.3154297 C209.462892,87.0322251 209.623047,86.6230496 209.623047,86.0878906 C209.623047,85.5800756 209.462892,85.1738296 209.142578,84.8691406 C208.822264,84.5644516 208.382815,84.4062501 207.824219,84.3945312 L205.738281,84.3945312 L205.738281,87.7402344 Z M213.390625,92 L212.265625,92 L212.265625,83.46875 L213.390625,83.46875 L213.390625,92 Z M218.195312,91.1152344 L218.570312,90.6523438 C218.99219,90.105466 219.232422,89.2851617 219.291016,88.1914062 L219.390625,85.6601562 L223.474609,85.6601562 L223.474609,91.1152344 L224.289062,91.1152344 L224.289062,93.8632812 L223.205078,93.8632812 L223.205078,92 L218.78125,92 L218.78125,93.8632812 L217.697266,93.8632812 L217.703125,91.1152344 L218.195312,91.1152344 Z M219.478516,91.1152344 L222.390625,91.1152344 L222.390625,86.6621094 L220.439453,86.6621094 L220.375,88.1738281 C220.308593,89.4355532 220.009768,90.4160121 219.478516,91.1152344 Z M225.203125,88.7714844 C225.203125,88.1503875 225.325194,87.5917994 225.569336,87.0957031 C225.813478,86.5996069 226.153318,86.2167982 226.588867,85.9472656 C227.024416,85.677733 227.521482,85.5429688 228.080078,85.5429688 C228.943364,85.5429688 229.641599,85.8417939 230.174805,86.4394531 C230.70801,87.0371124 230.974609,87.8320263 230.974609,88.8242188 L230.974609,88.9003906 C230.974609,89.5175812 230.856446,90.0712866 230.620117,90.5615234 C230.383788,91.0517603 230.045901,91.4335924 229.606445,91.7070312 C229.16699,91.9804701 228.662112,92.1171875 228.091797,92.1171875 C227.232418,92.1171875 226.536135,91.8183624 226.00293,91.2207031 C225.469724,90.6230439 225.203125,89.8320362 225.203125,88.8476562 L225.203125,88.7714844 Z M226.292969,88.9003906 C226.292969,89.6035191 226.456053,90.1679666 226.782227,90.59375 C227.1084,91.0195334 227.544919,91.2324219 228.091797,91.2324219 C228.642581,91.2324219 229.080077,91.0166037 229.404297,90.5849609 C229.728517,90.1533182 229.890625,89.548832 229.890625,88.7714844 C229.890625,88.0761684 229.725588,87.5126975 229.395508,87.0810547 C229.065428,86.6494119 228.626956,86.4335938 228.080078,86.4335938 C227.544919,86.4335938 227.113283,86.6464822 226.785156,87.0722656 C226.45703,87.498049 226.292969,88.1074179 226.292969,88.9003906 Z M234.876953,91.2324219 C235.263674,91.2324219 235.601561,91.1152355 235.890625,90.8808594 C236.179689,90.6464832 236.339844,90.3535174 236.371094,90.0019531 L237.396484,90.0019531 C237.376953,90.3652362 237.251954,90.7109359 237.021484,91.0390625 C236.791014,91.3671891 236.4834,91.6289053 236.098633,91.8242188 C235.713865,92.0195322 235.306643,92.1171875 234.876953,92.1171875 C234.013668,92.1171875 233.327151,91.8291044 232.817383,91.2529297 C232.307615,90.6767549 232.052734,89.8886769 232.052734,88.8886719 L232.052734,88.7070312 C232.052734,88.0898407 232.166014,87.541018 232.392578,87.0605469 C232.619142,86.5800757 232.944334,86.2070326 233.368164,85.9414062 C233.791994,85.6757799 234.292966,85.5429688 234.871094,85.5429688 C235.582035,85.5429688 236.172849,85.7558572 236.643555,86.1816406 C237.11426,86.607424 237.365234,87.1601529 237.396484,87.8398438 L236.371094,87.8398438 C236.339844,87.4296854 236.184572,87.0927748 235.905273,86.8291016 C235.625975,86.5654284 235.281252,86.4335938 234.871094,86.4335938 C234.32031,86.4335938 233.893556,86.631834 233.59082,87.0283203 C233.288084,87.4248067 233.136719,87.9980431 233.136719,88.7480469 L233.136719,88.953125 C233.136719,89.6835974 233.287108,90.2460918 233.587891,90.640625 C233.888673,91.0351582 234.318357,91.2324219 234.876953,91.2324219 Z M243.326172,86.5390625 L241.199219,86.5390625 L241.199219,92 L240.115234,92 L240.115234,86.5390625 L238.029297,86.5390625 L238.029297,85.6601562 L243.326172,85.6601562 L243.326172,86.5390625 Z M246.519531,90.4121094 L247.996094,85.6601562 L249.15625,85.6601562 L246.607422,92.9785156 C246.212889,94.0332084 245.585942,94.5605469 244.726562,94.5605469 L244.521484,94.5429688 L244.117188,94.4667969 L244.117188,93.5878906 L244.410156,93.6113281 C244.777346,93.6113281 245.063476,93.5371101 245.268555,93.3886719 C245.473634,93.2402336 245.642577,92.968752 245.775391,92.5742188 L246.015625,91.9296875 L243.753906,85.6601562 L244.9375,85.6601562 L246.519531,90.4121094 Z M255.308594,92 L254.224609,92 L254.224609,86.5566406 L251.306641,86.5566406 L251.306641,92 L250.216797,92 L250.216797,85.6601562 L255.308594,85.6601562 L255.308594,92 Z M260.962891,92 C260.90039,91.8749994 260.84961,91.6523454 260.810547,91.3320312 C260.306638,91.8554714 259.705082,92.1171875 259.005859,92.1171875 C258.380856,92.1171875 257.868166,91.9404315 257.467773,91.5869141 C257.067381,91.2333967 256.867188,90.785159 256.867188,90.2421875 C256.867188,89.5820279 257.118162,89.0693378 257.620117,88.7041016 C258.122073,88.3388654 258.82812,88.15625 259.738281,88.15625 L260.792969,88.15625 L260.792969,87.6582031 C260.792969,87.279295 260.679689,86.9775402 260.453125,86.7529297 C260.226561,86.5283192 259.89258,86.4160156 259.451172,86.4160156 C259.064451,86.4160156 258.740236,86.5136709 258.478516,86.7089844 C258.216796,86.9042979 258.085938,87.1406236 258.085938,87.4179688 L256.996094,87.4179688 C256.996094,87.1015609 257.108397,86.7958999 257.333008,86.5009766 C257.557618,86.2060532 257.862303,85.9726571 258.24707,85.8007812 C258.631838,85.6289054 259.054685,85.5429688 259.515625,85.5429688 C260.246097,85.5429688 260.818357,85.7255841 261.232422,86.0908203 C261.646486,86.4560565 261.861328,86.9589812 261.876953,87.5996094 L261.876953,90.5175781 C261.876953,91.0996123 261.951171,91.5624983 262.099609,91.90625 L262.099609,92 L260.962891,92 Z M259.164062,91.1738281 C259.503908,91.1738281 259.82617,91.0859384 260.130859,90.9101562 C260.435548,90.7343741 260.656249,90.5058608 260.792969,90.2246094 L260.792969,88.9238281 L259.943359,88.9238281 C258.615228,88.9238281 257.951172,89.3124961 257.951172,90.0898438 C257.951172,90.4296892 258.064452,90.6953115 258.291016,90.8867188 C258.517579,91.078126 258.808592,91.1738281 259.164062,91.1738281 Z M263.541016,91.4316406 C263.541016,91.2441397 263.596679,91.0878912 263.708008,90.9628906 C263.819336,90.83789 263.986327,90.7753906 264.208984,90.7753906 C264.431642,90.7753906 264.600585,90.83789 264.71582,90.9628906 C264.831055,91.0878912 264.888672,91.2441397 264.888672,91.4316406 C264.888672,91.611329 264.831055,91.7617181 264.71582,91.8828125 C264.600585,92.0039069 264.431642,92.0644531 264.208984,92.0644531 C263.986327,92.0644531 263.819336,92.0039069 263.708008,91.8828125 C263.596679,91.7617181 263.541016,91.611329 263.541016,91.4316406 Z M263.546875,86.2578125 C263.546875,86.0703116 263.602539,85.9140631 263.713867,85.7890625 C263.825196,85.6640619 263.992186,85.6015625 264.214844,85.6015625 C264.437501,85.6015625 264.606445,85.6640619 264.72168,85.7890625 C264.836915,85.9140631 264.894531,86.0703116 264.894531,86.2578125 C264.894531,86.4375009 264.836915,86.58789 264.72168,86.7089844 C264.606445,86.8300787 264.437501,86.890625 264.214844,86.890625 C263.992186,86.890625 263.825196,86.8300787 263.713867,86.7089844 C263.602539,86.58789 263.546875,86.4375009 263.546875,86.2578125 Z M138.285156,106.207031 L139.099609,106.207031 C139.611331,106.199219 140.01367,106.064454 140.306641,105.802734 C140.599611,105.541014 140.746094,105.187502 140.746094,104.742188 C140.746094,103.742182 140.248052,103.242188 139.251953,103.242188 C138.783201,103.242188 138.409181,103.375975 138.129883,103.643555 C137.850585,103.911134 137.710938,104.265623 137.710938,104.707031 L136.626953,104.707031 C136.626953,104.031247 136.874021,103.469729 137.368164,103.022461 C137.862307,102.575193 138.490231,102.351562 139.251953,102.351562 C140.056645,102.351562 140.687498,102.564451 141.144531,102.990234 C141.601565,103.416018 141.830078,104.007809 141.830078,104.765625 C141.830078,105.136721 141.709962,105.496092 141.469727,105.84375 C141.229491,106.191408 140.902346,106.451171 140.488281,106.623047 C140.957034,106.771485 141.319335,107.017576 141.575195,107.361328 C141.831056,107.70508 141.958984,108.124998 141.958984,108.621094 C141.958984,109.386723 141.708987,109.994138 141.208984,110.443359 C140.708982,110.89258 140.058598,111.117188 139.257812,111.117188 C138.457027,111.117188 137.805667,110.900393 137.303711,110.466797 C136.801755,110.033201 136.550781,109.460941 136.550781,108.75 L137.640625,108.75 C137.640625,109.199221 137.787108,109.558592 138.080078,109.828125 C138.373048,110.097658 138.765623,110.232422 139.257812,110.232422 C139.781253,110.232422 140.181639,110.095704 140.458984,109.822266 C140.73633,109.548827 140.875,109.156253 140.875,108.644531 C140.875,108.148435 140.722658,107.767579 140.417969,107.501953 C140.11328,107.236327 139.673831,107.099609 139.099609,107.091797 L138.285156,107.091797 L138.285156,106.207031 Z M148.023438,108.134766 L149.207031,108.134766 L149.207031,109.019531 L148.023438,109.019531 L148.023438,111 L146.933594,111 L146.933594,109.019531 L143.048828,109.019531 L143.048828,108.380859 L146.869141,102.46875 L148.023438,102.46875 L148.023438,108.134766 Z M144.279297,108.134766 L146.933594,108.134766 L146.933594,103.951172 L146.804688,104.185547 L144.279297,108.134766 Z M155.775391,111 L150.185547,111 L150.185547,110.220703 L153.138672,106.939453 C153.576174,106.443357 153.877929,106.040041 154.043945,105.729492 C154.209962,105.418944 154.292969,105.097658 154.292969,104.765625 C154.292969,104.32031 154.158204,103.95508 153.888672,103.669922 C153.619139,103.384764 153.259768,103.242188 152.810547,103.242188 C152.271482,103.242188 151.852541,103.395506 151.553711,103.702148 C151.254881,104.008791 151.105469,104.435544 151.105469,104.982422 L150.021484,104.982422 C150.021484,104.197262 150.274412,103.562502 150.780273,103.078125 C151.286135,102.593748 151.962886,102.351562 152.810547,102.351562 C153.60352,102.351562 154.230466,102.559568 154.691406,102.975586 C155.152346,103.391604 155.382812,103.945309 155.382812,104.636719 C155.382812,105.476567 154.847662,106.476557 153.777344,107.636719 L151.492188,110.115234 L155.775391,110.115234 L155.775391,111 Z M158.5,106.207031 L159.314453,106.207031 C159.826174,106.199219 160.228514,106.064454 160.521484,105.802734 C160.814455,105.541014 160.960938,105.187502 160.960938,104.742188 C160.960938,103.742182 160.462896,103.242188 159.466797,103.242188 C158.998045,103.242188 158.624025,103.375975 158.344727,103.643555 C158.065428,103.911134 157.925781,104.265623 157.925781,104.707031 L156.841797,104.707031 C156.841797,104.031247 157.088865,103.469729 157.583008,103.022461 C158.077151,102.575193 158.705074,102.351562 159.466797,102.351562 C160.271488,102.351562 160.902341,102.564451 161.359375,102.990234 C161.816409,103.416018 162.044922,104.007809 162.044922,104.765625 C162.044922,105.136721 161.924806,105.496092 161.68457,105.84375 C161.444335,106.191408 161.11719,106.451171 160.703125,106.623047 C161.171877,106.771485 161.534178,107.017576 161.790039,107.361328 C162.0459,107.70508 162.173828,108.124998 162.173828,108.621094 C162.173828,109.386723 161.923831,109.994138 161.423828,110.443359 C160.923826,110.89258 160.273442,111.117188 159.472656,111.117188 C158.671871,111.117188 158.02051,110.900393 157.518555,110.466797 C157.016599,110.033201 156.765625,109.460941 156.765625,108.75 L157.855469,108.75 C157.855469,109.199221 158.001952,109.558592 158.294922,109.828125 C158.587892,110.097658 158.980466,110.232422 159.472656,110.232422 C159.996096,110.232422 160.396483,110.095704 160.673828,109.822266 C160.951173,109.548827 161.089844,109.156253 161.089844,108.644531 C161.089844,108.148435 160.937502,107.767579 160.632812,107.501953 C160.328123,107.236327 159.888675,107.099609 159.314453,107.091797 L158.5,107.091797 L158.5,106.207031 Z M168.238281,108.134766 L169.421875,108.134766 L169.421875,109.019531 L168.238281,109.019531 L168.238281,111 L167.148438,111 L167.148438,109.019531 L163.263672,109.019531 L163.263672,108.380859 L167.083984,102.46875 L168.238281,102.46875 L168.238281,108.134766 Z M164.494141,108.134766 L167.148438,108.134766 L167.148438,103.951172 L167.019531,104.185547 L164.494141,108.134766 Z M170.898438,106.722656 L171.332031,102.46875 L175.703125,102.46875 L175.703125,103.470703 L172.251953,103.470703 L171.994141,105.796875 C172.412111,105.55078 172.886716,105.427734 173.417969,105.427734 C174.195316,105.427734 174.812498,105.684568 175.269531,106.198242 C175.726565,106.711917 175.955078,107.406246 175.955078,108.28125 C175.955078,109.160161 175.717776,109.852537 175.243164,110.358398 C174.768552,110.86426 174.105473,111.117188 173.253906,111.117188 C172.499996,111.117188 171.884768,110.908205 171.408203,110.490234 C170.931638,110.072264 170.660157,109.494144 170.59375,108.755859 L171.619141,108.755859 C171.685547,109.244143 171.859374,109.612303 172.140625,109.860352 C172.421876,110.1084 172.792966,110.232422 173.253906,110.232422 C173.757815,110.232422 174.153319,110.060549 174.44043,109.716797 C174.72754,109.373045 174.871094,108.898441 174.871094,108.292969 C174.871094,107.722653 174.715822,107.26465 174.405273,106.918945 C174.094725,106.57324 173.681643,106.400391 173.166016,106.400391 C172.693357,106.400391 172.322267,106.503905 172.052734,106.710938 L171.765625,106.945312 L170.898438,106.722656 Z M181.714844,108.134766 L182.898438,108.134766 L182.898438,109.019531 L181.714844,109.019531 L181.714844,111 L180.625,111 L180.625,109.019531 L176.740234,109.019531 L176.740234,108.380859 L180.560547,102.46875 L181.714844,102.46875 L181.714844,108.134766 Z M177.970703,108.134766 L180.625,108.134766 L180.625,103.951172 L180.496094,104.185547 L177.970703,108.134766 Z M183.724609,107.777344 C183.724609,106.804683 183.955076,106.022464 184.416016,105.430664 C184.876955,104.838864 185.480465,104.542969 186.226562,104.542969 C186.968754,104.542969 187.556638,104.796872 187.990234,105.304688 L187.990234,102 L189.074219,102 L189.074219,111 L188.078125,111 L188.025391,110.320312 C187.591795,110.851565 186.988285,111.117188 186.214844,111.117188 C185.480465,111.117188 184.881838,110.816409 184.418945,110.214844 C183.956052,109.613278 183.724609,108.82813 183.724609,107.859375 L183.724609,107.777344 Z M184.808594,107.900391 C184.808594,108.619144 184.95703,109.181639 185.253906,109.587891 C185.550783,109.994143 185.960935,110.197266 186.484375,110.197266 C187.171878,110.197266 187.673827,109.888675 187.990234,109.271484 L187.990234,106.359375 C187.666014,105.761716 187.167972,105.462891 186.496094,105.462891 C185.964841,105.462891 185.550783,105.667967 185.253906,106.078125 C184.95703,106.488283 184.808594,107.095699 184.808594,107.900391 Z M191.289062,111 L191.289062,105.498047 L190.287109,105.498047 L190.287109,104.660156 L191.289062,104.660156 L191.289062,104.009766 C191.289062,103.330075 191.470701,102.804689 191.833984,102.433594 C192.197267,102.062498 192.710934,101.876953 193.375,101.876953 C193.625001,101.876953 193.873046,101.910156 194.119141,101.976562 L194.060547,102.855469 C193.876952,102.820312 193.681642,102.802734 193.474609,102.802734 C193.123045,102.802734 192.851563,102.905272 192.660156,103.110352 C192.468749,103.315431 192.373047,103.609373 192.373047,103.992188 L192.373047,104.660156 L193.726562,104.660156 L193.726562,105.498047 L192.373047,105.498047 L192.373047,111 L191.289062,111 Z M198.613281,109.318359 C198.613281,109.025389 198.502931,108.797852 198.282227,108.635742 C198.061522,108.473632 197.676761,108.333985 197.12793,108.216797 C196.579099,108.099609 196.143556,107.958985 195.821289,107.794922 C195.499022,107.630859 195.260743,107.435548 195.106445,107.208984 C194.952148,106.982421 194.875,106.712892 194.875,106.400391 C194.875,105.880857 195.094724,105.441408 195.53418,105.082031 C195.973635,104.722654 196.535153,104.542969 197.21875,104.542969 C197.937504,104.542969 198.520506,104.728514 198.967773,105.099609 C199.415041,105.470705 199.638672,105.94531 199.638672,106.523438 L198.548828,106.523438 C198.548828,106.226561 198.422853,105.970704 198.170898,105.755859 C197.918944,105.541015 197.601564,105.433594 197.21875,105.433594 C196.824217,105.433594 196.515626,105.51953 196.292969,105.691406 C196.070311,105.863282 195.958984,106.087889 195.958984,106.365234 C195.958984,106.626954 196.062499,106.824218 196.269531,106.957031 C196.476564,107.089844 196.850583,107.216796 197.391602,107.337891 C197.93262,107.458985 198.371092,107.603515 198.707031,107.771484 C199.04297,107.939454 199.291991,108.1416 199.454102,108.37793 C199.616212,108.614259 199.697266,108.902342 199.697266,109.242188 C199.697266,109.808597 199.470705,110.262694 199.017578,110.604492 C198.564451,110.946291 197.976566,111.117188 197.253906,111.117188 C196.746091,111.117188 196.296877,111.027345 195.90625,110.847656 C195.515623,110.667968 195.209962,110.416994 194.989258,110.094727 C194.768554,109.772459 194.658203,109.42383 194.658203,109.048828 L195.742188,109.048828 C195.761719,109.412111 195.907225,109.700194 196.178711,109.913086 C196.450197,110.125978 196.808592,110.232422 197.253906,110.232422 C197.664065,110.232422 197.993163,110.149415 198.241211,109.983398 C198.489259,109.817382 198.613281,109.595705 198.613281,109.318359 Z M200.845703,107.777344 C200.845703,106.804683 201.07617,106.022464 201.537109,105.430664 C201.998049,104.838864 202.601559,104.542969 203.347656,104.542969 C204.089847,104.542969 204.677732,104.796872 205.111328,105.304688 L205.111328,102 L206.195312,102 L206.195312,111 L205.199219,111 L205.146484,110.320312 C204.712888,110.851565 204.109379,111.117188 203.335938,111.117188 C202.601559,111.117188 202.002932,110.816409 201.540039,110.214844 C201.077146,109.613278 200.845703,108.82813 200.845703,107.859375 L200.845703,107.777344 Z M201.929688,107.900391 C201.929688,108.619144 202.078124,109.181639 202.375,109.587891 C202.671876,109.994143 203.082029,110.197266 203.605469,110.197266 C204.292972,110.197266 204.79492,109.888675 205.111328,109.271484 L205.111328,106.359375 C204.787108,105.761716 204.289066,105.462891 203.617188,105.462891 C203.085935,105.462891 202.671876,105.667967 202.375,106.078125 C202.078124,106.488283 201.929688,107.095699 201.929688,107.900391 Z M208.410156,111 L208.410156,105.498047 L207.408203,105.498047 L207.408203,104.660156 L208.410156,104.660156 L208.410156,104.009766 C208.410156,103.330075 208.591795,102.804689 208.955078,102.433594 C209.318361,102.062498 209.832028,101.876953 210.496094,101.876953 C210.746095,101.876953 210.994139,101.910156 211.240234,101.976562 L211.181641,102.855469 C210.998046,102.820312 210.802735,102.802734 210.595703,102.802734 C210.244139,102.802734 209.972657,102.905272 209.78125,103.110352 C209.589843,103.315431 209.494141,103.609373 209.494141,103.992188 L209.494141,104.660156 L210.847656,104.660156 L210.847656,105.498047 L209.494141,105.498047 L209.494141,111 L208.410156,111 Z M217.521484,111 L211.931641,111 L211.931641,110.220703 L214.884766,106.939453 C215.322268,106.443357 215.624023,106.040041 215.790039,105.729492 C215.956056,105.418944 216.039062,105.097658 216.039062,104.765625 C216.039062,104.32031 215.904298,103.95508 215.634766,103.669922 C215.365233,103.384764 215.005862,103.242188 214.556641,103.242188 C214.017575,103.242188 213.598634,103.395506 213.299805,103.702148 C213.000975,104.008791 212.851562,104.435544 212.851562,104.982422 L211.767578,104.982422 C211.767578,104.197262 212.020505,103.562502 212.526367,103.078125 C213.032229,102.593748 213.70898,102.351562 214.556641,102.351562 C215.349613,102.351562 215.97656,102.559568 216.4375,102.975586 C216.89844,103.391604 217.128906,103.945309 217.128906,104.636719 C217.128906,105.476567 216.593755,106.476557 215.523438,107.636719 L213.238281,110.115234 L217.521484,110.115234 L217.521484,111 Z M220.246094,106.207031 L221.060547,106.207031 C221.572268,106.199219 221.974608,106.064454 222.267578,105.802734 C222.560548,105.541014 222.707031,105.187502 222.707031,104.742188 C222.707031,103.742182 222.208989,103.242188 221.212891,103.242188 C220.744138,103.242188 220.370119,103.375975 220.09082,103.643555 C219.811522,103.911134 219.671875,104.265623 219.671875,104.707031 L218.587891,104.707031 C218.587891,104.031247 218.834958,103.469729 219.329102,103.022461 C219.823245,102.575193 220.451168,102.351562 221.212891,102.351562 C222.017582,102.351562 222.648435,102.564451 223.105469,102.990234 C223.562502,103.416018 223.791016,104.007809 223.791016,104.765625 C223.791016,105.136721 223.6709,105.496092 223.430664,105.84375 C223.190428,106.191408 222.863283,106.451171 222.449219,106.623047 C222.917971,106.771485 223.280272,107.017576 223.536133,107.361328 C223.791993,107.70508 223.919922,108.124998 223.919922,108.621094 C223.919922,109.386723 223.669924,109.994138 223.169922,110.443359 C222.669919,110.89258 222.019535,111.117188 221.21875,111.117188 C220.417965,111.117188 219.766604,110.900393 219.264648,110.466797 C218.762693,110.033201 218.511719,109.460941 218.511719,108.75 L219.601562,108.75 C219.601562,109.199221 219.748045,109.558592 220.041016,109.828125 C220.333986,110.097658 220.72656,110.232422 221.21875,110.232422 C221.74219,110.232422 222.142577,110.095704 222.419922,109.822266 C222.697267,109.548827 222.835938,109.156253 222.835938,108.644531 C222.835938,108.148435 222.683595,107.767579 222.378906,107.501953 C222.074217,107.236327 221.634768,107.099609 221.060547,107.091797 L220.246094,107.091797 L220.246094,106.207031 Z M229.984375,108.134766 L231.167969,108.134766 L231.167969,109.019531 L229.984375,109.019531 L229.984375,111 L228.894531,111 L228.894531,109.019531 L225.009766,109.019531 L225.009766,108.380859 L228.830078,102.46875 L229.984375,102.46875 L229.984375,108.134766 Z M226.240234,108.134766 L228.894531,108.134766 L228.894531,103.951172 L228.765625,104.185547 L226.240234,108.134766 Z M232,107.777344 C232,106.789058 232.228513,106.002933 232.685547,105.418945 C233.14258,104.834958 233.748043,104.542969 234.501953,104.542969 C235.275394,104.542969 235.878904,104.816404 236.3125,105.363281 L236.365234,104.660156 L237.355469,104.660156 L237.355469,110.847656 C237.355469,111.667973 237.112307,112.314451 236.625977,112.787109 C236.139646,113.259768 235.486332,113.496094 234.666016,113.496094 C234.208982,113.496094 233.761721,113.398438 233.324219,113.203125 C232.886717,113.007812 232.552736,112.740236 232.322266,112.400391 L232.884766,111.75 C233.349612,112.324222 233.917965,112.611328 234.589844,112.611328 C235.11719,112.611328 235.528319,112.462892 235.823242,112.166016 C236.118166,111.869139 236.265625,111.451175 236.265625,110.912109 L236.265625,110.367188 C235.832029,110.86719 235.240238,111.117188 234.490234,111.117188 C233.748043,111.117188 233.147463,110.818362 232.688477,110.220703 C232.22949,109.623044 232,108.808599 232,107.777344 Z M233.089844,107.900391 C233.089844,108.615238 233.236327,109.176756 233.529297,109.584961 C233.822267,109.993166 234.232419,110.197266 234.759766,110.197266 C235.443363,110.197266 235.945311,109.886722 236.265625,109.265625 L236.265625,106.371094 C235.933592,105.765622 235.43555,105.462891 234.771484,105.462891 C234.244138,105.462891 233.832033,105.667967 233.535156,106.078125 C233.23828,106.488283 233.089844,107.095699 233.089844,107.900391 Z M239.523438,111 L239.523438,105.498047 L238.521484,105.498047 L238.521484,104.660156 L239.523438,104.660156 L239.523438,104.009766 C239.523438,103.330075 239.705076,102.804689 240.068359,102.433594 C240.431642,102.062498 240.945309,101.876953 241.609375,101.876953 C241.859376,101.876953 242.107421,101.910156 242.353516,101.976562 L242.294922,102.855469 C242.111327,102.820312 241.916017,102.802734 241.708984,102.802734 C241.35742,102.802734 241.085938,102.905272 240.894531,103.110352 C240.703124,103.315431 240.607422,103.609373 240.607422,103.992188 L240.607422,104.660156 L241.960938,104.660156 L241.960938,105.498047 L240.607422,105.498047 L240.607422,111 L239.523438,111 Z M248.634766,111 L243.044922,111 L243.044922,110.220703 L245.998047,106.939453 C246.435549,106.443357 246.737304,106.040041 246.90332,105.729492 C247.069337,105.418944 247.152344,105.097658 247.152344,104.765625 C247.152344,104.32031 247.017579,103.95508 246.748047,103.669922 C246.478514,103.384764 246.119143,103.242188 245.669922,103.242188 C245.130857,103.242188 244.711916,103.395506 244.413086,103.702148 C244.114256,104.008791 243.964844,104.435544 243.964844,104.982422 L242.880859,104.982422 C242.880859,104.197262 243.133787,103.562502 243.639648,103.078125 C244.14551,102.593748 244.822261,102.351562 245.669922,102.351562 C246.462895,102.351562 247.089841,102.559568 247.550781,102.975586 C248.011721,103.391604 248.242188,103.945309 248.242188,104.636719 C248.242188,105.476567 247.707037,106.476557 246.636719,107.636719 L244.351562,110.115234 L248.634766,110.115234 L248.634766,111 Z M251.359375,106.207031 L252.173828,106.207031 C252.685549,106.199219 253.087889,106.064454 253.380859,105.802734 C253.67383,105.541014 253.820312,105.187502 253.820312,104.742188 C253.820312,103.742182 253.322271,103.242188 252.326172,103.242188 C251.85742,103.242188 251.4834,103.375975 251.204102,103.643555 C250.924803,103.911134 250.785156,104.265623 250.785156,104.707031 L249.701172,104.707031 C249.701172,104.031247 249.94824,103.469729 250.442383,103.022461 C250.936526,102.575193 251.564449,102.351562 252.326172,102.351562 C253.130863,102.351562 253.761716,102.564451 254.21875,102.990234 C254.675784,103.416018 254.904297,104.007809 254.904297,104.765625 C254.904297,105.136721 254.784181,105.496092 254.543945,105.84375 C254.30371,106.191408 253.976565,106.451171 253.5625,106.623047 C254.031252,106.771485 254.393553,107.017576 254.649414,107.361328 C254.905275,107.70508 255.033203,108.124998 255.033203,108.621094 C255.033203,109.386723 254.783206,109.994138 254.283203,110.443359 C253.783201,110.89258 253.132817,111.117188 252.332031,111.117188 C251.531246,111.117188 250.879885,110.900393 250.37793,110.466797 C249.875974,110.033201 249.625,109.460941 249.625,108.75 L250.714844,108.75 C250.714844,109.199221 250.861327,109.558592 251.154297,109.828125 C251.447267,110.097658 251.839841,110.232422 252.332031,110.232422 C252.855471,110.232422 253.255858,110.095704 253.533203,109.822266 C253.810548,109.548827 253.949219,109.156253 253.949219,108.644531 C253.949219,108.148435 253.796877,107.767579 253.492188,107.501953 C253.187498,107.236327 252.74805,107.099609 252.173828,107.091797 L251.359375,107.091797 L251.359375,106.207031 Z M261.097656,108.134766 L262.28125,108.134766 L262.28125,109.019531 L261.097656,109.019531 L261.097656,111 L260.007812,111 L260.007812,109.019531 L256.123047,109.019531 L256.123047,108.380859 L259.943359,102.46875 L261.097656,102.46875 L261.097656,108.134766 Z M257.353516,108.134766 L260.007812,108.134766 L260.007812,103.951172 L259.878906,104.185547 L257.353516,108.134766 Z M264.835938,106.207031 L265.650391,106.207031 C266.162112,106.199219 266.564452,106.064454 266.857422,105.802734 C267.150392,105.541014 267.296875,105.187502 267.296875,104.742188 C267.296875,103.742182 266.798833,103.242188 265.802734,103.242188 C265.333982,103.242188 264.959962,103.375975 264.680664,103.643555 C264.401366,103.911134 264.261719,104.265623 264.261719,104.707031 L263.177734,104.707031 C263.177734,104.031247 263.424802,103.469729 263.918945,103.022461 C264.413088,102.575193 265.041012,102.351562 265.802734,102.351562 C266.607426,102.351562 267.238279,102.564451 267.695312,102.990234 C268.152346,103.416018 268.380859,104.007809 268.380859,104.765625 C268.380859,105.136721 268.260743,105.496092 268.020508,105.84375 C267.780272,106.191408 267.453127,106.451171 267.039062,106.623047 C267.507815,106.771485 267.870116,107.017576 268.125977,107.361328 C268.381837,107.70508 268.509766,108.124998 268.509766,108.621094 C268.509766,109.386723 268.259768,109.994138 267.759766,110.443359 C267.259763,110.89258 266.609379,111.117188 265.808594,111.117188 C265.007808,111.117188 264.356448,110.900393 263.854492,110.466797 C263.352537,110.033201 263.101562,109.460941 263.101562,108.75 L264.191406,108.75 C264.191406,109.199221 264.337889,109.558592 264.630859,109.828125 C264.92383,110.097658 265.316404,110.232422 265.808594,110.232422 C266.332034,110.232422 266.73242,110.095704 267.009766,109.822266 C267.287111,109.548827 267.425781,109.156253 267.425781,108.644531 C267.425781,108.148435 267.273439,107.767579 266.96875,107.501953 C266.664061,107.236327 266.224612,107.099609 265.650391,107.091797 L264.835938,107.091797 L264.835938,106.207031 Z M275.587891,111 L269.998047,111 L269.998047,110.220703 L272.951172,106.939453 C273.388674,106.443357 273.690429,106.040041 273.856445,105.729492 C274.022462,105.418944 274.105469,105.097658 274.105469,104.765625 C274.105469,104.32031 273.970704,103.95508 273.701172,103.669922 C273.431639,103.384764 273.072268,103.242188 272.623047,103.242188 C272.083982,103.242188 271.665041,103.395506 271.366211,103.702148 C271.067381,104.008791 270.917969,104.435544 270.917969,104.982422 L269.833984,104.982422 C269.833984,104.197262 270.086912,103.562502 270.592773,103.078125 C271.098635,102.593748 271.775386,102.351562 272.623047,102.351562 C273.41602,102.351562 274.042966,102.559568 274.503906,102.975586 C274.964846,103.391604 275.195312,103.945309 275.195312,104.636719 C275.195312,105.476567 274.660162,106.476557 273.589844,107.636719 L271.304688,110.115234 L275.587891,110.115234 L275.587891,111 Z M276.583984,107.777344 C276.583984,106.804683 276.814451,106.022464 277.275391,105.430664 C277.73633,104.838864 278.33984,104.542969 279.085938,104.542969 C279.828129,104.542969 280.416013,104.796872 280.849609,105.304688 L280.849609,102 L281.933594,102 L281.933594,111 L280.9375,111 L280.884766,110.320312 C280.45117,110.851565 279.84766,111.117188 279.074219,111.117188 C278.33984,111.117188 277.741213,110.816409 277.27832,110.214844 C276.815427,109.613278 276.583984,108.82813 276.583984,107.859375 L276.583984,107.777344 Z M277.667969,107.900391 C277.667969,108.619144 277.816405,109.181639 278.113281,109.587891 C278.410158,109.994143 278.82031,110.197266 279.34375,110.197266 C280.031253,110.197266 280.533202,109.888675 280.849609,109.271484 L280.849609,106.359375 C280.525389,105.761716 280.027347,105.462891 279.355469,105.462891 C278.824216,105.462891 278.410158,105.667967 278.113281,106.078125 C277.816405,106.488283 277.667969,107.095699 277.667969,107.900391 Z M283.357422,107.777344 C283.357422,106.789058 283.585935,106.002933 284.042969,105.418945 C284.500002,104.834958 285.105465,104.542969 285.859375,104.542969 C286.632816,104.542969 287.236326,104.816404 287.669922,105.363281 L287.722656,104.660156 L288.712891,104.660156 L288.712891,110.847656 C288.712891,111.667973 288.469729,112.314451 287.983398,112.787109 C287.497068,113.259768 286.843754,113.496094 286.023438,113.496094 C285.566404,113.496094 285.119143,113.398438 284.681641,113.203125 C284.244138,113.007812 283.910157,112.740236 283.679688,112.400391 L284.242188,111.75 C284.707034,112.324222 285.275387,112.611328 285.947266,112.611328 C286.474612,112.611328 286.885741,112.462892 287.180664,112.166016 C287.475587,111.869139 287.623047,111.451175 287.623047,110.912109 L287.623047,110.367188 C287.189451,110.86719 286.59766,111.117188 285.847656,111.117188 C285.105465,111.117188 284.504885,110.818362 284.045898,110.220703 C283.586912,109.623044 283.357422,108.808599 283.357422,107.777344 Z M284.447266,107.900391 C284.447266,108.615238 284.593749,109.176756 284.886719,109.584961 C285.179689,109.993166 285.589841,110.197266 286.117188,110.197266 C286.800785,110.197266 287.302733,109.886722 287.623047,109.265625 L287.623047,106.371094 C287.291014,105.765622 286.792972,105.462891 286.128906,105.462891 C285.60156,105.462891 285.189455,105.667967 284.892578,106.078125 C284.595702,106.488283 284.447266,107.095699 284.447266,107.900391 Z M290.089844,107.777344 C290.089844,106.789058 290.318357,106.002933 290.775391,105.418945 C291.232424,104.834958 291.837887,104.542969 292.591797,104.542969 C293.365238,104.542969 293.968748,104.816404 294.402344,105.363281 L294.455078,104.660156 L295.445312,104.660156 L295.445312,110.847656 C295.445312,111.667973 295.202151,112.314451 294.71582,112.787109 C294.22949,113.259768 293.576176,113.496094 292.755859,113.496094 C292.298826,113.496094 291.851565,113.398438 291.414062,113.203125 C290.97656,113.007812 290.642579,112.740236 290.412109,112.400391 L290.974609,111.75 C291.439455,112.324222 292.007809,112.611328 292.679688,112.611328 C293.207034,112.611328 293.618163,112.462892 293.913086,112.166016 C294.208009,111.869139 294.355469,111.451175 294.355469,110.912109 L294.355469,110.367188 C293.921873,110.86719 293.330082,111.117188 292.580078,111.117188 C291.837887,111.117188 291.237307,110.818362 290.77832,110.220703 C290.319334,109.623044 290.089844,108.808599 290.089844,107.777344 Z M291.179688,107.900391 C291.179688,108.615238 291.32617,109.176756 291.619141,109.584961 C291.912111,109.993166 292.322263,110.197266 292.849609,110.197266 C293.533207,110.197266 294.035155,109.886722 294.355469,109.265625 L294.355469,106.371094 C294.023436,105.765622 293.525394,105.462891 292.861328,105.462891 C292.333982,105.462891 291.921876,105.667967 291.625,106.078125 C291.328124,106.488283 291.179688,107.095699 291.179688,107.900391 Z M297.613281,111 L297.613281,105.498047 L296.611328,105.498047 L296.611328,104.660156 L297.613281,104.660156 L297.613281,104.009766 C297.613281,103.330075 297.79492,102.804689 298.158203,102.433594 C298.521486,102.062498 299.035153,101.876953 299.699219,101.876953 C299.94922,101.876953 300.197264,101.910156 300.443359,101.976562 L300.384766,102.855469 C300.201171,102.820312 300.00586,102.802734 299.798828,102.802734 C299.447264,102.802734 299.175782,102.905272 298.984375,103.110352 C298.792968,103.315431 298.697266,103.609373 298.697266,103.992188 L298.697266,104.660156 L300.050781,104.660156 L300.050781,105.498047 L298.697266,105.498047 L298.697266,111 L297.613281,111 Z M300.841797,107.777344 C300.841797,106.804683 301.072263,106.022464 301.533203,105.430664 C301.994143,104.838864 302.597653,104.542969 303.34375,104.542969 C304.085941,104.542969 304.673826,104.796872 305.107422,105.304688 L305.107422,102 L306.191406,102 L306.191406,111 L305.195312,111 L305.142578,110.320312 C304.708982,110.851565 304.105473,111.117188 303.332031,111.117188 C302.597653,111.117188 301.999026,110.816409 301.536133,110.214844 C301.07324,109.613278 300.841797,108.82813 300.841797,107.859375 L300.841797,107.777344 Z M301.925781,107.900391 C301.925781,108.619144 302.074217,109.181639 302.371094,109.587891 C302.66797,109.994143 303.078122,110.197266 303.601562,110.197266 C304.289066,110.197266 304.791014,109.888675 305.107422,109.271484 L305.107422,106.359375 C304.783202,105.761716 304.28516,105.462891 303.613281,105.462891 C303.082029,105.462891 302.66797,105.667967 302.371094,106.078125 C302.074217,106.488283 301.925781,107.095699 301.925781,107.900391 Z M309.337891,106.207031 L310.152344,106.207031 C310.664065,106.199219 311.066405,106.064454 311.359375,105.802734 C311.652345,105.541014 311.798828,105.187502 311.798828,104.742188 C311.798828,103.742182 311.300786,103.242188 310.304688,103.242188 C309.835935,103.242188 309.461915,103.375975 309.182617,103.643555 C308.903319,103.911134 308.763672,104.265623 308.763672,104.707031 L307.679688,104.707031 C307.679688,104.031247 307.926755,103.469729 308.420898,103.022461 C308.915042,102.575193 309.542965,102.351562 310.304688,102.351562 C311.109379,102.351562 311.740232,102.564451 312.197266,102.990234 C312.654299,103.416018 312.882812,104.007809 312.882812,104.765625 C312.882812,105.136721 312.762697,105.496092 312.522461,105.84375 C312.282225,106.191408 311.95508,106.451171 311.541016,106.623047 C312.009768,106.771485 312.372069,107.017576 312.62793,107.361328 C312.88379,107.70508 313.011719,108.124998 313.011719,108.621094 C313.011719,109.386723 312.761721,109.994138 312.261719,110.443359 C311.761716,110.89258 311.111332,111.117188 310.310547,111.117188 C309.509762,111.117188 308.858401,110.900393 308.356445,110.466797 C307.85449,110.033201 307.603516,109.460941 307.603516,108.75 L308.693359,108.75 C308.693359,109.199221 308.839842,109.558592 309.132812,109.828125 C309.425783,110.097658 309.818357,110.232422 310.310547,110.232422 C310.833987,110.232422 311.234374,110.095704 311.511719,109.822266 C311.789064,109.548827 311.927734,109.156253 311.927734,108.644531 C311.927734,108.148435 311.775392,107.767579 311.470703,107.501953 C311.166014,107.236327 310.726565,107.099609 310.152344,107.091797 L309.337891,107.091797 L309.337891,106.207031 Z M314.998047,106.722656 L315.431641,102.46875 L319.802734,102.46875 L319.802734,103.470703 L316.351562,103.470703 L316.09375,105.796875 C316.511721,105.55078 316.986325,105.427734 317.517578,105.427734 C318.294926,105.427734 318.912107,105.684568 319.369141,106.198242 C319.826174,106.711917 320.054688,107.406246 320.054688,108.28125 C320.054688,109.160161 319.817385,109.852537 319.342773,110.358398 C318.868162,110.86426 318.205082,111.117188 317.353516,111.117188 C316.599606,111.117188 315.984377,110.908205 315.507812,110.490234 C315.031248,110.072264 314.759766,109.494144 314.693359,108.755859 L315.71875,108.755859 C315.785157,109.244143 315.958983,109.612303 316.240234,109.860352 C316.521486,110.1084 316.892576,110.232422 317.353516,110.232422 C317.857424,110.232422 318.252928,110.060549 318.540039,109.716797 C318.82715,109.373045 318.970703,108.898441 318.970703,108.292969 C318.970703,107.722653 318.815431,107.26465 318.504883,106.918945 C318.194334,106.57324 317.781253,106.400391 317.265625,106.400391 C316.792966,106.400391 316.421876,106.503905 316.152344,106.710938 L315.865234,106.945312 L314.998047,106.722656 Z M326.828125,111 L321.238281,111 L321.238281,110.220703 L324.191406,106.939453 C324.628908,106.443357 324.930663,106.040041 325.09668,105.729492 C325.262696,105.418944 325.345703,105.097658 325.345703,104.765625 C325.345703,104.32031 325.210939,103.95508 324.941406,103.669922 C324.671874,103.384764 324.312502,103.242188 323.863281,103.242188 C323.324216,103.242188 322.905275,103.395506 322.606445,103.702148 C322.307616,104.008791 322.158203,104.435544 322.158203,104.982422 L321.074219,104.982422 C321.074219,104.197262 321.327146,103.562502 321.833008,103.078125 C322.33887,102.593748 323.015621,102.351562 323.863281,102.351562 C324.656254,102.351562 325.283201,102.559568 325.744141,102.975586 C326.20508,103.391604 326.435547,103.945309 326.435547,104.636719 C326.435547,105.476567 325.900396,106.476557 324.830078,107.636719 L322.544922,110.115234 L326.828125,110.115234 L326.828125,111 Z M333.566406,111 L327.976562,111 L327.976562,110.220703 L330.929688,106.939453 C331.36719,106.443357 331.668944,106.040041 331.834961,105.729492 C332.000977,105.418944 332.083984,105.097658 332.083984,104.765625 C332.083984,104.32031 331.94922,103.95508 331.679688,103.669922 C331.410155,103.384764 331.050783,103.242188 330.601562,103.242188 C330.062497,103.242188 329.643556,103.395506 329.344727,103.702148 C329.045897,104.008791 328.896484,104.435544 328.896484,104.982422 L327.8125,104.982422 C327.8125,104.197262 328.065427,103.562502 328.571289,103.078125 C329.077151,102.593748 329.753902,102.351562 330.601562,102.351562 C331.394535,102.351562 332.021482,102.559568 332.482422,102.975586 C332.943362,103.391604 333.173828,103.945309 333.173828,104.636719 C333.173828,105.476567 332.638677,106.476557 331.568359,107.636719 L329.283203,110.115234 L333.566406,110.115234 L333.566406,111 Z M340.304688,111 L334.714844,111 L334.714844,110.220703 L337.667969,106.939453 C338.105471,106.443357 338.407226,106.040041 338.573242,105.729492 C338.739259,105.418944 338.822266,105.097658 338.822266,104.765625 C338.822266,104.32031 338.687501,103.95508 338.417969,103.669922 C338.148436,103.384764 337.789065,103.242188 337.339844,103.242188 C336.800779,103.242188 336.381837,103.395506 336.083008,103.702148 C335.784178,104.008791 335.634766,104.435544 335.634766,104.982422 L334.550781,104.982422 C334.550781,104.197262 334.803708,103.562502 335.30957,103.078125 C335.815432,102.593748 336.492183,102.351562 337.339844,102.351562 C338.132816,102.351562 338.759763,102.559568 339.220703,102.975586 C339.681643,103.391604 339.912109,103.945309 339.912109,104.636719 C339.912109,105.476567 339.376958,106.476557 338.306641,107.636719 L336.021484,110.115234 L340.304688,110.115234 L340.304688,111 Z M341.951172,106.722656 L342.384766,102.46875 L346.755859,102.46875 L346.755859,103.470703 L343.304688,103.470703 L343.046875,105.796875 C343.464846,105.55078 343.93945,105.427734 344.470703,105.427734 C345.248051,105.427734 345.865232,105.684568 346.322266,106.198242 C346.779299,106.711917 347.007812,107.406246 347.007812,108.28125 C347.007812,109.160161 346.77051,109.852537 346.295898,110.358398 C345.821287,110.86426 345.158207,111.117188 344.306641,111.117188 C343.552731,111.117188 342.937502,110.908205 342.460938,110.490234 C341.984373,110.072264 341.712891,109.494144 341.646484,108.755859 L342.671875,108.755859 C342.738282,109.244143 342.912108,109.612303 343.193359,109.860352 C343.474611,110.1084 343.845701,110.232422 344.306641,110.232422 C344.810549,110.232422 345.206053,110.060549 345.493164,109.716797 C345.780275,109.373045 345.923828,108.898441 345.923828,108.292969 C345.923828,107.722653 345.768556,107.26465 345.458008,106.918945 C345.147459,106.57324 344.734378,106.400391 344.21875,106.400391 C343.746091,106.400391 343.375001,106.503905 343.105469,106.710938 L342.818359,106.945312 L341.951172,106.722656 Z" id="Токен-для-API-доступ" fill="#000000"></path>
                <path d="M365.819311,1.02731611 C374.434106,13.5950929 379.364044,28.6864432 379.364044,44.5613574 C379.364044,64.1992667 371.94827,82.8466105 358.444894,97.2560976 L361.364044,98.4714275 L351.364044,102.393405 L355.527187,92.5096841 L356.971154,96.2028878 C370.254745,82.1033072 377.553422,63.8188644 377.553422,44.5613574 C377.553422,28.7134989 372.51456,13.6441287 363.75557,1.20577064 C364.579352,1.13408716 364.801015,1.11536959 365.819311,1.02731611 Z" id="arrow" fill="#3DB162" transform="translate(365.364044, 51.710361) rotate(5.000000) translate(-365.364044, -51.710361) "></path>
                <rect id="shadow" fill="#F3F5F9" opacity="0.599999964" x="123" y="118" width="256" height="52"></rect>
                <rect id="select-token" stroke="#3DB162" stroke-width="2" x="134" y="97" width="224" height="18.755814" rx="2"></rect>
            </g>
        </g>
    </g>
</svg>