<?xml version="1.0" encoding="UTF-8"?>
<svg width="7px" height="13px" viewBox="0 0 7 13" version="1.1" xmlns="http://www.w3.org/2000/svg" xmlns:xlink="http://www.w3.org/1999/xlink">
    <!-- Generator: Sketch 52.6 (67491) - http://www.bohemiancoding.com/sketch -->
    <title>arrow-down</title>
    <desc>Created with Sketch.</desc>
    <g id="Page-1" stroke="none" stroke-width="1" fill="none" fill-rule="evenodd">
        <path d="M2.56800986,3.07065035 L1.46689258,4.14908961 C1.0533418,4.53295695 0.581599071,4.50502481 0.245637551,4.14908961 C-0.0926516383,3.79395246 -0.0709266443,3.19381058 0.245637551,2.86022108 C0.560649971,2.52663158 2.88845352,0.267350437 2.88845352,0.267350437 C3.05682222,0.089382833 3.27795163,-8.8817842e-16 3.49908103,-8.8817842e-16 C3.72021044,-8.8817842e-16 3.94133984,0.089382833 4.11126033,0.267350437 C4.11126033,0.267350437 6.4375121,2.52663158 6.7540763,2.86022108 C7.07141639,3.19381058 7.09236549,3.79395246 6.7540763,4.14908961 C6.4157871,4.50502481 5.94482027,4.53295695 5.53126949,4.14908961 L4.43015221,3.07065035 L4.43015221,11.8711574 C4.43015221,12.2568197 4.01329744,12.5694608 3.49908103,12.5694608 C2.98486462,12.5694608 2.56800986,12.2568197 2.56800986,11.8711574 L2.56800986,3.07065035 Z" id="arrow-down" fill="#D66464" transform="translate(3.500000, 6.284730) rotate(180.000000) translate(-3.500000, -6.284730) "></path>
    </g>
</svg>