<?xml version="1.0" encoding="UTF-8" standalone="no"?>
<svg
        xmlns:dc="http://purl.org/dc/elements/1.1/"
        xmlns:cc="http://creativecommons.org/ns#"
        xmlns:rdf="http://www.w3.org/1999/02/22-rdf-syntax-ns#"
        xmlns:svg="http://www.w3.org/2000/svg"
        xmlns="http://www.w3.org/2000/svg"
        xmlns:sodipodi="http://sodipodi.sourceforge.net/DTD/sodipodi-0.dtd"
        xmlns:inkscape="http://www.inkscape.org/namespaces/inkscape"
        width="231px"
        height="26px"
        viewBox="0 0 231 26"
        version="1.1"
        id="svg12"
        sodipodi:docname="logo.svg"
        inkscape:version="0.92.2 (unknown)">
    <metadata
            id="metadata18">
        <rdf:RDF>
            <cc:Work
                    rdf:about="">
                <dc:format>image/svg+xml</dc:format>
                <dc:type
                        rdf:resource="http://purl.org/dc/dcmitype/StillImage" />
            </cc:Work>
        </rdf:RDF>
    </metadata>
    <defs
            id="defs16" />
    <sodipodi:namedview
            pagecolor="#ffffff"
            bordercolor="#666666"
            borderopacity="1"
            objecttolerance="10"
            gridtolerance="10"
            guidetolerance="10"
            inkscape:pageopacity="0"
            inkscape:pageshadow="2"
            inkscape:window-width="1920"
            inkscape:window-height="1031"
            id="namedview14"
            showgrid="false"
            inkscape:zoom="9.9178613"
            inkscape:cx="194.03369"
            inkscape:cy="27.565561"
            inkscape:window-x="0"
            inkscape:window-y="0"
            inkscape:window-maximized="1"
            inkscape:current-layer="svg12" />
    <g
            fill="none"
            fill-rule="evenodd"
            id="g10">
        <path
                fill="#004683"
                d="M51.1995 1.825c-1.4228.552-2.5232 1.3214-3.3025 2.31-.778.9908-1.1684 2.134-1.1684 3.4266 0 2.5984 1.5632 4.6413 4.685 6.1286.9612.4576 2.195.9363 3.7077 1.426 1.5114.4944 2.5692.9687 3.169 1.4296.603.4598.9013 1.1.9013 1.9248 0 .727-.2786 1.2914-.8357 1.6922-.558.4008-1.315.6023-2.277.6023-1.499 0-2.585-.297-3.252-.89-.669-.593-1.002-1.516-1.002-2.766H46c0 1.54.4006 2.9 1.1994 4.083.8 1.181 1.9926 2.112 3.5777 2.79 1.582.68 3.351 1.02 5.304 1.02 2.77 0 4.95-.581 6.538-1.747C64.208 22.086 65 20.481 65 18.439c0-2.555-1.3-4.562-3.905-6.015-1.0693-.599-2.437-1.159-4.105-1.6766-1.6632-.52-2.828-1.0207-3.4912-1.5084-.663-.4865-.9922-1.0297-.9922-1.6298 0-.6835.3005-1.248.9014-1.691.602-.4443 1.4204-.667 2.4586-.667 1.0258 0 1.8408.2628 2.4416.787.5998.5245.9026 1.2615.9026 2.2134H65c0-1.4208-.3787-2.6888-1.1407-3.794-.761-1.107-1.829-1.9596-3.2024-2.5586C59.281 1.2994 57.729 1 55.997 1c-1.775 0-3.375.275-4.7978.825M72 1v24h15.969v-4.4518H77.5884V14.813h8.7895v-4.2848h-8.79V5.4667H88V1m7 0v24h5.6817v-8.4884h3.0726L107.9153 25H114v-.2482l-4.9185-9.6906c1.4125-.6806 2.449-1.5682 3.1132-2.6663.663-1.099.995-2.483.995-4.15 0-2.306-.788-4.09-2.3626-5.352C109.252 1.631 107.068 1 104.275 1H95zm5.6817 4.4507h3.5926c1.067 0 1.8763.2928 2.4267.8842.5515.589.826 1.402.826 2.437s-.2712 1.841-.8182 2.419c-.5447.58-1.3562.869-2.4345.869h-3.5926V5.45zM120 1v24h5.818v-8.144h3.7172c2.9366 0 5.2495-.7002 6.9363-2.1002C138.156 13.3558 139 11.4833 139 9.143c0-1.583-.3886-2.998-1.1703-4.2448-.7794-1.248-1.8782-2.2088-3.2975-2.8836C133.1106 1.3374 131.4768 1 129.632 1H120zm5.818 4.4667h3.881c1.049.0114 1.878.3523 2.4857 1.0214.6076.672.911 1.566.911 2.686 0 1.024-.294 1.815-.8856 2.376-.592.561-1.451.841-2.578.841h-3.814V5.467z"
                id="path2" />
        <path
                fill="#006EC2"
                d="M148.1957 1.825c-1.4226.552-2.522 1.3214-3.3 2.31-.7804.9908-1.1683 2.134-1.1683 3.4266 0 2.5984 1.5608 4.6413 4.6836 6.1286.96.4576 2.196.9363 3.7074 1.426 1.5113.4944 2.5668.9687 3.1688 1.4296.6008.4598.9024 1.1.9024 1.9248 0 .727-.2785 1.2914-.8356 1.6922-.5594.4008-1.3157.6023-2.2756.6023-1.501 0-2.583-.297-3.2528-.89-.6665-.593-1.0003-1.516-1.0003-2.766H143c0 1.54.4006 2.9 1.1994 4.083.801 1.181 1.9924 2.112 3.5762 2.79 1.5814.68 3.3494 1.02 5.3028 1.02 2.7694 0 4.9483-.581 6.5378-1.747C161.2058 22.086 162 20.481 162 18.439c0-2.555-1.303-4.5623-3.9054-6.015-1.0716-.599-2.4402-1.159-4.1046-1.6767-1.6667-.52-2.8315-1.0207-3.4922-1.5084-.662-.487-.9933-1.03-.9933-1.63 0-.684.2992-1.248.9012-1.691.6008-.445 1.4204-.667 2.4586-.667 1.0256 0 1.8382.263 2.4425.787.5985.524.9 1.261.9 2.213h5.791c0-1.421-.38-2.689-1.1408-3.794-.7608-1.107-1.829-1.96-3.2033-2.559S154.7267 1 152.9977 1c-1.7782 0-3.3793.275-4.802.825M166 1v4.4667h7.051V25h5.7676V5.4667H186V1m9.7594 0L187 25h6.1522l1.3783-4.4838h7.89L203.8158 25H210l-8.8267-24h-5.414zm2.7075 6.7246l2.576 8.325h-5.135l2.558-8.325zM211 1v4.4667h7.051V25h5.7676V5.4667H231V1"
                id="path4" />
        <path
                fill="#004683"
                d="M36.25 0H12.8828l.0012.0056c-.3986.0157-.7187.34-.7187.742 0 .213.0907.4028.234.5386l-.0034.0034 5.058 5.0248c.294.293.294.77.001 1.063l-8.323 8.275c-.214.2144-.162.5758.104.7195l1.035.561c.19.103.488.082.674-.029.257-.154.556-.244.877-.244.22 0 .428.045.621.122.108.044.232.03.319-.049l1.975-1.79c-.002-.037-.011-.073-.011-.111 0-.954.771-1.728 1.722-1.728.801 0 1.469.55 1.661 1.293l1.915.815c.059.024.124.014.178-.022.276-.193.61-.309.971-.309.171 0 .337.028.493.076.0583.019.121.005.1657-.037l3.308-3.231c.048-.046.0725-.115.0714-.181-.029-1.697 1.2213-1.8937 1.7127-1.91.746-.028 1.373.487 1.6046 1.162.0238.064.072.117.137.14l2.0955.718c.0795.028.1635.0057.226-.0493.3047-.276.7065-.4454 1.1487-.4454.157 0 .43.099.589-.074l4.158-4.248c.0723-.073.113-.172.113-.2766V.752C37 .3367 36.664 0 36.25 0"
                id="path6" />
        <path
                fill="#006EC2"
                d="M36.9876 10.2534c0-.2262-.2743-.3393-.4323-.1764l-2.6816 2.7377c-.0587.0588-.0813.1437-.0677.2263.0688.4502-.0226.9536-.6197 1.508-.3148.293-.7155.4944-1.1455.4842-.701-.0192-1.2912-.457-1.5485-1.0714-.027-.0644-.078-.1176-.1456-.1414l-2.2155-.7613c-.0768-.026-.159-.006-.2235.046-.298.242-.676.389-1.089.389-.1875 0-.3647-.037-.534-.093 0 0-2.528 2.452-3.4265 3.338-.1095.11-.1106.118-.0858.339 0 .962-.7765 1.741-1.737 1.741-.8114 0-1.4886-.559-1.6793-1.312-.02-.077-.07-.142-.143-.174l-1.645-.699c-.083-.037-.177-.019-.25.037-.291.223-.652.359-1.045.359-.187 0-.368-.03-.537-.087-.1-.033-.21-.016-.289.054l-2.002 1.814c-.068.061-.104.146-.114.237-.088.878-.824 1.564-1.724 1.564-.697 0-1.292-.414-1.568-1.009-.072-.156-.205-.274-.354-.356l-2.254-1.22c-.177-.096-.395-.063-.537.078L.223 24.71l-.0024.0023-.009.009.0024.001c-.131.136-.2133.319-.2133.523C0 25.6617.3363 26 .754 26H22.63c.4188 0 1.0045-.241 1.3025-.5362l.429-.4265.0123-.0125 5.134-5.0987c.297-.294.781-.294 1.078 0l5.1195 5.088c.1377.142.3273.231.5406.231.415 0 .754-.337.754-.753l-.013-14.237z"
                id="path8"
                style="fill:#006ec2;fill-opacity:1" />
    </g>
    <path
            style="fill:#ffffff;fill-opacity:1;stroke-width:0.10082819"
            d="m 0.26979455,25.738713 c -0.48002554,-0.480026 -0.44500511,-0.525483 3.22426305,-4.185099 1.8842556,-1.879299 3.4952132,-3.455686 3.5799056,-3.503082 0.1080557,-0.06047 0.5372879,0.122275 1.4390408,0.612675 0.9978285,0.542648 1.3526636,0.792412 1.587539,1.117447 0.529153,0.732275 1.162111,0.995014 1.930833,0.801482 0.612607,-0.154229 1.027409,-0.549503 1.241373,-1.182937 0.159296,-0.471585 0.318593,-0.664148 1.22778,-1.48417 l 1.044736,-0.942278 0.521224,0.0603 c 0.415262,0.04804 0.613853,0.01545 0.97686,-0.160274 l 0.455637,-0.22057 0.875618,0.376161 c 0.73543,0.315938 0.897333,0.428134 1.011253,0.700786 0.200033,0.478746 0.701404,0.931514 1.171754,1.058166 1.079738,0.290744 2.065776,-0.410772 2.25684,-1.605627 0.06266,-0.391822 0.212071,-0.565811 1.769727,-2.060777 1.660405,-1.593582 1.710695,-1.632036 2.092492,-1.600034 0.245562,0.02058 0.587245,-0.05155 0.917799,-0.193747 l 0.526598,-0.226537 1.122971,0.389049 c 0.617634,0.213976 1.139561,0.430334 1.159837,0.480795 0.100306,0.249621 0.703313,0.823722 0.991809,0.944263 1.085656,0.453616 2.449898,-0.458757 2.449898,-1.638433 0,-0.374885 0.07594,-0.471567 1.439954,-1.833144 1.132258,-1.130237 1.466213,-1.411127 1.562837,-1.314503 0.09434,0.09434 0.122882,1.801899 0.122882,7.351176 0,6.737431 -0.01198,7.242454 -0.176449,7.43682 -0.09705,0.11469 -0.303292,0.238587 -0.458321,0.275324 -0.26191,0.06207 -0.454717,-0.10399 -2.722362,-2.344647 -3.300198,-3.260923 -3.181155,-3.156358 -3.594548,-3.157398 -0.321074,-8.07e-4 -0.573528,0.224392 -3.32743,2.968211 -1.964141,1.956951 -3.10775,3.022465 -3.354763,3.125674 -0.331212,0.138389 -1.681747,0.156588 -11.620349,0.156588 -11.11114449,0 -11.24799282,-0.0024 -11.44723845,-0.201656 z"
            id="path20"
            inkscape:connector-curvature="0" />
    <path
            style="fill:#ffffff;fill-opacity:1;stroke-width:0.10082819"
            d="M 9.747195,16.586344 C 9.3388433,16.349217 9.0814004,16.130937 9.0634145,16.006582 9.042258,15.860306 10.191362,14.653179 13.37382,11.47853 c 3.809815,-3.8004682 4.339251,-4.3658516 4.339251,-4.6338725 0,-0.2645601 -0.361174,-0.6688524 -2.7085,-3.031852 -1.489676,-1.4996219 -2.737103,-2.8088616 -2.772062,-2.90942156 -0.089,-0.25600493 0.184073,-0.7372525 0.460322,-0.81125312 0.126996,-0.03401915 5.530225,-0.06247254 12.007175,-0.06322977 l 11.776275,-0.0013768 0.247487,0.24748738 0.247487,0.24748736 -0.002,3.05463581 -0.002,3.0546359 -2.190993,2.2383847 -2.190995,2.2383846 -0.582885,0.0388 c -0.382098,0.02544 -0.679574,0.11029 -0.863577,0.246328 l -0.280691,0.207525 -1.098387,-0.378035 C 28.757781,10.878332 28.639584,10.810642 28.414052,10.452528 28.10807,9.9666717 27.872062,9.7881785 27.351501,9.6489195 26.288807,9.3646306 25.337571,10.007514 25.208509,11.097239 l -0.06281,0.530311 -1.68428,1.640206 -1.684278,1.640206 -0.425297,-0.04056 c -0.248676,-0.02372 -0.607127,0.02888 -0.863138,0.126654 l -0.43784,0.167213 -0.925403,-0.378482 c -0.80863,-0.330723 -0.949412,-0.425544 -1.115672,-0.75144 -0.482019,-0.944835 -1.660051,-1.24833 -2.541026,-0.654641 -0.382242,0.257593 -0.776543,0.908824 -0.778884,1.28641 -0.0013,0.210312 -0.21753,0.46181 -1.010329,1.175135 l -1.00867,0.907558 -0.598354,-0.05426 c -0.424992,-0.03854 -0.717602,-0.0065 -1.009934,0.110425 -0.553529,0.221479 -0.566251,0.219393 -1.315402,-0.215634 z"
            id="path22"
            inkscape:connector-curvature="0" />
    <path
            style="fill:#ffffff;fill-opacity:1;stroke-width:0.10082819"
            d="M 53.557493,24.735638 C 51.179696,24.311271 49.002762,23.230295 47.813333,21.883325 46.876921,20.822884 46.23291,19.331692 46.091482,17.89642 l -0.07175,-0.728104 H 48.892 51.764268 l 0.06328,0.630177 c 0.09329,0.929061 0.585148,1.848465 1.214119,2.269512 0.789495,0.528505 1.437293,0.678159 2.935697,0.678205 1.161452,3.5e-5 1.370971,-0.02709 1.839272,-0.238144 1.008836,-0.454656 1.528411,-1.338935 1.391802,-2.368745 -0.189545,-1.428862 -0.966246,-1.988845 -4.414836,-3.182988 -3.307651,-1.145341 -4.837321,-1.945016 -6.156256,-3.218341 -1.520543,-1.467959 -2.146299,-3.3539122 -1.744419,-5.2574636 0.251135,-1.189535 0.675666,-1.9468776 1.613193,-2.8778649 0.678521,-0.6737878 0.995581,-0.8996759 1.87528,-1.3360373 3.098926,-1.53717596 7.42964,-1.62996451 10.458863,-0.2240885 2.320964,1.0771699 3.887543,3.1803875 4.037872,5.4210655 l 0.04904,0.7310044 h -2.836448 -2.83645 V 7.9608375 c 0,-0.4760146 -0.308644,-1.2495509 -0.664419,-1.6651941 -0.723425,-0.8451599 -2.085153,-1.246699 -3.489149,-1.0288617 -1.638761,0.2542625 -2.60192,1.0976619 -2.60192,2.2783949 0,1.3367974 0.937486,2.0178198 4.437422,3.2234954 3.529809,1.215965 4.708471,1.838432 6.103919,3.223556 0.981528,0.974267 1.402989,1.67166 1.708261,2.82667 0.192362,0.727813 0.215688,2.423721 0.04298,3.125026 -0.654424,2.657401 -3.083251,4.434606 -6.676299,4.885136 -1.251292,0.156899 -3.402028,0.112813 -4.557589,-0.09342 z"
            id="path24"
            inkscape:connector-curvature="0" />
    <path
            style="fill:#ffffff;fill-opacity:1;stroke-width:0.10082819"
            d="M 72.059465,12.983947 V 1.0358062 h 7.965427 7.965427 v 2.1668986 2.1668987 l -5.217859,0.026114 -5.217858,0.026115 V 7.9929512 10.56407 l 4.411233,0.02627 4.411233,0.02627 v 2.065918 2.065918 h -4.43644 -4.43644 v 2.924017 2.924018 h 5.192651 5.192652 v 2.167806 2.167806 h -7.915013 -7.915013 z"
            id="path26"
            inkscape:connector-curvature="0" />
    <path
            style="fill:#ffffff;fill-opacity:1;stroke-width:0.10082819"
            d="M 95.022771,12.983947 V 1.0358062 h 4.994969 c 6.46969,0 7.47681,0.1130951 9.37305,1.0525564 2.20534,1.0926015 3.35471,2.6840348 3.68187,5.0979631 0.21477,1.5846667 -0.07,3.4662413 -0.7287,4.8139273 -0.43165,0.883205 -1.58384,2.061997 -2.57881,2.638333 l -0.73474,0.425602 2.47403,4.872593 c 1.36072,2.679927 2.47403,4.900869 2.47403,4.935428 0,0.03456 -1.36695,0.05083 -3.03767,0.03615 l -3.03767,-0.02669 -2.04609,-4.18437 -2.04609,-4.18437 -1.5709,-0.02777 -1.5709,-0.02777 v 4.237345 4.237344 h -2.82319 -2.823189 z m 10.093289,-0.959855 c 1.61773,-0.306794 2.40941,-1.385074 2.40941,-3.2816513 0,-1.0460672 -0.21781,-1.7340061 -0.73503,-2.321604 -0.77358,-0.8788284 -1.46023,-1.0494184 -4.22407,-1.0494184 h -1.89722 v 3.3777443 3.3777444 h 1.95239 c 1.07381,0 2.19635,-0.04627 2.49452,-0.102815 z"
            id="path28"
            inkscape:connector-curvature="0" />
    <path
            style="fill:#ffffff;fill-opacity:1;stroke-width:0.10082819"
            d="M 120.02816,12.983947 V 1.0358062 l 5.16745,2.84e-4 c 3.14885,1.734e-4 5.52193,0.043725 6.07489,0.1114896 2.42881,0.2976428 4.65997,1.4125846 5.906,2.9513113 1.71872,2.1224647 2.24471,5.1331174 1.337,7.6527359 -0.76009,2.109851 -2.62242,3.78665 -5.02478,4.524195 -1.19084,0.365599 -1.77817,0.426002 -4.68851,0.48218 l -2.97443,0.05742 -0.0263,4.058334 -0.0264,4.058335 h -2.87246 -2.87246 z m 11.21154,-0.795305 c 0.26034,-0.09774 0.67372,-0.354081 0.91861,-0.56965 1.44212,-1.2694 1.24191,-4.3600596 -0.35868,-5.5371504 -0.78559,-0.577723 -1.19676,-0.6504622 -3.70521,-0.6554754 l -2.26864,-0.00453 -0.0265,3.5115502 -0.0265,3.5115506 2.49681,-0.03929 c 2.07079,-0.03259 2.57758,-0.06961 2.97015,-0.216999 z"
            id="path30"
            inkscape:connector-curvature="0" />
    <path
            style="fill:#ffffff;fill-opacity:1;stroke-width:0.10082819"
            d="m 150.78076,24.79047 c -2.69129,-0.478419 -4.90377,-1.604659 -6.15925,-3.135299 -0.87553,-1.067416 -1.36696,-2.299304 -1.55864,-3.907092 l -0.0691,-0.579763 h 2.87361 2.8736 l 0.0722,0.57799 c 0.10989,0.879509 0.40146,1.545665 0.88272,2.01678 0.7824,0.765905 1.99249,1.099431 3.67048,1.011662 1.83801,-0.09614 2.85911,-0.932978 2.85911,-2.343163 0,-0.67799 -0.27023,-1.308682 -0.75034,-1.751236 -0.56199,-0.518027 -1.53265,-0.974165 -3.58527,-1.684818 -5.01045,-1.734704 -7.09191,-3.26542 -7.87158,-5.7888057 -0.23446,-0.7588 -0.27548,-2.2080502 -0.0845,-2.9860807 0.66374,-2.7043825 3.48528,-4.6414116 7.40154,-5.0812639 2.52825,-0.28395803 4.68677,0.044505 6.69398,1.0186255 0.90258,0.4380355 1.16859,0.6293291 1.92171,1.381977 1.23329,1.2325136 1.76811,2.3355633 1.97572,4.0748623 l 0.0692,0.5797621 h -2.87117 -2.87118 l -0.0589,-0.4972451 c -0.12365,-1.0440585 -0.9345,-1.9856684 -1.97697,-2.2957858 -0.73027,-0.2172431 -2.09814,-0.2145749 -2.85049,0.00556 -1.50555,0.4405188 -2.26243,1.7677445 -1.68652,2.9574149 0.42959,0.8874068 1.45827,1.4563057 4.52822,2.5042604 4.72488,1.612884 6.71164,3.157853 7.52416,5.851049 0.24866,0.824216 0.24849,2.592413 -3.1e-4,3.422887 -0.57146,1.907323 -1.97857,3.316883 -4.07485,4.081928 -1.34836,0.492089 -2.13345,0.615193 -4.20518,0.65937 -1.31958,0.02814 -2.15107,-0.001 -2.67195,-0.09358 z"
            id="path32"
            inkscape:connector-curvature="0" />
    <path
            style="fill:#ffffff;fill-opacity:1;stroke-width:0.10082819"
            d="m 173.05713,15.17696 -0.0257,-9.7551276 -3.50378,-0.026514 -3.50377,-0.026514 V 3.2023057 1.0358062 h 9.98199 9.98199 v 2.1665325 2.1665324 l -3.60461,0.026481 -3.60461,0.026481 -0.0257,9.7551279 -0.0257,9.755127 h -2.82218 -2.82219 z"
            id="path34"
            inkscape:connector-curvature="0" />
    <path
            style="fill:#ffffff;fill-opacity:1;stroke-width:0.10082819"
            d="m 187.09696,24.897595 c 0,-0.01897 1.95102,-5.380113 4.33561,-11.913648 2.38459,-6.5335362 4.33561,-11.8954189 4.33561,-11.9152955 0,-0.019877 1.21276,-0.024055 2.69502,-0.00929 l 2.69503,0.026854 4.36019,11.8473115 c 2.3981,6.516022 4.36143,11.881342 4.36294,11.922934 0.002,0.04159 -1.35646,0.07562 -3.01774,0.07562 h -3.02051 l -0.41609,-1.335973 c -0.22885,-0.734786 -0.53707,-1.732302 -0.68493,-2.216704 l -0.26883,-0.880729 -3.99206,-0.0015 -3.99206,-0.0015 -0.51864,1.688872 c -0.28525,0.92888 -0.58907,1.927079 -0.67515,2.21822 l -0.15651,0.529348 h -3.02094 c -1.66152,0 -3.02094,-0.01552 -3.02094,-0.03449 z m 13.9838,-8.91401 c -0.0238,-0.04159 -0.60015,-1.890528 -1.28084,-4.108748 -0.6807,-2.2182207 -1.26807,-4.0678381 -1.30527,-4.1102615 -0.0372,-0.042423 -0.62639,1.7497977 -1.30933,3.9827135 -0.68293,2.232916 -1.26334,4.116563 -1.28979,4.185882 -0.0377,0.09884 0.52113,0.126035 2.59018,0.126035 1.45104,0 2.61882,-0.03403 2.59505,-0.07562 z"
            id="path36"
            inkscape:connector-curvature="0" />
    <path
            style="fill:#ffffff;fill-opacity:1;stroke-width:0.10082819"
            d="M 218.05121,15.151753 V 5.3714183 h -3.47857 -3.47857 V 3.2036122 1.0358062 h 9.93157 9.93158 v 2.1665161 2.1665163 l -3.55419,0.026497 -3.5542,0.026497 -0.0257,9.7551274 -0.0257,9.755127 h -2.8731 -2.8731 z"
            id="path38"
            inkscape:connector-curvature="0" />
</svg>
