<?xml version="1.0" encoding="UTF-8"?>
<svg width="18px" height="14px" viewBox="0 0 18 14" version="1.1" xmlns="http://www.w3.org/2000/svg" xmlns:xlink="http://www.w3.org/1999/xlink">
    <!-- Generator: Sketch 55.2 (78181) - https://sketchapp.com -->
    <title>Atoms / Icons / Add / a.icon.add.filter</title>
    <desc>Created with Sketch.</desc>
    <defs>
        <path d="M2.5,6.25 C1.80964406,6.25 1.25,5.69035594 1.25,5 C1.25,4.30964406 1.80964406,3.75 2.5,3.75 L17.5,3.75 C18.1903559,3.75 18.75,4.30964406 18.75,5 C18.75,5.69035594 18.1903559,6.25 17.5,6.25 L2.5,6.25 Z M2.5,11.25 C1.80964406,11.25 1.25,10.6903559 1.25,10 C1.25,9.30964406 1.80964406,8.75 2.5,8.75 L17.5,8.75 C18.1903559,8.75 18.75,9.30964406 18.75,10 C18.75,10.6903559 18.1903559,11.25 17.5,11.25 L2.5,11.25 Z M2.5,16.25 C1.80964406,16.25 1.25,15.6903559 1.25,15 C1.25,14.3096441 1.80964406,13.75 2.5,13.75 L17.5,13.75 C18.1903559,13.75 18.75,14.3096441 18.75,15 C18.75,15.6903559 18.1903559,16.25 17.5,16.25 L2.5,16.25 Z" id="path-1"></path>
    </defs>
    <g id="Symbols" stroke="none" stroke-width="1" fill="none" fill-rule="evenodd">
        <g id="Header-plugin" transform="translate(-771.000000, -11.000000)">
            <g id="Atoms-/-Icons-/-a.icon.view.short">
                <g transform="translate(770.000000, 8.000000)">
                    <mask id="mask-2" fill="white">
                        <use xlink:href="#path-1"></use>
                    </mask>
                    <use id="Mask" fill="#979797" fill-rule="nonzero" xlink:href="#path-1"></use>
                    <g id="Atoms-/-Colours-/Neutral/-a.colour.neutral.n300" mask="url(#mask-2)" fill="#FFFFFF" fill-rule="evenodd">
                        <rect id="#FFFFFF" x="0" y="0" width="20" height="20"></rect>
                    </g>
                </g>
            </g>
        </g>
    </g>
</svg>