<?xml version="1.0" encoding="UTF-8"?>
<svg width="16px" height="14px" viewBox="0 0 16 14" version="1.1" xmlns="http://www.w3.org/2000/svg" xmlns:xlink="http://www.w3.org/1999/xlink">
    <!-- Generator: Sketch 55.2 (78181) - https://sketchapp.com -->
    <title>Elements / Icons / Filter</title>
    <desc>Created with Sketch.</desc>
    <defs>
        <path d="M6.43966097,11.9839252 C3.98170322,11.2970767 2.04547289,11.2364724 0.810843536,11.258694 C0.366339298,11.2677846 0,10.8869877 0,10.409224 L0,1.29535021 C0,1.29535021 3.82160635,0.226694719 7,2.15492092 L7,11.528383 C7,11.8425152 6.7231266,12.0627108 6.43966097,11.9839252 Z M6.2589652,15 L0.740108509,15 C0.331613074,15 -1.99840144e-14,14.5525 -1.99840144e-14,14 C-1.99840144e-14,13.44875 0.331613074,13 0.740108509,13 L6.2589652,13 C6.66838693,13 7,13.44875 7,14 C7,14.5525 6.66838693,15 6.2589652,15 Z M9.56033903,11.9839252 C9.2768734,12.0627108 9,11.8425152 9,11.528383 L9,2.15492092 C12.1783936,0.226694719 16,1.29535021 16,1.29535021 L16,10.409224 C16,10.8869877 15.6336607,11.2677846 15.1891565,11.258694 C13.9545271,11.2364724 12.0182968,11.2970767 9.56033903,11.9839252 Z M15.2589652,15 L9.74010851,15 C9.33161307,15 9,14.5525 9,14 C9,13.44875 9.33161307,13 9.74010851,13 L15.2589652,13 C15.6683869,13 16,13.44875 16,14 C16,14.5525 15.6683869,15 15.2589652,15 Z" id="path-1"></path>
    </defs>
    <g id="Settings" stroke="none" stroke-width="1" fill="none" fill-rule="evenodd">
        <g id="Плагин---Настройки" transform="translate(-767.000000, -1468.000000)">
            <g id="Settings-for-clients" transform="translate(283.000000, 907.000000)">
                <g id="Settings" transform="translate(464.000000, 28.000000)">
                    <g id="Operations" transform="translate(0.000000, 435.000000)">
                        <g id="Atoms-/-Elements-/-Text-with-icon-/-a.text.icon-Copy" transform="translate(20.000000, 97.000000)">
                            <g id="Atoms-/-Icons-/-a.icon.community">
                                <mask id="mask-2" fill="white">
                                    <use xlink:href="#path-1"></use>
                                </mask>
                                <use id="Mask" fill="#006FC4" fill-rule="evenodd" xlink:href="#path-1"></use>
                                <g id="Atoms-/-Colours-/-Blue-/-a.colour.blue.b800" mask="url(#mask-2)" fill="#1B71BE" fill-rule="evenodd">
                                    <rect id="B-900" x="0" y="0" width="16" height="16"></rect>
                                </g>
                            </g>
                        </g>
                    </g>
                </g>
            </g>
        </g>
    </g>
</svg>