<?xml version="1.0" encoding="UTF-8"?>
<svg width="41px" height="41px" viewBox="0 0 41 41" version="1.1" xmlns="http://www.w3.org/2000/svg" xmlns:xlink="http://www.w3.org/1999/xlink">
    <!-- Generator: Sketch 48.2 (47327) - http://www.bohemiancoding.com/sketch -->
    <title>Combined Shape</title>
    <desc>Created with Sketch.</desc>
    <defs></defs>
    <g id="Plugin" stroke="none" stroke-width="1" fill="none" fill-rule="evenodd" transform="translate(-1030.000000, -1179.000000)">
        <g id="error" transform="translate(800.000000, 1104.000000)" fill="#CCD5E4">
            <path d="M250.5,116 C239.178163,116 230,106.821837 230,95.5 C230,84.1781626 239.178163,75 250.5,75 C261.821837,75 271,84.1781626 271,95.5 C271,106.821837 261.821837,116 250.5,116 Z M253.286359,95.4999453 L257.422795,91.363509 C258.192548,90.594194 258.192548,89.3463012 257.422795,88.5769862 C256.653918,87.8076713 255.405587,87.8076713 254.63671,88.5769862 L250.500274,92.7138604 L246.3634,88.5769862 C245.59496,87.8076713 244.346192,87.8076713 243.577315,88.5769862 C242.807562,89.3463012 242.807562,90.594194 243.577315,91.363509 L247.713751,95.4999453 L243.577315,99.6363815 C242.807562,100.405697 242.807562,101.653589 243.577315,102.422904 C243.961753,102.807343 244.466165,103 244.970576,103 C245.47455,103 245.979399,102.807343 246.3634,102.422904 L250.500274,98.2860302 L254.63671,102.422904 C255.021148,102.807343 255.52556,103 256.029971,103 C256.533945,103 257.038356,102.807343 257.422795,102.422904 C258.192548,101.653589 258.192548,100.405697 257.422795,99.6363815 L253.286359,95.4999453 Z" id="Combined-Shape" transform="translate(250.500000, 95.500000) rotate(90.000000) translate(-250.500000, -95.500000) "></path>
        </g>
    </g>
</svg>