<?xml version="1.0" encoding="UTF-8"?>
<svg width="16px" height="16px" viewBox="0 0 16 16" version="1.1" xmlns="http://www.w3.org/2000/svg" xmlns:xlink="http://www.w3.org/1999/xlink">
    <!-- Generator: sketchtool 55.1 (78136) - https://sketchapp.com -->
    <title>6F9F4B8C-391E-4C96-B990-D48CE03BA144@1.00x</title>
    <desc>Created with sketchtool.</desc>
    <defs>
        <path d="M16,8.08537832 C16,9.15714937 15.7881943,10.1808312 15.3645806,11.1564175 C14.9409699,12.1320039 14.3715265,12.9736212 13.6562511,13.6812633 C12.9409756,14.3889054 12.0902798,14.9522736 11.1041697,15.3713678 C10.1180596,15.7904578 9.08333537,16 8,16 C6.91667085,16 5.88194658,15.7904547 4.89583652,15.3713678 C3.90972646,14.9522773 3.0590306,14.3889116 2.34375516,13.6812633 C1.62847973,12.9736212 1.05903449,12.1320039 0.63541945,11.1564175 C0.211808765,10.1808312 1.46549439e-13,9.15714937 1.46549439e-13,8.08537832 C1.46549439e-13,6.83497775 0.279513998,5.6567172 0.83854386,4.55059054 C1.39757186,3.44446387 2.18403075,2.51697289 3.1979168,1.7681053 C3.49652804,1.54825456 3.82812203,1.46237535 4.19270686,1.51046768 C4.55729044,1.55856001 4.8472223,1.73031842 5.06249871,2.02574229 C5.28472099,2.31429627 5.36978995,2.63891965 5.31770685,2.9996112 C5.26562374,3.36030337 5.09374857,3.65057667 4.80208196,3.87042556 C4.12152651,4.37883028 3.59548749,5.00059685 3.22395866,5.73571851 C2.85243046,6.47084632 2.66666667,7.25406339 2.66666667,8.08536971 C2.66666667,8.79988784 2.80729198,9.48176782 3.08854197,10.1310097 C3.36979197,10.7802577 3.75000142,11.3419084 4.22916845,11.8159556 C4.70833486,12.290009 5.27604472,12.6661603 5.93228994,12.9444094 C6.58854139,13.2226579 7.27777683,13.3617819 8,13.3617819 C8.7222157,13.3617819 9.41145114,13.2226579 10.0677026,12.9444094 C10.723954,12.6661609 11.2916633,12.290009 11.7708303,11.8159556 C12.2499967,11.3419028 12.6302062,10.7802515 12.9114568,10.1310097 C13.1927068,9.48176167 13.3333315,8.79988168 13.3333315,8.08536971 C13.3333315,7.25405723 13.1475677,6.47084017 12.7760401,5.73571851 C12.4045125,5.0005907 11.8784722,4.37882843 11.1979168,3.87042556 C10.9062502,3.65057482 10.734375,3.36030337 10.6822919,2.9996112 C10.6302082,2.63891842 10.7152778,2.31429627 10.9375,2.02574229 C11.1527777,1.73031842 11.4444443,1.55856001 11.8124999,1.51046768 C12.1805555,1.46237535 12.5104153,1.54825456 12.802082,1.7681053 C13.815968,2.51697289 14.6024257,3.44446387 15.1614549,4.55059054 C15.7204829,5.6567172 16,6.83497775 16,8.08537832 L16,8.08537832 Z M9.33332556,1.31910628 L9.33332556,6.84796794 C9.33332556,7.20522516 9.20138087,7.51439066 8.93749211,7.77546507 C8.67360335,8.03653763 8.3611035,8.1670736 7.99999004,8.1670736 C7.63887908,8.1670736 7.3263786,8.03653763 7.06248798,7.77546507 C6.79859922,7.51439251 6.66665516,7.205227 6.66665516,6.84796794 L6.66665516,1.31910628 C6.66665516,0.961848445 6.79859922,0.652683555 7.06248798,0.391609148 C7.32637736,0.130536588 7.63887722,0 7.99999004,0 C8.36110101,0 8.67360149,0.130536588 8.93749211,0.391609148 C9.20138087,0.652681708 9.33332556,0.961846598 9.33332556,1.31910628 Z" id="path-1"></path>
    </defs>
    <g id="Icons" stroke="none" stroke-width="1" fill="none" fill-rule="evenodd">
        <g transform="translate(-233.000000, -1317.000000)" id="Atoms-/-Icons-/-a.icon.off">
            <g transform="translate(233.000000, 1317.000000)">
                <mask id="mask-2" fill="white">
                    <use xlink:href="#path-1"></use>
                </mask>
                <use id="Mask" fill="#CCD5E4" fill-rule="nonzero" xlink:href="#path-1"></use>
                <g id="Atoms-/-Colours-/-Blue-/-a.colour.blue.b800" mask="url(#mask-2)" fill="#1B71BE" fill-rule="evenodd">
                    <rect id="B-900" x="0" y="0" width="16" height="16"></rect>
                </g>
            </g>
        </g>
    </g>
</svg>