<?xml version="1.0" encoding="UTF-8"?>
<svg width="12px" height="13px" viewBox="0 0 12 13" version="1.1" xmlns="http://www.w3.org/2000/svg" xmlns:xlink="http://www.w3.org/1999/xlink">
    <!-- Generator: sketchtool 57.1 (101010) - https://sketch.com -->
    <title>0C5562AC-714E-453C-AE00-9A8B6C59E57D@1.00x</title>
    <desc>Created with sketchtool.</desc>
    <defs>
        <path d="M2.83134478,8.44529603 C3.49457317,8.44529603 4.03217612,9.00287411 4.03217612,9.69074535 L4.03217612,9.69074535 L4.03217612,11.6470588 C4.03217612,11.7811841 4.13840351,11.8923165 4.26864753,11.8923165 L4.26864753,11.8923165 L11.7313525,11.8923165 C11.8615965,11.8923165 11.9678239,11.7821422 11.9678239,11.6470588 L11.9678239,11.6470588 L11.9678239,9.69074535 C11.9678239,9.00287411 12.5054268,8.44529603 13.1686552,8.44529603 L13.1686552,8.44529603 L14,8.44529603 L14,11.6470588 C14,12.9461583 12.9848357,14 11.7313525,14 L11.7313525,14 L4.26772381,14 C3.01516434,14 2,12.9461583 2,11.6470588 L2,11.6470588 L2,8.44529603 Z M8.00009237,1 L11.9323532,5.07932554 L11.3448695,5.68863767 C10.8756216,6.17532094 10.115403,6.17532094 9.64615503,5.68863767 L9.64615503,5.68863767 L9.01618043,5.0352558 L9.01618043,9.32343361 C9.01618043,9.90592067 8.56078824,10.3782334 8.00009237,10.3782334 C7.43847279,10.3782334 6.98400431,9.90592067 6.98400431,9.32343361 L6.98400431,9.32343361 L6.98400431,5.0352558 L6.35402971,5.68863767 C5.88478177,6.17532094 5.12456316,6.17532094 4.65531522,5.68863767 L4.65531522,5.68863767 L4.06783158,5.07932554 L8.00009237,1 Z" id="path-1"></path>
    </defs>
    <g id="Icons" stroke="none" stroke-width="1" fill="none" fill-rule="evenodd">
        <g transform="translate(-235.000000, -1127.000000)" id="Atoms-/-Icons-/-a.icon.export">
            <g transform="translate(233.000000, 1126.000000)">
                <mask id="mask-2" fill="white">
                    <use xlink:href="#path-1"></use>
                </mask>
                <use id="icon-export" fill="#CCD5E4" fill-rule="evenodd" xlink:href="#path-1"></use>
                <g id="Atoms-/-Colours-/-Blue-/-a.colour.blue.b800" mask="url(#mask-2)" fill="#1B71BE" fill-rule="evenodd">
                    <rect id="B-900" x="0" y="0" width="16" height="16"></rect>
                </g>
            </g>
        </g>
    </g>
</svg>