<?xml version="1.0" encoding="UTF-8"?>
<svg width="16px" height="17px" viewBox="0 0 16 17" version="1.1" xmlns="http://www.w3.org/2000/svg" xmlns:xlink="http://www.w3.org/1999/xlink">
    <!-- Generator: Sketch 55.2 (78181) - https://sketchapp.com -->
    <title>support</title>
    <desc>Created with Sketch.</desc>
    <defs>
        <path d="M12.1608877,7.12247482 C11.4768136,7.12247482 10.9220286,6.5676898 10.9220286,5.88361575 C10.9220286,5.1995417 11.4768136,4.64572152 12.1608877,4.64572152 C12.8449617,4.64572152 13.3997467,5.1995417 13.3997467,5.88361575 C13.3997467,6.5676898 12.8449617,7.12247482 12.1608877,7.12247482 M8.07284569,7.12247482 C7.38877163,7.12247482 6.83398661,6.5676898 6.83398661,5.88361575 C6.83398661,5.1995417 7.38877163,4.64572152 8.07284569,4.64572152 C8.75691974,4.64572152 9.31170476,5.1995417 9.31170476,5.88361575 C9.31170476,6.5676898 8.75691974,7.12247482 8.07284569,7.12247482 M3.98480371,7.12247482 C3.30072966,7.12247482 2.74594464,6.5676898 2.74594464,5.88361575 C2.74594464,5.1995417 3.30072966,4.64572152 3.98480371,4.64572152 C4.66887777,4.64572152 5.22366279,5.1995417 5.22366279,5.88361575 C5.22366279,6.5676898 4.66887777,7.12247482 3.98480371,7.12247482 M14.3752035,0 L1.62479648,0 C0.72749201,0 0,0.72749201 0,1.62479648 L0,10.3498764 C0,11.246216 0.72749201,11.973708 1.62479648,11.973708 L5.88458059,11.973708 L12.5941024,16.1032383 L12.5941024,11.973708 L14.3752035,11.973708 C15.2734728,11.973708 16,11.246216 16,10.3498764 L16,1.62479648 C16,0.72749201 15.2734728,0 14.3752035,0" id="path-1"></path>
    </defs>
    <g id="Settings" stroke="none" stroke-width="1" fill="none" fill-rule="evenodd">
        <g id="Плагин---Настройки" transform="translate(-767.000000, -1387.000000)">
            <g id="Settings-for-clients" transform="translate(283.000000, 907.000000)">
                <g id="Settings" transform="translate(464.000000, 28.000000)">
                    <g id="Operations" transform="translate(0.000000, 435.000000)">
                        <g id="Atoms-/-Elements-/-Text-with-icon-/-a.text.icon-Copy-3" transform="translate(20.000000, 17.000000)">
                            <g id="support">
                                <mask id="mask-2" fill="white">
                                    <use xlink:href="#path-1"></use>
                                </mask>
                                <use id="Mask" fill="#006FC4" xlink:href="#path-1"></use>
                                <g id="Atoms-/-Colours-/-Blue-/-a.colour.blue.b800" mask="url(#mask-2)" fill="#1B71BE">
                                    <rect id="B-900" x="0" y="0" width="16" height="16"></rect>
                                </g>
                            </g>
                        </g>
                    </g>
                </g>
            </g>
        </g>
    </g>
</svg>