<svg width="16" height="16" viewBox="0 0 16 16" fill="none" xmlns="http://www.w3.org/2000/svg">
<g id="Atoms / Icons / Add users Copy 45">
<path id="Mask" fill-rule="evenodd" clip-rule="evenodd" d="M8.0483 5.26754C7.38655 5.25438 6.72176 5.48104 6.2219 5.99C5.43366 6.7914 5.30819 7.98944 5.81816 8.92946L5.03701 10.2135C3.73373 9.54872 2.79169 8.58745 2.29891 7.97123C3.25006 6.9452 5.48425 4.87089 7.99974 4.87089C8.09181 4.87089 8.18086 4.89315 8.27294 4.89922L8.0483 5.26754ZM11.3763 3.69106L12.7189 1.53799C13.0104 1.06039 12.8586 0.438095 12.381 0.147691C11.9034 -0.142713 11.2811 0.00805434 10.9907 0.486664L9.42443 3.00704C8.96404 2.90889 8.48948 2.84717 7.99973 2.84717C3.69224 2.84717 0.351081 7.11317 0.210433 7.29429C-0.0435444 7.62416 -0.0698527 8.07444 0.14365 8.43162C0.201326 8.53079 1.50663 10.6425 3.9786 11.9529L2.69556 14.0586C2.40516 14.5362 2.55694 15.1585 3.03352 15.4499C3.19846 15.5491 3.37958 15.5966 3.55868 15.5966C3.90069 15.5966 4.23359 15.4236 4.42382 15.1109L7.43512 10.166C8.25574 10.3562 9.15224 10.1376 9.78466 9.49408C10.3614 8.90922 10.581 8.11086 10.4636 7.355L9.13909 7.36614L10.3149 5.43449C11.8347 6.13065 13.0843 7.30846 13.7228 7.99652C13.0206 8.9416 11.3257 10.7417 8.50668 10.938C7.94914 10.9775 7.52821 11.4601 7.56767 12.0177C7.60511 12.5509 8.04932 12.9597 8.57548 12.9597C8.59977 12.9597 8.62304 12.9587 8.64733 12.9577C13.5407 12.6157 15.785 8.5662 15.8781 8.39419C16.0683 8.04206 16.0339 7.61101 15.789 7.29429C15.6889 7.16477 13.9404 4.94475 11.3763 3.69106Z" fill="#006FC4"/>
<mask id="mask0" mask-type="alpha" maskUnits="userSpaceOnUse" x="0" y="0" width="16" height="16">
<path id="Mask_2" fill-rule="evenodd" clip-rule="evenodd" d="M8.0483 5.26754C7.38655 5.25438 6.72176 5.48104 6.2219 5.99C5.43366 6.7914 5.30819 7.98944 5.81816 8.92946L5.03701 10.2135C3.73373 9.54872 2.79169 8.58745 2.29891 7.97123C3.25006 6.9452 5.48425 4.87089 7.99974 4.87089C8.09181 4.87089 8.18086 4.89315 8.27294 4.89922L8.0483 5.26754ZM11.3763 3.69106L12.7189 1.53799C13.0104 1.06039 12.8586 0.438095 12.381 0.147691C11.9034 -0.142713 11.2811 0.00805434 10.9907 0.486664L9.42443 3.00704C8.96404 2.90889 8.48948 2.84717 7.99973 2.84717C3.69224 2.84717 0.351081 7.11317 0.210433 7.29429C-0.0435444 7.62416 -0.0698527 8.07444 0.14365 8.43162C0.201326 8.53079 1.50663 10.6425 3.9786 11.9529L2.69556 14.0586C2.40516 14.5362 2.55694 15.1585 3.03352 15.4499C3.19846 15.5491 3.37958 15.5966 3.55868 15.5966C3.90069 15.5966 4.23359 15.4236 4.42382 15.1109L7.43512 10.166C8.25574 10.3562 9.15224 10.1376 9.78466 9.49408C10.3614 8.90922 10.581 8.11086 10.4636 7.355L9.13909 7.36614L10.3149 5.43449C11.8347 6.13065 13.0843 7.30846 13.7228 7.99652C13.0206 8.9416 11.3257 10.7417 8.50668 10.938C7.94914 10.9775 7.52821 11.4601 7.56767 12.0177C7.60511 12.5509 8.04932 12.9597 8.57548 12.9597C8.59977 12.9597 8.62304 12.9587 8.64733 12.9577C13.5407 12.6157 15.785 8.5662 15.8781 8.39419C16.0683 8.04206 16.0339 7.61101 15.789 7.29429C15.6889 7.16477 13.9404 4.94475 11.3763 3.69106Z" fill="white"/>
</mask>
<g mask="url(#mask0)">
<g id="Colour">
<rect id="B 900" width="16" height="16" fill="#1B71BE"/>
</g>
</g>
</g>
</svg>
