<svg width="16" height="16" viewBox="0 0 16 16" fill="none" xmlns="http://www.w3.org/2000/svg">
<rect x="3" y="3" width="10" height="10" fill="white"/>
<path fill-rule="evenodd" clip-rule="evenodd" d="M16 8C16 3.58172 12.4183 0 8 0C3.58172 0 0 3.58172 0 8C0 12.4183 3.58172 16 8 16C12.4183 16 16 12.4183 16 8ZM6.61075 10.8638C6.78933 11.0544 7.04128 11.2 7.30538 11.2H7.3081C7.57284 11.2 7.82541 11.0521 8.00357 10.8601L12.155 6.34495C12.5053 5.96708 12.4765 5.38302 12.0909 5.03985C11.7054 4.69689 11.1089 4.72502 10.7586 5.1031L7.3014 8.83336L5.63798 7.06126C5.28521 6.68544 4.68889 6.66511 4.30531 7.01033C3.92152 7.35576 3.89616 7.94968 4.24851 8.3255L6.61075 10.8638Z" fill="#72B155"/>
<mask id="mask0" mask-type="alpha" maskUnits="userSpaceOnUse" x="0" y="0" width="16" height="16">
<path fill-rule="evenodd" clip-rule="evenodd" d="M16 8C16 3.58172 12.4183 0 8 0C3.58172 0 0 3.58172 0 8C0 12.4183 3.58172 16 8 16C12.4183 16 16 12.4183 16 8ZM6.61075 10.8638C6.78933 11.0544 7.04128 11.2 7.30538 11.2H7.3081C7.57284 11.2 7.82541 11.0521 8.00357 10.8601L12.155 6.34495C12.5053 5.96708 12.4765 5.38302 12.0909 5.03985C11.7054 4.69689 11.1089 4.72502 10.7586 5.1031L7.3014 8.83336L5.63798 7.06126C5.28521 6.68544 4.68889 6.66511 4.30531 7.01033C3.92152 7.35576 3.89616 7.94968 4.24851 8.3255L6.61075 10.8638Z" fill="white"/>
</mask>
<g mask="url(#mask0)">
<rect width="16" height="16" fill="#72B155"/>
</g>
</svg>
