<svg width="16" height="16" viewBox="0 0 16 16" fill="none" xmlns="http://www.w3.org/2000/svg">
<path fill-rule="evenodd" clip-rule="evenodd" d="M8 0C3.58167 0 0 3.58167 0 8C0 12.4183 3.58167 16 8 16C12.4175 16 16 12.4183 16 7.99917C16 3.58167 12.4175 0 8 0ZM4.76794 4.76793C5.11757 4.4183 5.68445 4.4183 6.03409 4.76793L7.93332 6.66717L9.83255 4.76793C10.1822 4.4183 10.7491 4.4183 11.0987 4.76794C11.4483 5.11757 11.4483 5.68445 11.0987 6.03409L9.19947 7.93332L11.0987 9.83255C11.4483 10.1822 11.4483 10.7491 11.0987 11.0987C10.7491 11.4483 10.1822 11.4483 9.83255 11.0987L7.93332 9.19947L6.03409 11.0987C5.68445 11.4483 5.11757 11.4483 4.76794 11.0987C4.4183 10.7491 4.4183 10.1822 4.76794 9.83255L6.66717 7.93332L4.76793 6.03409C4.4183 5.68445 4.4183 5.11757 4.76794 4.76793Z" fill="#CCD5E4"/>
<mask id="mask0" mask-type="alpha" maskUnits="userSpaceOnUse" x="0" y="0" width="16" height="16">
<path fill-rule="evenodd" clip-rule="evenodd" d="M8 0C3.58167 0 0 3.58167 0 8C0 12.4183 3.58167 16 8 16C12.4175 16 16 12.4183 16 7.99917C16 3.58167 12.4175 0 8 0ZM4.76794 4.76793C5.11757 4.4183 5.68445 4.4183 6.03409 4.76793L7.93332 6.66717L9.83255 4.76793C10.1822 4.4183 10.7491 4.4183 11.0987 4.76794C11.4483 5.11757 11.4483 5.68445 11.0987 6.03409L9.19947 7.93332L11.0987 9.83255C11.4483 10.1822 11.4483 10.7491 11.0987 11.0987C10.7491 11.4483 10.1822 11.4483 9.83255 11.0987L7.93332 9.19947L6.03409 11.0987C5.68445 11.4483 5.11757 11.4483 4.76794 11.0987C4.4183 10.7491 4.4183 10.1822 4.76794 9.83255L6.66717 7.93332L4.76793 6.03409C4.4183 5.68445 4.4183 5.11757 4.76794 4.76793Z" fill="white"/>
</mask>
<g mask="url(#mask0)">
<rect width="16" height="16" fill="#D66464"/>
</g>
</svg>
