<svg width="14" height="14" viewBox="0 0 14 14" fill="none" xmlns="http://www.w3.org/2000/svg">
<path fill-rule="evenodd" clip-rule="evenodd" d="M14 7C14 10.8662 10.8662 14 7 14C3.13379 14 0 10.8662 0 7C0 3.13379 3.13379 0 7 0C10.8662 0 14 3.13379 14 7ZM5.55697 2.4C6.08566 2.4 6.51395 2.82829 6.51395 3.35697C6.51395 3.88474 6.08566 4.31303 5.55697 4.31303C5.02829 4.31303 4.6 3.88474 4.6 3.35697C4.6 2.82829 5.02829 2.4 5.55697 2.4ZM5.16466 8.161L5.17923 8.6341C5.17923 9.78081 6.11226 10.7148 7.25989 10.7148C8.39739 10.7148 9.32397 9.7891 9.32397 8.6516V7.94239C9.32397 7.56107 9.01449 7.2516 8.63318 7.2516C8.25186 7.2516 7.94239 7.56107 7.94239 7.94239V8.6516C7.94239 9.02739 7.63568 9.33318 7.25989 9.33318C6.87489 9.33318 6.56081 9.0191 6.56081 8.6341L6.54624 5.40153L3.64563 5.37432C3.64563 5.37432 3.43078 6.79578 5.16466 6.79578V8.161Z" fill="#D9DFEC"/>
<mask id="mask0" mask-type="alpha" maskUnits="userSpaceOnUse" x="0" y="0" width="14" height="14">
<path fill-rule="evenodd" clip-rule="evenodd" d="M14 7C14 10.8662 10.8662 14 7 14C3.13379 14 0 10.8662 0 7C0 3.13379 3.13379 0 7 0C10.8662 0 14 3.13379 14 7ZM5.55697 2.4C6.08566 2.4 6.51395 2.82829 6.51395 3.35697C6.51395 3.88474 6.08566 4.31303 5.55697 4.31303C5.02829 4.31303 4.6 3.88474 4.6 3.35697C4.6 2.82829 5.02829 2.4 5.55697 2.4ZM5.16466 8.161L5.17923 8.6341C5.17923 9.78081 6.11226 10.7148 7.25989 10.7148C8.39739 10.7148 9.32397 9.7891 9.32397 8.6516V7.94239C9.32397 7.56107 9.01449 7.2516 8.63318 7.2516C8.25186 7.2516 7.94239 7.56107 7.94239 7.94239V8.6516C7.94239 9.02739 7.63568 9.33318 7.25989 9.33318C6.87489 9.33318 6.56081 9.0191 6.56081 8.6341L6.54624 5.40153L3.64563 5.37432C3.64563 5.37432 3.43078 6.79578 5.16466 6.79578V8.161Z" fill="white"/>
</mask>
<g mask="url(#mask0)">
<rect x="-1" y="-1" width="16" height="16" fill="#CCD5E4"/>
</g>
</svg>
