<svg xmlns="http://www.w3.org/2000/svg" xmlns:xlink="http://www.w3.org/1999/xlink" width="16" height="16" viewBox="0 0 16 16">
    <defs>
        <path id="a" d="M8.432 2h6.02v6.021h-.9a1.3 1.3 0 0 1-1.3-1.3v-.968L7.859 10.13a1.1 1.1 0 1 1-1.556-1.556l4.39-4.374h-.961a1.3 1.3 0 0 1-1.3-1.3V2zm3.202 7.572a.999.999 0 0 1 .66 1.25 5.237 5.237 0 0 1-5.03 3.705A5.27 5.27 0 0 1 2 9.262a5.28 5.28 0 0 1 3.486-4.957 1 1 0 1 1 .675 1.884 3.272 3.272 0 0 0-2.16 3.072c0 1.8 1.463 3.266 3.263 3.266a3.25 3.25 0 0 0 3.12-2.296 1 1 0 0 1 1.25-.66z"/>
    </defs>
    <g fill="none" fill-rule="evenodd">
        <mask id="b" fill="#fff">
            <use xlink:href="#a"/>
        </mask>
        <use fill="#006FC4" xlink:href="#a"/>
        <g fill="#1B71BE" mask="url(#b)">
            <path d="M0 0h16v16H0z"/>
        </g>
    </g>
</svg>
