<?xml version="1.0" encoding="UTF-8"?>
<svg width="41px" height="41px" viewBox="0 0 41 41" version="1.1" xmlns="http://www.w3.org/2000/svg" xmlns:xlink="http://www.w3.org/1999/xlink">
    <!-- Generator: Sketch 48.2 (47327) - http://www.bohemiancoding.com/sketch -->
    <title>ill_low_limits</title>
    <desc>Created with Sketch.</desc>
    <defs>
        <circle id="path-1" cx="20.5" cy="20.5" r="20.5"></circle>
        <path d="M22.9922826,0.158401142 C22.9922826,0.0169887008 22.8217979,-0.0537175199 22.7235762,0.0480994379 L21.0566147,1.75918998 C21.0201324,1.79595721 21.0061007,1.84898688 21.0145197,1.90060242 C21.0573163,2.18201318 21.0004881,2.49665586 20.6293506,2.84311634 C20.4336089,3.02624545 20.1845469,3.15210253 19.9172437,3.14573897 C19.4815606,3.13371891 19.1146326,2.86008583 18.9546716,2.47615106 C18.9378336,2.43584851 18.9062624,2.40261659 18.8641674,2.38776828 L17.4869597,1.91191542 C17.4392521,1.89565298 17.3880365,1.90767304 17.3480462,1.9401979 C17.1628283,2.09150922 16.9277979,2.1834273 16.6710185,2.1834273 C16.5545557,2.1834273 16.4444072,2.16009425 16.3391697,2.1254482 C16.3391697,2.1254482 14.7676235,3.657652 14.2091633,4.21128171 C14.1411097,4.27986675 14.1404081,4.28481618 14.155843,4.42269331 C14.155843,5.02369619 13.6731538,5.51086205 13.0761065,5.51086205 C12.5716682,5.51086205 12.1507184,5.16157332 12.0321508,4.69066989 C12.0195223,4.64258966 11.9886527,4.60158005 11.9430498,4.58178231 L10.9201415,4.14481786 C10.8682244,4.12148481 10.809993,4.13279781 10.7643901,4.16744386 C10.5833816,4.30673511 10.358875,4.39158257 10.1147241,4.39158257 C9.99826129,4.39158257 9.88600799,4.3724919 9.78077052,4.33713878 C9.71832962,4.31663398 9.65027606,4.32723991 9.60116524,4.37107777 L8.35655675,5.50520555 C8.31446176,5.54338691 8.2920111,5.59641658 8.28569686,5.65298155 C8.23097337,6.20166182 7.77354116,6.63014152 7.21367782,6.63014152 C6.78009944,6.63014152 6.41036513,6.37135675 6.23917884,5.99944203 C6.19427752,5.90186745 6.11149071,5.82833298 6.01888174,5.77671744 L4.61782021,5.01450438 C4.50767166,4.95440409 4.37226611,4.9749089 4.28386664,5.06329167 L0.138211878,9.19324202 L0.136808712,9.19465615 L0.131196047,9.20031264 L0.132599213,9.20101971 C0.051215569,9.28586717 0,9.40041125 0,9.52768245 C0,9.7885884 0.209071775,10 0.468657536,10 L14.0674435,10 C14.3277308,10 14.6918525,9.84939575 14.8770704,9.66485251 L15.143672,9.39829006 L15.1513894,9.39051238 L18.3428911,6.20378301 C18.5274075,6.01994684 18.8283867,6.01994684 19.012903,6.20378301 L22.1952841,9.38344176 C22.2808773,9.47182453 22.3987433,9.52768245 22.5313425,9.52768245 C22.7895251,9.52768245 23,9.31697791 23,9.05677902 L22.9922826,0.158401142 Z" id="path-3"></path>
    </defs>
    <g id="Plugin" stroke="none" stroke-width="1" fill="none" fill-rule="evenodd" transform="translate(-1030.000000, -1769.000000)">
        <g id="start" transform="translate(800.000000, 1699.000000)">
            <g id="ill_low_limits" transform="translate(230.000000, 70.000000)">
                <g id="Rectangle-6">
                    <mask id="mask-2" fill="white">
                        <use xlink:href="#path-1"></use>
                    </mask>
                    <use id="Mask" fill="#CCD5E4" transform="translate(20.500000, 20.500000) rotate(90.000000) translate(-20.500000, -20.500000) " xlink:href="#path-1"></use>
                    <rect fill="#1B6EBE" mask="url(#mask-2)" x="3" y="34" width="33" height="10"></rect>
                </g>
                <g id="icon-1" transform="translate(8.000000, 12.000000)">
                    <path d="M7.69187369,0 C7.43962783,0.0137984647 7.23641004,0.223680374 7.23641004,0.483672498 C7.23641004,0.621657144 7.29396473,0.744390856 7.38491535,0.832265289 L10.5937669,4.08579801 C10.780642,4.27534534 10.780642,4.58399521 10.5944775,4.77354254 L5.31152542,10.1280731 C5.2858186,10.1543473 3.30837701,11.927497 3.40436346,12.003418 C6.178034,14.1972656 22.9282343,10.8630371 22.9282343,10.8630371 C22.9744201,10.8158318 23,4.29204874 23,4.22450889 L23,0.486577438 C23,0.217870495 22.7868345,0 22.5239303,0 L7.69187369,0 Z" id="Fill-45" fill="#FFFFFF"></path>
                    <g id="Rectangle-3" transform="translate(0.000000, 6.000000)">
                        <mask id="mask-4" fill="white">
                            <use xlink:href="#path-3"></use>
                        </mask>
                        <use id="Mask" fill="#FFFFFF" xlink:href="#path-3"></use>
                    </g>
                </g>
            </g>
        </g>
    </g>
</svg>