<?xml version="1.0" encoding="UTF-8" standalone="no"?>
<svg
   xmlns:dc="http://purl.org/dc/elements/1.1/"
   xmlns:cc="http://creativecommons.org/ns#"
   xmlns:rdf="http://www.w3.org/1999/02/22-rdf-syntax-ns#"
   xmlns:svg="http://www.w3.org/2000/svg"
   xmlns="http://www.w3.org/2000/svg"
   xmlns:sodipodi="http://sodipodi.sourceforge.net/DTD/sodipodi-0.dtd"
   xmlns:inkscape="http://www.inkscape.org/namespaces/inkscape"
   viewBox="0 0 32 32"
   width="100%"
   height="100%"
   version="1.1"
   id="svg6"
   sodipodi:docname="no-data2.svg"
   inkscape:version="0.92.2 (unknown)">
  <metadata
     id="metadata12">
    <rdf:RDF>
      <cc:Work
         rdf:about="">
        <dc:format>image/svg+xml</dc:format>
        <dc:type
           rdf:resource="http://purl.org/dc/dcmitype/StillImage" />
        <dc:title></dc:title>
      </cc:Work>
    </rdf:RDF>
  </metadata>
  <defs
     id="defs10" />
  <sodipodi:namedview
     pagecolor="#ffffff"
     bordercolor="#666666"
     borderopacity="1"
     objecttolerance="10"
     gridtolerance="10"
     guidetolerance="10"
     inkscape:pageopacity="0"
     inkscape:pageshadow="2"
     inkscape:window-width="741"
     inkscape:window-height="480"
     id="namedview8"
     showgrid="false"
     inkscape:zoom="7.375"
     inkscape:cx="16"
     inkscape:cy="16"
     inkscape:window-x="0"
     inkscape:window-y="0"
     inkscape:window-maximized="0"
     inkscape:current-layer="svg6" />
  <path
     class="path1"
     d="m 6.3821864,17.755593 c -1.545,-1.545 -2.396,-3.599 -2.395,-5.783 10e-4,-2.1839998 0.85,-4.2389998 2.395,-5.7839998 1.545,-1.545 3.599,-2.395 5.7829996,-2.395 2.185,0 4.239,0.85 5.784,2.395 1.545,1.545 2.395,3.599 2.395,5.7839998 0.001,2.184 -0.85,4.239 -2.395,5.783 -1.545,1.544 -3.599,2.396 -5.784,2.396 -2.1839996,0 -4.2389996,-0.851 -5.7829996,-2.396 z m 17.5709996,-6.876 c -0.522,-5.8179998 -5.361,-10.44499978 -11.195,-10.72999978 -3.5019996,-0.171 -6.6909996,1.18099998 -8.9619996,3.45199998 -2.389,2.389 -3.76099996,5.795 -3.49099996,9.4499998 0.402,5.432 4.42699996,9.767 9.80499956,10.633 3.445,0.554 6.742,-0.391 9.251,-2.315 0.18,-0.138 0.43,-0.128 0.592,0.03 l 0.328,0.319 c 0.088,0.086 0.11,0.226 0.04,0.328 -0.298,0.436 -0.283,1.071 0.095,1.449 l 7.669,7.669 c 0.907,0.907 2.408,1 3.327,0.105 0.955,-0.931 0.908,-2.404 -0.032,-3.343 l -7.669,-7.669 c -0.521,-0.521 -1.139,-0.277 -1.439,-0.105 -0.112,0.064 -0.251,0.048 -0.343,-0.043 l -0.343,-0.343 c -0.16,-0.16 -0.171,-0.409 -0.033,-0.588 1.739,-2.262 2.679,-5.169 2.398,-8.3 z"
     id="path2"
     inkscape:connector-curvature="0"
     style="fill:#d8dfed" />
  <path
     class="path2"
     fill="#d8dfed"
     d="M11.744 10.23l-2.217-2.217c-0.408-0.408-1.065-0.404-1.472 0.003-0.41 0.41-0.409 1.067-0.003 1.472l2.217 2.217-2.217 2.217c-0.408 0.408-0.404 1.065 0.003 1.472 0.41 0.41 1.067 0.409 1.472 0.003l2.217-2.217 2.217 2.217c0.408 0.408 1.065 0.404 1.472-0.003 0.41-0.41 0.409-1.067 0.003-1.472l-2.217-2.217 2.217-2.217c0.408-0.408 0.404-1.065-0.003-1.472-0.41-0.41-1.067-0.409-1.472-0.003l-2.217 2.217z"
     id="path4" />
</svg>
