<svg width="16" height="16" viewBox="0 0 16 16" fill="none" xmlns="http://www.w3.org/2000/svg">
<g id="Atoms / Icons / Add users /Settings">
<path id="icon-settings" fill-rule="evenodd" clip-rule="evenodd" d="M4.7511 8.57565C4.33815 6.73072 5.46622 4.89197 7.27214 4.4701C9.07806 4.04822 10.8779 5.20066 11.2909 7.04559C11.7049 8.89052 10.5758 10.7293 8.76986 11.1511C6.96394 11.574 5.16506 10.4206 4.7511 8.57565ZM9.87577 13.2513C10.3562 13.0146 10.6453 12.8716 11.1257 12.6349L13.117 13.2564C14.1494 13.5785 15.0337 12.4435 14.4948 11.4886L13.4574 9.64474C13.5752 9.11277 13.6468 8.79379 13.7646 8.26182L15.4819 7.05896C16.3723 6.43541 16.055 5.02059 14.9884 4.85493L12.9296 4.53595C12.5972 4.10996 12.3958 3.85375 12.0634 3.42776L12.2135 1.30604C12.2911 0.207106 11.0109 -0.422619 10.2192 0.326466L8.6913 1.77113C8.15748 1.77216 7.83618 1.77216 7.30337 1.77216L5.77342 0.329553C4.97974 -0.417474 3.70059 0.21328 3.77915 1.31221L3.93224 3.4329C3.59986 3.85992 3.40044 4.11613 3.06806 4.54315L1.01034 4.86522C-0.0562973 5.03294 -0.371553 6.44776 0.518818 7.07028L2.23711 8.27005C2.35697 8.80202 2.42848 9.121 2.54733 9.65195L1.51092 11.4969C0.974076 12.4538 1.86042 13.5877 2.89281 13.2636L4.88204 12.6401C5.36348 12.8757 5.65255 13.0177 6.134 13.2533L6.89948 15.232C7.29632 16.2569 8.71748 16.2558 9.11231 15.2299L9.87577 13.2513Z" fill="#006FC4"/>
<mask id="mask0" mask-type="alpha" maskUnits="userSpaceOnUse" x="0" y="0" width="16" height="16">
<path id="icon-settings_2" fill-rule="evenodd" clip-rule="evenodd" d="M4.7511 8.57565C4.33815 6.73072 5.46622 4.89197 7.27214 4.4701C9.07806 4.04822 10.8779 5.20066 11.2909 7.04559C11.7049 8.89052 10.5758 10.7293 8.76986 11.1511C6.96394 11.574 5.16506 10.4206 4.7511 8.57565ZM9.87577 13.2513C10.3562 13.0146 10.6453 12.8716 11.1257 12.6349L13.117 13.2564C14.1494 13.5785 15.0337 12.4435 14.4948 11.4886L13.4574 9.64474C13.5752 9.11277 13.6468 8.79379 13.7646 8.26182L15.4819 7.05896C16.3723 6.43541 16.055 5.02059 14.9884 4.85493L12.9296 4.53595C12.5972 4.10996 12.3958 3.85375 12.0634 3.42776L12.2135 1.30604C12.2911 0.207106 11.0109 -0.422619 10.2192 0.326466L8.6913 1.77113C8.15748 1.77216 7.83618 1.77216 7.30337 1.77216L5.77342 0.329553C4.97974 -0.417474 3.70059 0.21328 3.77915 1.31221L3.93224 3.4329C3.59986 3.85992 3.40044 4.11613 3.06806 4.54315L1.01034 4.86522C-0.0562973 5.03294 -0.371553 6.44776 0.518818 7.07028L2.23711 8.27005C2.35697 8.80202 2.42848 9.121 2.54733 9.65195L1.51092 11.4969C0.974076 12.4538 1.86042 13.5877 2.89281 13.2636L4.88204 12.6401C5.36348 12.8757 5.65255 13.0177 6.134 13.2533L6.89948 15.232C7.29632 16.2569 8.71748 16.2558 9.11231 15.2299L9.87577 13.2513Z" fill="white"/>
</mask>
<g mask="url(#mask0)">
<g id="Colour">
<rect id="B 900" width="16" height="16" fill="#1B71BE"/>
</g>
</g>
</g>
</svg>
