<svg width="16" height="10" viewBox="0 0 16 10" fill="none" xmlns="http://www.w3.org/2000/svg">
<g id="Atoms / Icons / Add users Copy 34">
<path id="icon" fill-rule="evenodd" clip-rule="evenodd" d="M8.00019 8.0026C5.0709 8.0026 3.10994 6.05113 2.29946 5.05643C3.2516 4.04374 5.48575 1.9974 8.00019 1.9974C10.5227 1.9974 12.7811 4.0797 13.7232 5.08239C12.9795 6.07011 11.1248 8.0026 8.00019 8.0026ZM15.7894 4.38929C15.6487 4.21053 12.3066 0 8.00019 0C3.69277 0 0.350646 4.21053 0.211011 4.38929C-0.0429617 4.71487 -0.0702815 5.15929 0.143218 5.51183C0.25452 5.6946 2.92073 10 8.00019 10C13.3377 10 15.7772 5.65964 15.8784 5.47488C16.0686 5.12733 16.0332 4.70189 15.7894 4.38929ZM8.36627 4.46719L8.34907 2.39688C7.59221 2.29302 6.79791 2.52372 6.22217 3.10197C5.25586 4.07171 5.26902 5.63567 6.25152 6.58943C7.23301 7.54319 8.81856 7.52921 9.78488 6.56047C10.3606 5.98322 10.5802 5.19525 10.4638 4.44922L8.36627 4.46719Z" fill="#006FC4"/>
<mask id="mask0" mask-type="alpha" maskUnits="userSpaceOnUse" x="0" y="0" width="16" height="10">
<path id="icon_2" fill-rule="evenodd" clip-rule="evenodd" d="M8.00019 8.0026C5.0709 8.0026 3.10994 6.05113 2.29946 5.05643C3.2516 4.04374 5.48575 1.9974 8.00019 1.9974C10.5227 1.9974 12.7811 4.0797 13.7232 5.08239C12.9795 6.07011 11.1248 8.0026 8.00019 8.0026ZM15.7894 4.38929C15.6487 4.21053 12.3066 0 8.00019 0C3.69277 0 0.350646 4.21053 0.211011 4.38929C-0.0429617 4.71487 -0.0702815 5.15929 0.143218 5.51183C0.25452 5.6946 2.92073 10 8.00019 10C13.3377 10 15.7772 5.65964 15.8784 5.47488C16.0686 5.12733 16.0332 4.70189 15.7894 4.38929ZM8.36627 4.46719L8.34907 2.39688C7.59221 2.29302 6.79791 2.52372 6.22217 3.10197C5.25586 4.07171 5.26902 5.63567 6.25152 6.58943C7.23301 7.54319 8.81856 7.52921 9.78488 6.56047C10.3606 5.98322 10.5802 5.19525 10.4638 4.44922L8.36627 4.46719Z" fill="white"/>
</mask>
<g mask="url(#mask0)">
</g>
</g>
</svg>
