<?xml version="1.0" encoding="UTF-8"?>
<svg width="501px" height="198px" viewBox="0 0 501 198" version="1.1" xmlns="http://www.w3.org/2000/svg" xmlns:xlink="http://www.w3.org/1999/xlink">
    <!-- Generator: Sketch 48.2 (47327) - http://www.bohemiancoding.com/sketch -->
    <title>illustration</title>
    <desc>Created with Sketch.</desc>
    <defs></defs>
    <g id="Plugin" stroke="none" stroke-width="1" fill="none" fill-rule="evenodd" transform="translate(-800.000000, -1355.000000)">
        <g id="illustration" transform="translate(800.000000, 1355.000000)">
            <path d="M340.12991,94.1561825 C340.329906,145.719789 298.693372,187.68258 247.129765,187.882576 C195.566158,188.083582 153.603368,146.446037 153.403372,94.8834405 C153.202366,43.3198337 194.83991,1.35704335 246.403517,1.15704738 C297.966114,0.95503125 339.928904,42.5935857 340.12991,94.1561825" id="Fill-1" fill="#F1F2F6"></path>
            <polygon id="Fill-3" fill="#D7DEEC" points="262.873488 151.594923 270.53697 151.594923 270.53697 124.358099 262.873488 124.358099"></polygon>
            <polygon id="Fill-5" fill="#D7DEEC" points="276.448972 164.494663 284.112454 164.494663 284.112454 118.754171 276.448972 118.754171"></polygon>
            <polygon id="Fill-6" fill="#D7DEEC" points="290.025466 155.279698 297.689958 155.279698 297.689958 100.341411 290.025466 100.341411"></polygon>
            <polygon id="Fill-7" fill="#D7DEEC" points="303.60095 151.594923 311.265442 151.594923 311.265442 110.749282 303.60095 110.749282"></polygon>
            <polygon id="Fill-8" fill="#D7DEEC" points="317.177444 170.023845 324.841935 170.023845 324.841935 100.342421 317.177444 100.342421"></polygon>
            <path d="M243.554685,44.1719377 C243.554685,68.5674054 263.331054,88.3437744 287.726522,88.3437744 C312.123,88.3437744 331.899369,68.5674054 331.899369,44.1719377 C331.899369,19.77748 312.123,0.00111108871 287.726522,0.00111108871 C263.331054,0.00111108871 243.554685,19.77748 243.554685,44.1719377" id="Fill-9" fill="#D9DEEC"></path>
            <path d="M265.862317,31.8418833 C267.187542,32.55298 285.534647,42.4729821 286.218472,42.8406514 C286.902296,43.2063006 287.787127,43.411347 288.678018,43.411347 C289.567899,43.411347 290.45273,43.2537744 291.136554,42.8881252 C291.820379,42.5204558 310.167484,32.5448994 311.49271,31.8338026 C312.819956,31.1196756 314.073466,28.2257946 311.639171,28.2257946 L265.717875,28.2257946 C263.283581,28.2257946 264.538101,31.1277562 265.862317,31.8418833 M311.825026,37.9468107 C310.317986,38.7306333 291.917347,48.3940748 290.995143,48.8768933 C290.071929,49.3597119 289.496183,49.4162764 288.607312,49.4162764 C287.716421,49.4162764 287.105323,49.3597119 286.183119,48.8768933 C285.259905,48.3940748 267.070373,38.7286131 265.564343,37.9437804 C264.505778,37.3902562 264.764359,38.0397381 264.764359,38.5387179 L264.764359,58.3332683 C264.764359,59.4726393 265.841105,60.834228 267.018859,60.834228 L310.445256,60.834228 C311.62301,60.834228 312.590667,59.4726393 312.590667,58.3332683 L312.590667,38.5417482 C312.590667,38.0427683 312.885611,37.3932865 311.825026,37.9468107" id="Fill-10" fill="#FFFFFF"></path>
            <path d="M128.461753,53.2301389 C128.461753,55.4937296 129.944552,59.4017317 127.679951,59.4017317 L123.685082,59.4017317 C122.758838,59.4017317 122.005318,57.6159091 122.005318,56.6896651 C122.005318,55.448276 121.075034,53.8856812 119.840715,53.74427 C117.688233,53.4957901 115.937764,51.2857337 115.937764,49.135272 C115.937764,46.9838002 116.443814,44.9030341 118.595286,44.6545542 C119.829604,44.5121329 120.355856,41.5111833 120.355856,41.5111833 C120.914431,38.576899 122.505308,38.576899 123.430542,38.576899 L126.365836,38.8566913 C128.630437,38.8566913 128.461753,42.0616772 128.461753,44.3272881 L128.461753,53.2301389 Z M191.337253,47.1029897 L137.631266,47.1029897 C136.878755,47.1029897 136.288868,46.1302821 136.288868,45.377772 L136.288868,44.3272881 C136.288868,39.3576913 132.240465,34.8032377 127.271878,34.8032377 L123.685082,34.8032377 C120.684132,34.8032377 118.14681,37.0880401 117.363997,39.8405099 C113.701445,41.1081611 111.046953,44.7777841 111.046953,48.7453808 C111.046953,52.7362095 113.732757,56.6229998 117.430663,57.8704494 C118.283171,60.5108002 120.764939,62.7572196 123.685082,62.7572196 L127.679951,62.7572196 C132.42329,62.7572196 136.288868,58.3815502 136.288868,53.6372014 L136.288868,52.99378 C136.288868,52.24127 136.878755,51.5746167 137.631266,51.5746167 L175.090106,51.5746167 C175.5103,51.5746167 176.01938,51.9715784 176.01938,52.3927821 L176.01938,58.5360925 C176.01938,59.2239575 176.409272,59.4017317 177.096126,59.4017317 L180.312223,59.4017317 C181.000088,59.4017317 181.610177,59.2239575 181.610177,58.5360925 L181.610177,53.606899 C181.610177,52.9654978 182.032391,52.4119736 182.672782,52.4483365 C183.384889,52.4877296 183.846495,53.0786268 183.846495,53.8008345 L183.846495,55.3997921 C183.846495,56.0199817 184.503048,56.0482639 185.123237,56.0482639 L188.586804,56.0482639 C189.205983,56.0482639 189.437292,56.0199817 189.437292,55.3997921 L189.437292,52.2786429 C189.437292,51.9210744 189.997886,51.5746167 190.354445,51.5746167 L191.198872,51.5746167 C192.523088,51.5746167 193.709933,50.7928143 193.778618,49.4696087 C193.852354,48.0595361 192.732175,47.1029897 191.337253,47.1029897 Z" id="Fill-11" fill="#D9DEEC"></path>
            <path d="M204.836274,30.5457478 C204.836274,30.5457478 200.959585,27.4316692 200.310103,27.4316692 L193.092067,27.4316692 L191.165843,25.5337276 L171.553107,25.5337276 C169.672337,21.0782619 165.262325,17.9500421 160.122024,17.9500421 C153.272667,17.9500421 147.720254,23.5024554 147.720254,30.3528224 C147.720254,37.2021792 153.272667,42.7545925 160.122024,42.7545925 C165.317879,42.7545925 169.760214,39.5566772 171.607651,35.0254554 L200.310103,35.0254554 C200.962615,35.0254554 204.813042,32.0810704 204.813042,32.0810704 C205.277679,31.613403 205.28778,30.9881631 204.836274,30.5457478" id="Fill-12" fill="#D9DEEC"></path>
            <path d="M177.325415,74.6380911 L177.325415,102.818331 C177.325415,103.444581 178.424382,103.269837 179.048612,103.269837 L208.447009,103.269837 L208.447009,74.6380911 L177.325415,74.6380911 Z" id="Fill-13" fill="#FFFFFF"></path>
            <path d="M208.446504,72.1484444 L208.446504,68.5151843 C208.446504,67.4889423 208.160652,67.1687468 207.13239,67.1687468 L179.777385,67.1687468 C178.751144,67.1687468 177.32491,67.4889423 177.32491,68.5151843 L177.32491,72.1484444 L208.446504,72.1484444 Z" id="Fill-14" fill="#FFFFFF"></path>
            <path d="M286.340085,147.313596 C286.340085,155.859888 279.411942,162.789041 270.86464,162.789041 C262.317337,162.789041 255.388184,155.859888 255.388184,147.313596 C255.388184,138.766293 262.317337,131.83815 270.86464,131.83815 C279.411942,131.83815 286.340085,138.766293 286.340085,147.313596" id="Fill-15" fill="#45B24D"></path>
            <path d="M266.41372,151.835323 L266.41372,142.79106 C266.41372,141.811282 267.478345,141.204224 268.321762,141.702194 L275.980193,146.224325 C276.80947,146.714214 276.80947,147.912169 275.980193,148.403069 L268.321762,152.92419 C267.478345,153.422159 266.41372,152.815101 266.41372,151.835323" id="Fill-16" fill="#FFFFFF"></path>
            <path d="M235.320205,150.107075 C235.320205,169.619812 219.502342,185.438685 199.988594,185.438685 C180.474846,185.438685 164.655973,169.619812 164.655973,150.107075 C164.655973,130.593327 180.474846,114.774454 199.988594,114.774454 C219.502342,114.774454 235.320205,130.593327 235.320205,150.107075" id="Fill-17" fill="#D9DEEC"></path>
            <path d="M226.221601,150.107075 C226.221601,164.594661 214.476383,176.339879 199.987786,176.339879 C185.500199,176.339879 173.755992,164.594661 173.755992,150.107075 C173.755992,135.618478 185.500199,123.87326 199.987786,123.87326 C214.476383,123.87326 226.221601,135.618478 226.221601,150.107075" id="Fill-18" fill="#FFFFFF"></path>
            <path d="M200.457575,150.1397 C200.457575,151.344726 199.479817,152.322484 198.27479,152.322484 C197.068754,152.322484 196.092006,151.344726 196.092006,150.1397 L196.092006,135.295555 C196.092006,134.088509 197.068754,133.111761 198.27479,133.111761 C199.479817,133.111761 200.457575,134.088509 200.457575,135.295555 L200.457575,150.1397 Z" id="Fill-19" fill="#45B24D"></path>
            <path d="M252.058554,65.7663508 C238.524484,43.4173065 218.56327,30.8034194 194.335476,29.2893085 C145.333433,26.2176532 94.4465806,61.8442077 60.3856512,92.2627863 C29.8903065,119.497591 7.08672581,147.516218 0,156.540278 L0,159.830111 C4.34839718,154.173659 28.4378105,123.503571 61.7310786,93.7698266 C95.5041351,63.6078085 145.884937,28.293369 194.209216,31.3054294 C217.747125,32.7761069 237.153804,45.0546472 250.330306,66.8127944 C261.77755,85.7164536 268.017829,110.797766 267.899649,137.437633 L269.91981,137.447734 C270.039,110.440198 263.695694,84.9831351 252.058554,65.7663508" id="Fill-20" fill="#FCDD27"></path>
            <path d="M500.49496,99.7658673 C405.591823,67.296825 341.047669,77.5350024 303.582768,91.8761274 C256.751389,109.804049 231.426647,140.888271 223.340952,164.001946 C217.755206,179.969301 220.419798,192.517533 230.128694,195.969988 C232.292286,196.73967 234.511433,197.11946 236.737651,197.11946 C240.903224,197.11946 245.088998,195.786154 248.950536,193.170045 C255.75545,188.558017 267.363296,175.857262 268.638018,142.597327 C268.66024,142.040773 268.224895,141.571085 267.667331,141.549873 C267.1532,141.500379 266.640079,141.961986 266.619877,142.520561 C265.378488,174.890615 254.306994,187.10047 247.817226,191.496341 C242.436526,195.141722 236.395234,196.054835 230.805448,194.065986 C222.246024,191.023623 220.06526,179.484462 225.247984,164.668599 C233.184187,141.983198 258.120048,111.44341 304.304976,93.7639681 C371.73796,67.948327 448.177833,83.9187121 500.49496,101.898148 L500.49496,99.7658673 Z" id="Fill-21" fill="#FCDD27"></path>
            <path d="M279.234067,71.4786599 L279.234067,62.7606538 C279.234067,60.4677708 277.358347,58.5900308 275.063444,58.5900308 L217.637329,58.5900308 C215.601007,58.5900308 213.936394,60.2556538 213.936394,62.2909663 L213.936394,71.4786599 L279.234067,71.4786599 Z" id="Fill-22" fill="#006EC3"></path>
            <path d="M213.935889,74.9152573 L213.935889,126.035439 C213.935889,127.165719 214.747994,128.18388 215.889385,128.18388 L277.574,128.18388 C278.715391,128.18388 279.233562,127.165719 279.233562,126.035439 L279.233562,74.9152573 L213.935889,74.9152573 Z" id="Fill-23" fill="#006EC3"></path>
            <path d="M232.438849,103.100851 C232.082291,103.100851 231.765125,102.875603 231.646946,102.540256 L229.267196,95.8030179 C229.113664,95.3666631 229.342952,94.8868748 229.780317,94.7323325 C230.219702,94.5798103 230.69747,94.8080885 230.853022,95.2444433 L232.438849,99.7372821 L234.024676,95.2444433 C234.180228,94.8080885 234.657996,94.5798103 235.097381,94.7323325 C235.533736,94.8868748 235.764034,95.3666631 235.609492,95.8030179 L233.230752,102.540256 C233.112573,102.875603 232.795407,103.100851 232.438849,103.100851" id="Fill-24" fill="#FFFFFF"></path>
            <path d="M237.146027,103.100851 C236.789468,103.100851 236.472303,102.875603 236.354124,102.540256 L233.975384,95.8030179 C233.820841,95.3666631 234.05114,94.8868748 234.488505,94.7323325 C234.9289,94.5798103 235.405658,94.8080885 235.5602,95.2444433 L237.146027,99.7372821 L238.731853,95.2444433 C238.888416,94.8080885 239.365174,94.5798103 239.804559,94.7323325 C240.241924,94.8868748 240.471212,95.3666631 240.31768,95.8030179 L237.93793,102.540256 C237.819751,102.875603 237.502585,103.100851 237.146027,103.100851" id="Fill-25" fill="#FFFFFF"></path>
            <path d="M244.321135,103.100851 C243.964576,103.100851 243.648421,102.875603 243.529231,102.540256 L241.150492,95.8030179 C240.996959,95.3666631 241.227258,94.8868748 241.663612,94.7323325 C242.104008,94.5798103 242.580766,94.8080885 242.736318,95.2444433 L244.321135,99.7372821 L245.907971,95.2444433 C246.063524,94.8080885 246.540282,94.5798103 246.980677,94.7323325 C247.417032,94.8868748 247.64733,95.3666631 247.492788,95.8030179 L245.114048,102.540256 C244.994858,102.875603 244.677693,103.100851 244.321135,103.100851" id="Fill-26" fill="#FFFFFF"></path>
            <path d="M249.029222,103.100851 C248.672663,103.100851 248.355498,102.875603 248.237318,102.540256 L245.857568,95.8030179 C245.704036,95.3666631 245.934334,94.8868748 246.370689,94.7323325 C246.810074,94.5798103 247.287843,94.8080885 247.443395,95.2444433 L249.029222,99.7372821 L250.615048,95.2444433 C250.770601,94.8080885 251.248369,94.5798103 251.687754,94.7323325 C252.124109,94.8868748 252.354407,95.3666631 252.199865,95.8030179 L249.821125,102.540256 C249.702945,102.875603 249.38578,103.100851 249.029222,103.100851" id="Fill-27" fill="#FFFFFF"></path>
            <path d="M256.20443,103.100851 C255.848882,103.100851 255.531717,102.875603 255.412527,102.540256 L253.032777,95.8030179 C252.879245,95.3666631 253.109543,94.8868748 253.545898,94.7323325 C253.985283,94.5798103 254.463051,94.8080885 254.618604,95.2444433 L256.20443,99.7372821 L257.790257,95.2444433 C257.945809,94.8080885 258.423578,94.5798103 258.862963,94.7323325 C259.299318,94.8868748 259.529616,95.3666631 259.376084,95.8030179 L256.997344,102.540256 C256.878154,102.875603 256.560989,103.100851 256.20443,103.100851" id="Fill-28" fill="#FFFFFF"></path>
            <path d="M260.911507,103.100851 C260.554949,103.100851 260.238794,102.875603 260.119604,102.540256 L257.740864,95.8030179 C257.587332,95.3666631 257.81763,94.8868748 258.253985,94.7323325 C258.69438,94.5798103 259.171138,94.8080885 259.326691,95.2444433 L260.911507,99.7372821 L262.498344,95.2444433 C262.653896,94.8080885 263.132675,94.5798103 263.57105,94.7323325 C264.007404,94.8868748 264.237703,95.3666631 264.084171,95.8030179 L261.704421,102.540256 C261.585231,102.875603 261.268066,103.100851 260.911507,103.100851" id="Fill-29" fill="#FFFFFF"></path>
            <path d="M320.806158,76.2242208 L175.495957,76.2242208 C174.886878,76.2242208 174.392949,75.7313014 174.392949,75.1222228 L174.392949,74.83738 C174.392949,74.2272913 174.886878,73.734372 175.495957,73.734372 L320.806158,73.734372 C321.415237,73.734372 321.908156,74.2272913 321.908156,74.83738 L321.908156,75.1222228 C321.908156,75.7313014 321.415237,76.2242208 320.806158,76.2242208" id="Fill-30" fill="#006EC3"></path>
            <path d="M197.911666,150.186972 L198.267215,149.830414 C199.023765,149.073863 200.261114,149.073863 201.017664,149.830414 L213.800235,162.613994 C214.556785,163.370545 214.556785,164.607893 213.800235,165.364444 L213.444686,165.719992 C212.688136,166.476543 211.449777,166.476543 210.693227,165.719992 L197.911666,152.938432 C197.155116,152.181881 197.155116,150.943522 197.911666,150.186972" id="Fill-31" fill="#45B24D"></path>
            <path d="M128.461753,51.4594675 L128.461753,53.2301389 C128.461753,55.4937296 129.944552,59.4017317 127.679951,59.4017317 L123.685082,59.4017317 C122.758838,59.4017317 122.005318,57.6159091 122.005318,56.6896651 C122.005318,55.448276 121.074024,53.8856812 119.840715,53.74427 C117.688233,53.4957901 115.937764,51.2857337 115.937764,49.135272 C115.937764,46.9838002 116.443814,44.9030341 118.595286,44.6545542 C119.829604,44.5121329 120.355856,41.5111833 120.355856,41.5111833 C120.914431,38.576899 122.505308,38.576899 123.430542,38.576899 L125.183032,38.7435623 L125.183032,34.8032377 L123.685082,34.8032377 C120.684132,34.8032377 118.14681,37.08703 117.365007,39.8405099 C113.701445,41.1081611 111.046953,44.7777841 111.046953,48.7443708 C111.046953,52.7362095 113.732757,56.6229998 117.430663,57.8704494 C118.283171,60.5108002 120.764939,62.7572196 123.685082,62.7572196 L127.679951,62.7572196 C132.42329,62.7572196 136.288868,58.3815502 136.288868,53.6372014 L136.288868,52.99378 C136.288868,52.2402599 136.878755,51.5746167 137.631266,51.5746167 L137.631266,51.4594675 L128.461753,51.4594675 Z" id="Fill-32" fill="#D9DEEC"></path>
        </g>
    </g>
</svg>